<svg width="67" height="80" viewBox="0 0 67 80" fill="none" xmlns="http://www.w3.org/2000/svg">
<rect width="67" height="80" rx="4" fill="#01674F"/>
<ellipse cx="34.3041" cy="51.1834" rx="14.6963" ry="0.81646" fill="#432C18" fill-opacity="0.49"/>
<path d="M18.5191 13.8988L10.8988 15.5317L17.1583 19.8861L24.7786 18.7975L18.5191 13.8988Z" fill="#E36F00"/>
<path d="M43.0129 15.5317L47.0952 9L40.0192 9.81646L36.4812 16.7015L43.0129 15.5317Z" fill="#E36F00"/>
<path fill-rule="evenodd" clip-rule="evenodd" d="M36.4812 16.7015L24.7786 18.7975L27.7723 38.1204L39.4749 35.671L46.0065 33.7659L43.0129 15.5317L36.4812 16.7015ZM40.5635 18.2532L35.6647 19.3418L36.4812 22.8798L41.1078 21.7912L40.5635 18.2532Z" fill="#E36F00"/>
<path d="M24.7786 18.7975L17.1583 19.8861L20.4242 38.9368L27.7723 38.1204L24.7786 18.7975Z" fill="#E36F00"/>
<path d="M10.8988 15.5317L10.6893 14.5539L8.43614 15.0367L10.3277 16.3526L10.8988 15.5317ZM18.5191 13.8988L19.1354 13.1112L18.767 12.8229L18.3096 12.921L18.5191 13.8988ZM47.0952 9L47.9432 9.53L49.0441 7.76849L46.9805 8.00659L47.0952 9ZM40.0192 9.81646L39.9046 8.82305L39.3739 8.88428L39.1297 9.35941L40.0192 9.81646ZM36.4812 16.7015L36.6575 17.6859L36.4812 16.7015ZM20.4242 38.9368L19.4385 39.1058L19.5978 40.0348L20.5346 39.9307L20.4242 38.9368ZM46.0065 33.7659L46.2866 34.7259L47.1368 34.4779L46.9933 33.6039L46.0065 33.7659ZM51.9103 41.2502C52.2861 40.8455 52.2626 40.2128 51.8579 39.837C51.4532 39.4612 50.8205 39.4846 50.4447 39.8893L51.9103 41.2502ZM47.6395 44.3799L46.9067 43.6994L46.8884 43.7191L46.8712 43.7397L47.6395 44.3799ZM16.3419 44.3799L17.1611 44.9534L17.2033 44.893L17.2363 44.8271L16.3419 44.3799ZM35.6647 19.3418L35.4478 18.3656L34.4636 18.5843L34.6903 19.5667L35.6647 19.3418ZM40.5635 18.2532L41.5519 18.1011L41.3894 17.0453L40.3466 17.277L40.5635 18.2532ZM41.1078 21.7912L41.3368 22.7646L42.2367 22.5529L42.0962 21.6391L41.1078 21.7912ZM36.4812 22.8798L35.5068 23.1047L35.7326 24.0832L36.7102 23.8532L36.4812 22.8798ZM41.4264 36.5384L41.0203 37.4522L41.4264 36.5384ZM47.0414 45.0976L46.2731 44.4574L47.0414 45.0976ZM17.1757 42.7122L16.2813 42.265L17.1757 42.7122ZM11.1083 16.5095L18.7286 14.8766L18.3096 12.921L10.6893 14.5539L11.1083 16.5095ZM17.9028 14.6863L24.1623 19.585L25.3949 18.01L19.1354 13.1112L17.9028 14.6863ZM43.8609 16.0617L47.9432 9.53L46.2472 8.47L42.1649 15.0017L43.8609 16.0617ZM46.9805 8.00659L39.9046 8.82305L40.1338 10.8099L47.2098 9.99341L46.9805 8.00659ZM24.9549 19.7818L36.6575 17.6859L36.3049 15.7172L24.6023 17.8132L24.9549 19.7818ZM36.6575 17.6859L43.1892 16.516L42.8366 14.5473L36.3049 15.7172L36.6575 17.6859ZM39.1297 9.35941L35.5918 16.2445L37.3706 17.1586L40.9086 10.2735L39.1297 9.35941ZM10.3277 16.3526L16.5873 20.707L17.7294 19.0652L11.4699 14.7108L10.3277 16.3526ZM17.2997 20.8761L24.92 19.7875L24.6372 17.8076L17.0169 18.8962L17.2997 20.8761ZM23.7904 18.9506L26.7841 38.2735L28.7605 37.9673L25.7668 18.6444L23.7904 18.9506ZM27.6619 37.1265L20.3137 37.9429L20.5346 39.9307L27.8827 39.1143L27.6619 37.1265ZM21.4098 38.7679L18.1439 19.7172L16.1727 20.0551L19.4385 39.1058L21.4098 38.7679ZM42.0261 15.6937L45.0198 33.9279L46.9933 33.6039L43.9997 15.3697L42.0261 15.6937ZM26.777 38.0233L26.7177 38.6316L28.7082 38.8258L28.7676 38.2175L26.777 38.0233ZM45.7266 32.8059L39.1949 34.711L39.7549 36.631L46.2866 34.7259L45.7266 32.8059ZM39.27 34.6922L27.5674 37.1416L27.9772 39.0992L39.6797 36.6498L39.27 34.6922ZM47.8096 45.7378L48.4077 45.0201L46.8712 43.7397L46.2731 44.4574L47.8096 45.7378ZM48.3723 45.0603L51.9103 41.2502L50.4447 39.8893L46.9067 43.6994L48.3723 45.0603ZM16.2813 42.265L15.4474 43.9327L17.2363 44.8271L18.0701 43.1595L16.2813 42.265ZM15.5226 43.8064L13.6176 46.528L15.256 47.6749L17.1611 44.9534L15.5226 43.8064ZM35.8817 20.318L40.7804 19.2294L40.3466 17.277L35.4478 18.3656L35.8817 20.318ZM39.5751 18.4053L40.1194 21.9432L42.0962 21.6391L41.5519 18.1011L39.5751 18.4053ZM40.8788 20.8178L36.2522 21.9064L36.7102 23.8532L41.3368 22.7646L40.8788 20.8178ZM37.4556 22.6549L36.6391 19.117L34.6903 19.5667L35.5068 23.1047L37.4556 22.6549ZM39.0687 36.5848L41.0203 37.4522L41.8326 35.6245L39.881 34.7572L39.0687 36.5848ZM41.0203 37.4522C43.8689 38.7182 45.6121 41.6402 45.373 44.7483L47.3671 44.9017C47.6711 40.9498 45.4546 37.2343 41.8326 35.6245L41.0203 37.4522ZM46.2731 44.4574C46.6596 43.9937 47.4134 44.2999 47.3671 44.9017L45.373 44.7483C45.2699 46.0887 46.9489 46.7706 47.8096 45.7378L46.2731 44.4574ZM19.2481 41.6582C18.2963 40.8506 16.8395 41.1486 16.2813 42.265L18.0701 43.1595C18.0483 43.2031 17.9913 43.2148 17.9541 43.1832L19.2481 41.6582ZM26.7177 38.6316C26.3612 42.285 22.047 44.033 19.2481 41.6582L17.9541 43.1832C21.9838 46.6023 28.1951 44.0856 28.7082 38.8258L26.7177 38.6316Z" fill="#432C18"/>
<path d="M16.0697 23.1524L16.3418 24.5131L6 23.1524H16.0697Z" fill="#432C18"/>
<path d="M16.6137 26.4176L16.8859 27.7783L6.54407 26.4176H16.6137Z" fill="#432C18"/>
<path d="M17.1582 29.6835L17.4303 31.0442L7.0885 29.6835H17.1582Z" fill="#432C18"/>
<path d="M10.1598 68L11.2464 61.4545H15.5803L15.3885 62.5955H12.4386L12.1829 64.1552H14.8452L14.6534 65.2962H11.9911L11.5437 68H10.1598ZM17.263 68.0959C16.7623 68.0959 16.3478 67.9893 16.0197 67.7763C15.6916 67.5611 15.4604 67.2628 15.3262 66.8814C15.1941 66.4979 15.1696 66.0515 15.2527 65.5423C15.3336 65.0394 15.502 64.5994 15.7576 64.2223C16.0133 63.8452 16.3382 63.5522 16.7324 63.3434C17.1266 63.1325 17.5708 63.027 18.0652 63.027C18.5637 63.027 18.9771 63.1346 19.3052 63.3498C19.6333 63.5629 19.8645 63.8612 19.9988 64.2447C20.133 64.6282 20.1586 65.0746 20.0755 65.5838C19.9924 66.0845 19.8219 66.5234 19.5641 66.9006C19.3063 67.2777 18.9814 67.5717 18.5893 67.7827C18.1973 67.9915 17.7551 68.0959 17.263 68.0959ZM17.3972 67.0412C17.6273 67.0412 17.8308 66.9762 18.0076 66.8462C18.1866 66.7141 18.3347 66.5352 18.4519 66.3093C18.5712 66.0813 18.6543 65.8235 18.7012 65.5359C18.748 65.2525 18.7512 65.0011 18.7108 64.7816C18.6703 64.56 18.585 64.3853 18.4551 64.2575C18.3272 64.1296 18.1515 64.0657 17.9277 64.0657C17.6976 64.0657 17.4931 64.1317 17.3141 64.2638C17.1351 64.3938 16.987 64.5728 16.8699 64.8008C16.7527 65.0288 16.6706 65.2876 16.6238 65.5774C16.579 65.8587 16.5758 66.1101 16.6142 66.3317C16.6525 66.5511 16.7367 66.7248 16.8667 66.8526C16.9966 66.9783 17.1735 67.0412 17.3972 67.0412ZM22.7825 68.0959C22.2818 68.0959 21.8674 67.9893 21.5392 67.7763C21.2111 67.5611 20.9799 67.2628 20.8457 66.8814C20.7136 66.4979 20.6891 66.0515 20.7722 65.5423C20.8532 65.0394 21.0215 64.5994 21.2772 64.2223C21.5328 63.8452 21.8578 63.5522 22.252 63.3434C22.6461 63.1325 23.0904 63.027 23.5847 63.027C24.0833 63.027 24.4966 63.1346 24.8248 63.3498C25.1529 63.5629 25.3841 63.8612 25.5183 64.2447C25.6525 64.6282 25.6781 65.0746 25.595 65.5838C25.5119 66.0845 25.3414 66.5234 25.0836 66.9006C24.8258 67.2777 24.5009 67.5717 24.1088 67.7827C23.7168 67.9915 23.2747 68.0959 22.7825 68.0959ZM22.9167 67.0412C23.1468 67.0412 23.3503 66.9762 23.5272 66.8462C23.7061 66.7141 23.8542 66.5352 23.9714 66.3093C24.0907 66.0813 24.1738 65.8235 24.2207 65.5359C24.2676 65.2525 24.2708 65.0011 24.2303 64.7816C24.1898 64.56 24.1046 64.3853 23.9746 64.2575C23.8468 64.1296 23.671 64.0657 23.4473 64.0657C23.2172 64.0657 23.0126 64.1317 22.8336 64.2638C22.6547 64.3938 22.5066 64.5728 22.3894 64.8008C22.2722 65.0288 22.1902 65.2876 22.1433 65.5774C22.0985 65.8587 22.0953 66.1101 22.1337 66.3317C22.1721 66.5511 22.2562 66.7248 22.3862 66.8526C22.5162 66.9783 22.693 67.0412 22.9167 67.0412ZM29.5069 63.0909L29.3375 64.1136H26.378L26.5506 63.0909H29.5069ZM27.4135 61.9148H28.775L28.0144 66.4915C27.9931 66.6172 27.9963 66.7152 28.024 66.7855C28.0517 66.8537 28.0975 66.9016 28.1614 66.9293C28.2275 66.957 28.3063 66.9709 28.3979 66.9709C28.4618 66.9709 28.5268 66.9656 28.5929 66.9549C28.6589 66.9421 28.709 66.9325 28.7431 66.9261L28.7942 67.9393C28.7175 67.9627 28.6142 67.9883 28.4842 68.016C28.3564 68.0437 28.2051 68.0607 28.0304 68.0671C27.698 68.0799 27.4167 68.0362 27.1866 67.9361C26.9565 67.8338 26.7914 67.6772 26.6912 67.4663C26.5911 67.2553 26.5698 66.9901 26.6273 66.6705L27.4135 61.9148ZM29.5756 68L30.3938 63.0909H31.7553L30.9371 68H29.5756ZM31.2152 62.4517C31.0128 62.4517 30.8455 62.3846 30.7134 62.2504C30.5835 62.114 30.5302 61.9521 30.5536 61.7646C30.5771 61.5728 30.6687 61.4109 30.8285 61.2788C30.9883 61.1445 31.1694 61.0774 31.3718 61.0774C31.5742 61.0774 31.7393 61.1445 31.8672 61.2788C31.995 61.4109 32.0483 61.5728 32.027 61.7646C32.0057 61.9521 31.9151 62.114 31.7553 62.2504C31.5977 62.3846 31.4176 62.4517 31.2152 62.4517ZM34.2522 68.0959C33.7494 68.0959 33.3328 67.9936 33.0026 67.7891C32.6723 67.5824 32.4401 67.2905 32.3058 66.9134C32.1737 66.5341 32.1514 66.0856 32.2387 65.5678C32.324 65.0629 32.4955 64.6197 32.7533 64.2383C33.0132 63.8569 33.3392 63.5597 33.7313 63.3466C34.1233 63.1335 34.5601 63.027 35.0416 63.027C35.3655 63.027 35.6585 63.0792 35.9205 63.1836C36.1847 63.2859 36.4042 63.4414 36.5789 63.6502C36.7536 63.8569 36.873 64.1158 36.9369 64.4268C37.0029 64.7379 37.0019 65.1023 36.9337 65.5199L36.873 65.8938H32.7309L32.8619 65.0501H35.7256C35.7575 64.854 35.7448 64.6804 35.6872 64.5291C35.6297 64.3778 35.5338 64.2596 35.3996 64.1744C35.2654 64.087 35.1002 64.0433 34.9042 64.0433C34.7039 64.0433 34.5164 64.0923 34.3417 64.1903C34.167 64.2884 34.02 64.4173 33.9007 64.5771C33.7835 64.7347 33.7078 64.9062 33.6737 65.0916L33.5235 65.929C33.4809 66.1868 33.4894 66.4009 33.5491 66.5714C33.6109 66.7418 33.7174 66.8697 33.8687 66.9549C34.02 67.038 34.2117 67.0795 34.444 67.0795C34.5953 67.0795 34.7369 67.0582 34.8691 67.0156C35.0033 66.973 35.1226 66.9102 35.227 66.8271C35.3314 66.7418 35.4166 66.6364 35.4827 66.5107L36.7259 66.5938C36.6109 66.8963 36.4362 67.1605 36.2018 67.3864C35.9674 67.6101 35.6851 67.7848 35.3548 67.9105C35.0267 68.0341 34.6592 68.0959 34.2522 68.0959ZM39.218 68.0799C38.843 68.0799 38.5202 67.984 38.2496 67.7923C37.9812 67.5984 37.7894 67.3139 37.6744 66.9389C37.5614 66.5618 37.5508 66.0994 37.6424 65.5518C37.7362 64.9893 37.9045 64.5217 38.1474 64.1488C38.3903 63.7738 38.6779 63.4936 39.0103 63.3082C39.3427 63.1207 39.6889 63.027 40.049 63.027C40.3217 63.027 40.5423 63.0739 40.7106 63.1676C40.881 63.2592 41.0121 63.3743 41.1037 63.5128C41.1953 63.6491 41.2592 63.7834 41.2955 63.9155H41.337L41.7493 61.4545H43.1076L42.021 68H40.6786L40.8097 67.2138H40.7521C40.6669 67.3501 40.554 67.4854 40.4134 67.6197C40.2749 67.7518 40.1065 67.8615 39.9084 67.9489C39.7124 68.0362 39.4822 68.0799 39.218 68.0799ZM39.8189 66.9964C40.0362 66.9964 40.2322 66.9368 40.407 66.8175C40.5817 66.696 40.7287 66.5266 40.848 66.3093C40.9673 66.092 41.0504 65.8374 41.0973 65.5455C41.1463 65.2536 41.1474 65 41.1005 64.7848C41.0536 64.5696 40.962 64.4034 40.8256 64.2862C40.6914 64.169 40.5135 64.1104 40.2919 64.1104C40.0682 64.1104 39.87 64.1712 39.6974 64.2926C39.527 64.4141 39.3853 64.5824 39.2724 64.7976C39.1616 65.0128 39.0827 65.2621 39.0359 65.5455C38.989 65.831 38.9858 66.0835 39.0263 66.3029C39.0668 66.5202 39.1531 66.6907 39.2852 66.8143C39.4173 66.9357 39.5952 66.9964 39.8189 66.9964ZM43.1372 68L43.9553 63.0909H45.2753L45.1315 63.9474H45.1826C45.3232 63.6428 45.5118 63.4126 45.7483 63.2571C45.9869 63.0994 46.2437 63.0206 46.5186 63.0206C46.5867 63.0206 46.6581 63.0249 46.7327 63.0334C46.8094 63.0398 46.8776 63.0504 46.9372 63.0653L46.7327 64.2766C46.673 64.2553 46.5878 64.2383 46.477 64.2255C46.3683 64.2106 46.265 64.2031 46.167 64.2031C45.9688 64.2031 45.7845 64.2468 45.6141 64.3342C45.4436 64.4194 45.2998 64.5387 45.1826 64.6921C45.0676 64.8455 44.9919 65.0224 44.9557 65.2227L44.4987 68H43.1372ZM48.8157 68.0959C48.315 68.0959 47.9006 67.9893 47.5724 67.7763C47.2443 67.5611 47.0131 67.2628 46.8789 66.8814C46.7468 66.4979 46.7223 66.0515 46.8054 65.5423C46.8864 65.0394 47.0547 64.5994 47.3104 64.2223C47.5661 63.8452 47.891 63.5522 48.2852 63.3434C48.6793 63.1325 49.1236 63.027 49.6179 63.027C50.1165 63.027 50.5298 63.1346 50.858 63.3498C51.1861 63.5629 51.4173 63.8612 51.5515 64.2447C51.6857 64.6282 51.7113 65.0746 51.6282 65.5838C51.5451 66.0845 51.3746 66.5234 51.1168 66.9006C50.859 67.2777 50.5341 67.5717 50.142 67.7827C49.75 67.9915 49.3079 68.0959 48.8157 68.0959ZM48.9499 67.0412C49.18 67.0412 49.3835 66.9762 49.5604 66.8462C49.7393 66.7141 49.8874 66.5352 50.0046 66.3093C50.1239 66.0813 50.207 65.8235 50.2539 65.5359C50.3008 65.2525 50.304 65.0011 50.2635 64.7816C50.223 64.56 50.1378 64.3853 50.0078 64.2575C49.88 64.1296 49.7042 64.0657 49.4805 64.0657C49.2504 64.0657 49.0458 64.1317 48.8668 64.2638C48.6879 64.3938 48.5398 64.5728 48.4226 64.8008C48.3054 65.0288 48.2234 65.2876 48.1765 65.5774C48.1317 65.8587 48.1286 66.1101 48.1669 66.3317C48.2053 66.5511 48.2894 66.7248 48.4194 66.8526C48.5494 66.9783 48.7262 67.0412 48.9499 67.0412ZM51.8136 69.8409L52.945 63.0909H54.2873L54.1499 63.9155H54.2106C54.2915 63.7834 54.3991 63.6491 54.5334 63.5128C54.6697 63.3743 54.8391 63.2592 55.0415 63.1676C55.244 63.0739 55.4815 63.027 55.7543 63.027C56.1143 63.027 56.4286 63.1207 56.6971 63.3082C56.9656 63.4936 57.1594 63.7738 57.2788 64.1488C57.4002 64.5217 57.4141 64.9893 57.3203 65.5518C57.2308 66.0994 57.0657 66.5618 56.8249 66.9389C56.5863 67.3139 56.2997 67.5984 55.9652 67.7923C55.6328 67.984 55.2802 68.0799 54.9073 68.0799C54.6431 68.0799 54.4258 68.0362 54.2553 67.9489C54.087 67.8615 53.956 67.7518 53.8622 67.6197C53.7685 67.4854 53.7024 67.3501 53.6641 67.2138H53.6129L53.1783 69.8409H51.8136ZM53.8686 65.5455C53.8217 65.8374 53.8196 66.092 53.8622 66.3093C53.907 66.5266 53.9964 66.696 54.1307 66.8175C54.2649 66.9368 54.4418 66.9964 54.6612 66.9964C54.8828 66.9964 55.0799 66.9357 55.2525 66.8143C55.4251 66.6907 55.5689 66.5202 55.6839 66.3029C55.799 66.0835 55.881 65.831 55.93 65.5455C55.9748 65.2621 55.9759 65.0128 55.9332 64.7976C55.8906 64.5824 55.8033 64.4141 55.6712 64.2926C55.5391 64.1712 55.3601 64.1104 55.1342 64.1104C54.9148 64.1104 54.7177 64.169 54.543 64.2862C54.3704 64.4034 54.2266 64.5696 54.1115 64.7848C53.9964 65 53.9155 65.2536 53.8686 65.5455Z" fill="white"/>
</svg>
