<svg width="386" height="111" viewBox="0 0 386 111" fill="none" xmlns="http://www.w3.org/2000/svg">
<path d="M130.382 44.889C130.516 44.0515 130.968 43.3312 131.739 42.7282C132.509 42.1251 133.364 41.8236 134.302 41.8236H157.066C156.697 43.8337 156.094 45.3078 155.257 46.2458C154.419 47.1503 153.23 47.6026 151.689 47.6026H136.663L135.156 56.0952H148.523C148.188 58.1053 147.585 59.5793 146.714 60.5174C145.843 61.4219 144.654 61.8742 143.146 61.8742H134.101L132.191 72.6783C131.89 74.3534 131.136 75.5762 129.93 76.3467C128.757 77.0838 126.998 77.4523 124.653 77.4523L130.382 44.889ZM158.811 77.4523C156.901 77.4523 155.176 77.1173 153.635 76.4472C152.127 75.7437 150.938 74.7889 150.067 73.5829C149.196 72.3768 148.76 71.02 148.76 69.5125C148.76 68.9429 148.794 68.5074 148.861 68.2059L150.067 61.1204C150.603 58.1723 152.06 55.8272 154.439 54.0851C156.818 52.3095 159.799 51.4217 163.384 51.4217C165.394 51.4217 167.153 51.7903 168.66 52.5273C170.201 53.2308 171.374 54.2024 172.178 55.4419C173.015 56.6479 173.434 58.0215 173.434 59.5626C173.434 60.0986 173.384 60.6179 173.283 61.1204L172.077 68.2059C171.575 71.02 170.118 73.2646 167.705 74.9397C165.327 76.6147 162.362 77.4523 158.811 77.4523ZM159.766 72.0753C161.441 72.0753 162.814 71.7068 163.886 70.9698C164.992 70.1992 165.662 69.1439 165.896 67.8039L167.002 61.4219C167.069 61.0199 167.102 60.7016 167.102 60.4671C167.102 59.3281 166.7 58.4403 165.896 57.8037C165.092 57.1337 163.953 56.7987 162.479 56.7987C160.838 56.7987 159.447 57.2342 158.308 58.1053C157.203 58.9428 156.516 60.0483 156.248 61.4219L155.142 67.8039C155.109 68.0049 155.092 68.2729 155.092 68.6079C155.092 69.7135 155.494 70.5677 156.298 71.1708C157.102 71.7738 158.258 72.0753 159.766 72.0753ZM184.624 77.4523C182.714 77.4523 180.989 77.1173 179.448 76.4472C177.94 75.7437 176.751 74.7889 175.88 73.5829C175.009 72.3768 174.574 71.02 174.574 69.5125C174.574 68.9429 174.607 68.5074 174.674 68.2059L175.88 61.1204C176.416 58.1723 177.873 55.8272 180.252 54.0851C182.631 52.3095 185.612 51.4217 189.197 51.4217C191.207 51.4217 192.966 51.7903 194.473 52.5273C196.014 53.2308 197.187 54.2024 197.991 55.4419C198.828 56.6479 199.247 58.0215 199.247 59.5626C199.247 60.0986 199.197 60.6179 199.096 61.1204L197.89 68.2059C197.388 71.02 195.931 73.2646 193.519 74.9397C191.14 76.6147 188.175 77.4523 184.624 77.4523ZM185.579 72.0753C187.254 72.0753 188.627 71.7068 189.699 70.9698C190.805 70.1992 191.475 69.1439 191.709 67.8039L192.815 61.4219C192.882 61.0199 192.915 60.7016 192.915 60.4671C192.915 59.3281 192.513 58.4403 191.709 57.8037C190.905 57.1337 189.766 56.7987 188.292 56.7987C186.651 56.7987 185.26 57.2342 184.121 58.1053C183.016 58.9428 182.329 60.0483 182.061 61.4219L180.956 67.8039C180.922 68.0049 180.905 68.2729 180.905 68.6079C180.905 69.7135 181.307 70.5677 182.111 71.1708C182.915 71.7738 184.071 72.0753 185.579 72.0753ZM210.959 77.4523C208.815 77.4523 207.157 76.8995 205.985 75.794C204.845 74.6549 204.276 73.0803 204.276 71.0703C204.276 70.7018 204.343 70.015 204.477 69.0099L206.638 56.5474H201.512C201.747 55.0734 202.216 53.9343 202.919 53.1303C203.656 52.2928 204.561 51.874 205.633 51.874H207.593L208.296 47.7031C208.531 46.363 209.184 45.3915 210.256 44.7885C211.361 44.1855 212.97 43.8839 215.08 43.8839L213.673 51.874H220.357C220.089 53.5156 219.553 54.7049 218.749 55.4419C217.978 56.1789 216.889 56.5474 215.482 56.5474H212.919L210.758 68.7587C210.691 69.3617 210.658 69.747 210.658 69.9145C210.658 70.6515 210.859 71.1875 211.261 71.5225C211.663 71.8575 212.316 72.0251 213.221 72.0251C214.36 72.0251 215.616 71.7068 216.99 71.0703C217.191 71.2713 217.341 71.5393 217.442 71.8743C217.576 72.2093 217.643 72.5611 217.643 72.9296C217.643 74.2026 216.99 75.2747 215.683 76.1457C214.41 77.0168 212.836 77.4523 210.959 77.4523ZM230.869 49.0599C229.831 49.0599 228.976 48.7751 228.306 48.2056C227.636 47.6026 227.301 46.8321 227.301 45.894C227.301 44.6545 227.787 43.5992 228.758 42.7282C229.73 41.8236 230.886 41.3713 232.226 41.3713C233.264 41.3713 234.102 41.6561 234.738 42.2256C235.409 42.7952 235.744 43.5489 235.744 44.487C235.744 45.7265 235.258 46.7986 234.286 47.7031C233.315 48.6076 232.176 49.0599 230.869 49.0599ZM226.598 55.2409C226.832 53.9343 227.502 52.9796 228.608 52.3765C229.747 51.74 231.388 51.4217 233.532 51.4217L229.613 73.6331C229.378 74.9732 228.708 75.9447 227.603 76.5477C226.497 77.1508 224.856 77.4523 222.678 77.4523L226.598 55.2409ZM246.908 77.4523C245.032 77.4523 243.357 77.1005 241.883 76.397C240.409 75.6934 239.253 74.7387 238.416 73.5326C237.578 72.2931 237.16 70.9195 237.16 69.412C237.16 68.8089 237.193 68.3567 237.26 68.0551L238.466 61.3716C238.801 59.4286 239.572 57.7032 240.778 56.1957C242.017 54.6881 243.558 53.5156 245.401 52.678C247.277 51.8405 249.321 51.4217 251.532 51.4217C253.374 51.4217 254.999 51.7568 256.406 52.4268C257.813 53.0968 258.902 54.0348 259.672 55.2409C260.443 56.4469 260.828 57.8205 260.828 59.3616C260.828 59.8976 260.778 60.4671 260.678 61.0701L260.175 63.8842C260.008 64.6548 259.605 65.2913 258.969 65.7938C258.366 66.2628 257.646 66.4973 256.808 66.4973H243.642L243.441 67.6029C243.374 68.0719 243.341 68.4069 243.341 68.6079C243.341 69.8475 243.726 70.8023 244.496 71.4723C245.267 72.1423 246.372 72.4773 247.813 72.4773C249.388 72.4773 250.677 72.1256 251.682 71.422C252.687 70.7185 253.29 69.747 253.491 68.5074C253.793 68.4739 254.195 68.4572 254.698 68.4572C255.837 68.4572 256.708 68.6749 257.311 69.1104C257.947 69.5125 258.265 70.1155 258.265 70.9195C258.265 72.0586 257.746 73.1306 256.708 74.1356C255.669 75.1407 254.279 75.9447 252.537 76.5477C250.795 77.1508 248.919 77.4523 246.908 77.4523ZM254.798 62.0249L254.999 61.0701C255.066 60.8021 255.1 60.4168 255.1 59.9143C255.1 58.7753 254.714 57.9042 253.944 57.3012C253.173 56.6647 252.068 56.3464 250.627 56.3464C249.086 56.3464 247.763 56.782 246.657 57.653C245.552 58.4905 244.865 59.6296 244.597 61.0701L244.396 62.0249H254.798ZM271.846 77.4523C270.271 77.4523 268.864 77.134 267.625 76.4975C266.419 75.8275 265.464 74.9229 264.761 73.7839C264.09 72.6448 263.755 71.3718 263.755 69.9647C263.755 69.4622 263.806 68.9429 263.906 68.4069L265.313 60.4671C265.782 57.7535 267.089 55.5759 269.233 53.9343C271.411 52.2593 274.024 51.4217 277.072 51.4217C278.312 51.4217 279.535 51.6898 280.741 52.2258C281.98 52.7283 282.985 53.4151 283.756 54.2861L283.957 54.0348C283.823 53.8338 283.521 53.4988 283.052 53.0298L284.359 45.5925C284.627 44.219 285.364 43.1804 286.57 42.4769C287.809 41.7399 289.451 41.3713 291.495 41.3713L285.866 73.1306C285.598 74.4707 284.895 75.5259 283.756 76.2965C282.617 77.067 281.143 77.4523 279.334 77.4523L279.786 74.6884C280.355 74.1189 280.757 73.6834 280.992 73.3819L280.791 73.1808C279.417 74.6884 278.027 75.7772 276.62 76.4472C275.213 77.1173 273.622 77.4523 271.846 77.4523ZM274.71 72.0251C276.184 72.0251 277.458 71.6733 278.53 70.9698C279.635 70.2327 280.288 69.3114 280.489 68.2059L281.796 60.6179C281.829 60.4839 281.846 60.2996 281.846 60.0651C281.846 59.127 281.427 58.3565 280.59 57.7535C279.752 57.1505 278.664 56.849 277.323 56.849C275.682 56.849 274.359 57.2007 273.354 57.9042C272.382 58.5743 271.779 59.5458 271.545 60.8189L270.238 67.9546C270.171 68.3567 270.137 68.6414 270.137 68.8089C270.137 70.953 271.662 72.0251 274.71 72.0251ZM307.647 56.849C305.67 56.849 303.962 57.3682 302.521 58.4068C301.081 59.4453 300.226 60.7686 299.958 62.3767L297.999 73.6331C297.731 74.9732 297.044 75.9447 295.938 76.5477C294.866 77.1508 293.241 77.4523 291.064 77.4523L294.783 56.2459C295.051 54.6714 295.754 53.4821 296.893 52.678C298.066 51.8405 299.64 51.4217 301.617 51.4217L301.114 54.3866C300.243 55.3246 299.741 55.8774 299.607 56.0449L299.858 56.2459C302.639 53.0298 305.57 51.4217 308.652 51.4217C309.825 51.4217 310.729 51.7065 311.366 52.276C312.036 52.812 312.371 53.5658 312.371 54.5374C312.371 55.0734 312.27 55.6094 312.069 56.1454C311.868 56.6815 311.6 57.1672 311.265 57.6027C310.461 57.1002 309.255 56.849 307.647 56.849ZM320.02 77.4523C318.11 77.4523 316.385 77.1173 314.844 76.4472C313.336 75.7437 312.147 74.7889 311.276 73.5829C310.405 72.3768 309.969 71.02 309.969 69.5125C309.969 68.9429 310.003 68.5074 310.07 68.2059L311.276 61.1204C311.812 58.1723 313.269 55.8272 315.648 54.0851C318.026 52.3095 321.008 51.4217 324.593 51.4217C326.603 51.4217 328.361 51.7903 329.869 52.5273C331.41 53.2308 332.583 54.2024 333.387 55.4419C334.224 56.6479 334.643 58.0215 334.643 59.5626C334.643 60.0986 334.593 60.6179 334.492 61.1204L333.286 68.2059C332.784 71.02 331.326 73.2646 328.914 74.9397C326.536 76.6147 323.571 77.4523 320.02 77.4523ZM320.974 72.0753C322.649 72.0753 324.023 71.7068 325.095 70.9698C326.201 70.1992 326.871 69.1439 327.105 67.8039L328.211 61.4219C328.278 61.0199 328.311 60.7016 328.311 60.4671C328.311 59.3281 327.909 58.4403 327.105 57.8037C326.301 57.1337 325.162 56.7987 323.688 56.7987C322.046 56.7987 320.656 57.2342 319.517 58.1053C318.412 58.9428 317.725 60.0483 317.457 61.4219L316.351 67.8039C316.318 68.0049 316.301 68.2729 316.301 68.6079C316.301 69.7135 316.703 70.5677 317.507 71.1708C318.311 71.7738 319.467 72.0753 320.974 72.0753ZM339.344 55.7434C339.579 54.4034 340.282 53.3481 341.455 52.5775C342.627 51.807 344.101 51.4217 345.877 51.4217L345.374 54.1354C344.905 54.5709 344.503 55.0231 344.168 55.4922L344.369 55.6932C345.743 54.2191 347.15 53.1471 348.591 52.477C350.065 51.7735 351.689 51.4217 353.465 51.4217C355.877 51.4217 357.803 52.0918 359.244 53.4318C360.718 54.7719 361.455 56.5307 361.455 58.7083C361.455 59.2778 361.405 59.8641 361.304 60.4671L359.897 68.4069C359.428 71.2545 358.138 73.4824 356.028 75.0904C353.951 76.665 351.304 77.4523 348.088 77.4523C346.815 77.4523 345.559 77.1843 344.319 76.6482C343.113 76.1122 342.158 75.4087 341.455 74.5377L341.204 74.7889C341.405 75.1574 341.706 75.5092 342.108 75.8442L340.802 83.2815C340.567 84.6551 339.847 85.6936 338.641 86.3971C337.468 87.1341 335.827 87.5027 333.716 87.5027L339.344 55.7434ZM347.837 72.0251C349.478 72.0251 350.818 71.6733 351.857 70.9698C352.896 70.2662 353.532 69.2779 353.767 68.0049L355.023 60.8691C355.056 60.6681 355.073 60.4001 355.073 60.0651C355.073 59.0265 354.688 58.2393 353.917 57.7032C353.147 57.1337 352.024 56.849 350.55 56.849C349.076 56.849 347.77 57.2175 346.631 57.9545C345.525 58.658 344.889 59.5458 344.721 60.6179L343.364 68.2562C343.331 68.3902 343.314 68.5744 343.314 68.8089C343.314 69.747 343.733 70.5175 344.57 71.1205C345.408 71.7235 346.497 72.0251 347.837 72.0251Z" fill="white"/>
<ellipse cx="64" cy="94.5" rx="27" ry="1.5" fill="white" fill-opacity="0.49"/>
<path d="M35 26L21 29L32.5 37L46.5 35L35 26Z" fill="#E36F00"/>
<path d="M80 29L87.5 17L74.5 18.5L68 31.1493L80 29Z" fill="#FFA801"/>
<path fill-rule="evenodd" clip-rule="evenodd" d="M68 31.1493L46.5 35L52 70.5L73.5 66L85.5 62.5L80 29L68 31.1493ZM75.5 34L66.5 36L68 42.5L76.5 40.5L75.5 34Z" fill="#FFA801"/>
<path d="M46.5 35L32.5 37L38.5 72L52 70.5L46.5 35Z" fill="#E36F00"/>
<path d="M21 29L20.7905 28.0222L18.5373 28.505L20.4289 29.8209L21 29ZM35 26L35.6163 25.2125L35.2479 24.9242L34.7905 25.0222L35 26ZM87.5 17L88.348 17.53L89.4489 15.7685L87.3854 16.0066L87.5 17ZM74.5 18.5L74.3854 17.5066L73.8547 17.5678L73.6106 18.0429L74.5 18.5ZM68 31.1493L68.1763 32.1336L68 31.1493ZM38.5 72L37.5144 72.169L37.6736 73.098L38.6104 72.9939L38.5 72ZM85.5 62.5L85.78 63.46L86.6303 63.212L86.4868 62.338L85.5 62.5ZM95.7328 75.6805C96.1086 75.2757 96.0852 74.643 95.6805 74.2672C95.2757 73.8914 94.643 73.9148 94.2672 74.3195L95.7328 75.6805ZM88.5 82L87.7672 81.3195L87.749 81.3392L87.7318 81.3598L88.5 82ZM31 82L31.8192 82.5735L31.8615 82.5131L31.8944 82.4472L31 82ZM66.5 36L66.2831 35.0238L65.2989 35.2425L65.5256 36.2249L66.5 36ZM75.5 34L76.4884 33.8479L76.3259 32.7921L75.2831 33.0238L75.5 34ZM76.5 40.5L76.729 41.4734L77.6289 41.2617L77.4884 40.3479L76.5 40.5ZM68 42.5L67.0256 42.7249L67.2514 43.7034L68.229 43.4734L68 42.5ZM87.4012 83.3186L88.1694 83.9588L87.4012 83.3186ZM34.4716 77.8244L35.1186 77.0619L34.4716 77.8244ZM41.2595 83.5838L41.9065 82.8213L41.2595 83.5838ZM21.2095 29.9778L35.2095 26.9778L34.7905 25.0222L20.7905 28.0222L21.2095 29.9778ZM34.3837 26.7875L45.8837 35.7875L47.1163 34.2125L35.6163 25.2125L34.3837 26.7875ZM80.848 29.53L88.348 17.53L86.652 16.47L79.152 28.47L80.848 29.53ZM87.3854 16.0066L74.3854 17.5066L74.6146 19.4934L87.6146 17.9934L87.3854 16.0066ZM46.6763 35.9843L68.1763 32.1336L67.8237 30.1649L46.3237 34.0157L46.6763 35.9843ZM68.1763 32.1336L80.1763 29.9843L79.8237 28.0157L67.8237 30.1649L68.1763 32.1336ZM73.6106 18.0429L67.1106 30.6922L68.8894 31.6063L75.3894 18.9571L73.6106 18.0429ZM20.4289 29.8209L31.9289 37.8209L33.0711 36.1791L21.5711 28.1791L20.4289 29.8209ZM32.6414 37.9899L46.6414 35.9899L46.3586 34.0101L32.3586 36.0101L32.6414 37.9899ZM45.5118 35.1531L51.0118 70.6531L52.9882 70.3469L47.4882 34.8469L45.5118 35.1531ZM51.8896 69.5061L38.3896 71.0061L38.6104 72.9939L52.1104 71.4939L51.8896 69.5061ZM39.4856 71.831L33.4856 36.831L31.5144 37.169L37.5144 72.169L39.4856 71.831ZM79.0132 29.162L84.5132 62.662L86.4868 62.338L80.9868 28.838L79.0132 29.162ZM51.0047 70.4029L50.1178 79.4943L52.1083 79.6885L52.9953 70.5971L51.0047 70.4029ZM41.9065 82.8213L35.1186 77.0619L33.8246 78.5869L40.6125 84.3463L41.9065 82.8213ZM85.22 61.54L73.22 65.04L73.78 66.96L85.78 63.46L85.22 61.54ZM73.2951 65.0212L51.7951 69.5212L52.2049 71.4788L73.7049 66.9788L73.2951 65.0212ZM88.1694 83.9588L89.2682 82.6402L87.7318 81.3598L86.6329 82.6784L88.1694 83.9588ZM89.2328 82.6805L95.7328 75.6805L94.2672 74.3195L87.7672 81.3195L89.2328 82.6805ZM32.0357 77.6924L30.1056 81.5528L31.8944 82.4472L33.8246 78.5869L32.0357 77.6924ZM30.1808 81.4265L26.6808 86.4265L28.3192 87.5735L31.8192 82.5735L30.1808 81.4265ZM66.7169 36.9762L75.7169 34.9762L75.2831 33.0238L66.2831 35.0238L66.7169 36.9762ZM74.5116 34.1521L75.5116 40.6521L77.4884 40.3479L76.4884 33.8479L74.5116 34.1521ZM76.271 39.5266L67.771 41.5266L68.229 43.4734L76.729 41.4734L76.271 39.5266ZM68.9744 42.2751L67.4744 35.7751L65.5256 36.2249L67.0256 42.7249L68.9744 42.2751ZM73.0939 66.9138L76.6793 68.5073L77.4915 66.6797L73.9061 65.0862L73.0939 66.9138ZM76.6793 68.5073C82.2364 70.9772 85.6372 76.6777 85.1708 82.7411L87.1649 82.8945C87.6962 75.9872 83.8221 69.4933 77.4915 66.6797L76.6793 68.5073ZM86.6329 82.6784C86.6672 82.6374 86.7281 82.5959 86.8043 82.5793C86.8728 82.5643 86.9325 82.5737 86.9778 82.5921C87.0232 82.6106 87.0725 82.6454 87.1112 82.7039C87.1543 82.769 87.169 82.8412 87.1649 82.8945L85.1708 82.7411C85.0439 84.3907 87.1102 85.2298 88.1694 83.9588L86.6329 82.6784ZM35.1186 77.0619C34.1296 76.2227 32.6158 76.5324 32.0357 77.6924L33.8246 78.5869L33.8246 78.5869L35.1186 77.0619ZM50.1178 79.4943C49.7259 83.5104 44.9834 85.432 41.9065 82.8213L40.6125 84.3463C44.9201 88.0013 51.5598 85.311 52.1083 79.6885L50.1178 79.4943Z" fill="#432C18"/>
<path d="M30.5 43L31 45.5L12 43H30.5Z" fill="#432C18"/>
<path d="M31.5 49L32 51.5L13 49H31.5Z" fill="#432C18"/>
<path d="M32.5 55L33 57.5L14 55H32.5Z" fill="#432C18"/>
</svg>
