<svg width="238" height="47" viewBox="0 0 238 47" fill="none" xmlns="http://www.w3.org/2000/svg">
<path d="M6.382 3.88898C6.51601 3.05145 6.96827 2.33117 7.73881 1.72815C8.50933 1.12513 9.36362 0.823614 10.3017 0.823614H33.0658C32.6973 2.83369 32.0943 4.30775 31.2567 5.24579C30.4192 6.15032 29.2299 6.60259 27.6888 6.60259H12.6635L11.1559 15.0952H24.523C24.188 17.1053 23.5849 18.5793 22.7139 19.5174C21.8429 20.4219 20.6536 20.8742 19.146 20.8742H10.1006L8.19107 31.6783C7.88956 33.3534 7.13578 34.5762 5.92973 35.3467C4.75719 36.0838 2.99837 36.4523 0.653276 36.4523L6.382 3.88898ZM34.8109 36.4523C32.9013 36.4523 31.176 36.1173 29.6349 35.4472C28.1274 34.7437 26.9381 33.7889 26.067 32.5829C25.196 31.3768 24.7605 30.02 24.7605 28.5125C24.7605 27.9429 24.794 27.5074 24.861 27.2059L26.067 20.1204C26.6031 17.1723 28.0604 14.8272 30.439 13.0851C32.8176 11.3095 35.7992 10.4217 39.3838 10.4217C41.3939 10.4217 43.1527 10.7903 44.6603 11.5273C46.2013 12.2308 47.3739 13.2024 48.1779 14.4419C49.0154 15.6479 49.4342 17.0215 49.4342 18.5626C49.4342 19.0986 49.384 19.6179 49.2835 20.1204L48.0774 27.2059C47.5749 30.02 46.1176 32.2646 43.7055 33.9397C41.3269 35.6147 38.362 36.4523 34.8109 36.4523ZM35.7657 31.0753C37.4407 31.0753 38.8143 30.7068 39.8863 29.9698C40.9919 29.1992 41.6619 28.1439 41.8964 26.8039L43.002 20.4219C43.069 20.0199 43.1025 19.7016 43.1025 19.4671C43.1025 18.3281 42.7004 17.4403 41.8964 16.8037C41.0924 16.1337 39.9533 15.7987 38.4793 15.7987C36.8377 15.7987 35.4474 16.2342 34.3084 17.1053C33.2028 17.9428 32.516 19.0483 32.248 20.4219L31.1425 26.8039C31.109 27.0049 31.0922 27.2729 31.0922 27.6079C31.0922 28.7135 31.4942 29.5677 32.2983 30.1708C33.1023 30.7738 34.2581 31.0753 35.7657 31.0753ZM60.6239 36.4523C58.7143 36.4523 56.989 36.1173 55.448 35.4472C53.9404 34.7437 52.7511 33.7889 51.8801 32.5829C51.009 31.3768 50.5735 30.02 50.5735 28.5125C50.5735 27.9429 50.607 27.5074 50.674 27.2059L51.8801 20.1204C52.4161 17.1723 53.8734 14.8272 56.252 13.0851C58.6306 11.3095 61.6122 10.4217 65.1968 10.4217C67.2069 10.4217 68.9657 10.7903 70.4733 11.5273C72.0144 12.2308 73.1869 13.2024 73.9909 14.4419C74.8285 15.6479 75.2472 17.0215 75.2472 18.5626C75.2472 19.0986 75.197 19.6179 75.0965 20.1204L73.8904 27.2059C73.3879 30.02 71.9306 32.2646 69.5185 33.9397C67.1399 35.6147 64.175 36.4523 60.6239 36.4523ZM61.5787 31.0753C63.2538 31.0753 64.6273 30.7068 65.6994 29.9698C66.8049 29.1992 67.4749 28.1439 67.7094 26.8039L68.815 20.4219C68.882 20.0199 68.9155 19.7016 68.9155 19.4671C68.9155 18.3281 68.5135 17.4403 67.7094 16.8037C66.9054 16.1337 65.7664 15.7987 64.2923 15.7987C62.6507 15.7987 61.2604 16.2342 60.1214 17.1053C59.0158 17.9428 58.3291 19.0483 58.0611 20.4219L56.9555 26.8039C56.922 27.0049 56.9053 27.2729 56.9053 27.6079C56.9053 28.7135 57.3073 29.5677 58.1113 30.1708C58.9153 30.7738 60.0711 31.0753 61.5787 31.0753ZM86.9595 36.4523C84.8154 36.4523 83.1571 35.8995 81.9845 34.794C80.8455 33.6549 80.276 32.0803 80.276 30.0703C80.276 29.7018 80.343 29.015 80.477 28.0099L82.6378 15.5474H77.5121C77.7466 14.0734 78.2156 12.9343 78.9192 12.1303C79.6562 11.2928 80.5607 10.874 81.6328 10.874H83.5926L84.2961 6.7031C84.5306 5.36304 85.1839 4.39151 86.256 3.78848C87.3615 3.18546 88.9696 2.88395 91.0801 2.88395L89.6731 10.874H96.3566C96.0886 12.5156 95.5526 13.7049 94.7485 14.4419C93.978 15.1789 92.8892 15.5474 91.4822 15.5474H88.9193L86.7585 27.7587C86.6915 28.3617 86.658 28.747 86.658 28.9145C86.658 29.6515 86.859 30.1875 87.261 30.5225C87.663 30.8575 88.3163 31.0251 89.2208 31.0251C90.3599 31.0251 91.6162 30.7068 92.9897 30.0703C93.1907 30.2713 93.3415 30.5393 93.442 30.8743C93.576 31.2093 93.643 31.5611 93.643 31.9296C93.643 33.2026 92.9897 34.2747 91.6832 35.1457C90.4101 36.0168 88.8356 36.4523 86.9595 36.4523ZM106.869 8.0599C105.831 8.0599 104.976 7.77514 104.306 7.20562C103.636 6.60259 103.301 5.83206 103.301 4.89403C103.301 3.65448 103.787 2.59919 104.758 1.72815C105.73 0.823614 106.886 0.371346 108.226 0.371346C109.264 0.371346 110.102 0.656108 110.738 1.22563C111.409 1.79515 111.744 2.54893 111.744 3.48697C111.744 4.72652 111.258 5.79856 110.286 6.7031C109.315 7.60763 108.176 8.0599 106.869 8.0599ZM102.598 14.2409C102.832 12.9343 103.502 11.9796 104.608 11.3765C105.747 10.74 107.388 10.4217 109.532 10.4217L105.613 32.6331C105.378 33.9732 104.708 34.9447 103.603 35.5477C102.497 36.1508 100.856 36.4523 98.678 36.4523L102.598 14.2409ZM122.908 36.4523C121.032 36.4523 119.357 36.1005 117.883 35.397C116.409 34.6934 115.253 33.7387 114.416 32.5326C113.578 31.2931 113.16 29.9195 113.16 28.412C113.16 27.8089 113.193 27.3567 113.26 27.0551L114.466 20.3716C114.801 18.4286 115.572 16.7032 116.778 15.1957C118.017 13.6881 119.558 12.5156 121.401 11.678C123.277 10.8405 125.321 10.4217 127.532 10.4217C129.374 10.4217 130.999 10.7568 132.406 11.4268C133.813 12.0968 134.902 13.0348 135.672 14.2409C136.443 15.4469 136.828 16.8205 136.828 18.3616C136.828 18.8976 136.778 19.4671 136.678 20.0701L136.175 22.8842C136.008 23.6548 135.605 24.2913 134.969 24.7938C134.366 25.2628 133.646 25.4973 132.808 25.4973H119.642L119.441 26.6029C119.374 27.0719 119.341 27.4069 119.341 27.6079C119.341 28.8475 119.726 29.8023 120.496 30.4723C121.267 31.1423 122.372 31.4773 123.813 31.4773C125.388 31.4773 126.677 31.1256 127.682 30.422C128.687 29.7185 129.29 28.747 129.491 27.5074C129.793 27.4739 130.195 27.4572 130.698 27.4572C131.837 27.4572 132.708 27.6749 133.311 28.1104C133.947 28.5125 134.265 29.1155 134.265 29.9195C134.265 31.0586 133.746 32.1306 132.708 33.1356C131.669 34.1407 130.279 34.9447 128.537 35.5477C126.795 36.1508 124.919 36.4523 122.908 36.4523ZM130.798 21.0249L130.999 20.0701C131.066 19.8021 131.1 19.4168 131.1 18.9143C131.1 17.7753 130.714 16.9042 129.944 16.3012C129.173 15.6647 128.068 15.3464 126.627 15.3464C125.086 15.3464 123.763 15.782 122.657 16.653C121.552 17.4905 120.865 18.6296 120.597 20.0701L120.396 21.0249H130.798ZM147.846 36.4523C146.271 36.4523 144.864 36.134 143.625 35.4975C142.419 34.8275 141.464 33.9229 140.761 32.7839C140.09 31.6448 139.755 30.3718 139.755 28.9647C139.755 28.4622 139.806 27.9429 139.906 27.4069L141.313 19.4671C141.782 16.7535 143.089 14.5759 145.233 12.9343C147.411 11.2593 150.024 10.4217 153.072 10.4217C154.312 10.4217 155.535 10.6898 156.741 11.2258C157.98 11.7283 158.985 12.4151 159.756 13.2861L159.957 13.0348C159.823 12.8338 159.521 12.4988 159.052 12.0298L160.359 4.59251C160.627 3.21896 161.364 2.18042 162.57 1.47689C163.809 0.739861 165.451 0.371346 167.495 0.371346L161.866 32.1306C161.598 33.4707 160.895 34.5259 159.756 35.2965C158.617 36.067 157.143 36.4523 155.334 36.4523L155.786 33.6884C156.355 33.1189 156.757 32.6834 156.992 32.3819L156.791 32.1808C155.417 33.6884 154.027 34.7772 152.62 35.4472C151.213 36.1173 149.622 36.4523 147.846 36.4523ZM150.71 31.0251C152.184 31.0251 153.458 30.6733 154.53 29.9698C155.635 29.2327 156.288 28.3114 156.489 27.2059L157.796 19.6179C157.829 19.4839 157.846 19.2996 157.846 19.0651C157.846 18.127 157.427 17.3565 156.59 16.7535C155.752 16.1505 154.664 15.849 153.323 15.849C151.682 15.849 150.359 16.2007 149.354 16.9042C148.382 17.5743 147.779 18.5458 147.545 19.8189L146.238 26.9546C146.171 27.3567 146.137 27.6414 146.137 27.8089C146.137 29.953 147.662 31.0251 150.71 31.0251ZM183.647 15.849C181.67 15.849 179.962 16.3682 178.521 17.4068C177.081 18.4453 176.226 19.7686 175.958 21.3767L173.999 32.6331C173.731 33.9732 173.044 34.9447 171.938 35.5477C170.866 36.1508 169.241 36.4523 167.064 36.4523L170.783 15.2459C171.051 13.6714 171.754 12.4821 172.893 11.678C174.066 10.8405 175.64 10.4217 177.617 10.4217L177.114 13.3866C176.243 14.3246 175.741 14.8774 175.607 15.0449L175.858 15.2459C178.639 12.0298 181.57 10.4217 184.652 10.4217C185.825 10.4217 186.729 10.7065 187.366 11.276C188.036 11.812 188.371 12.5658 188.371 13.5374C188.371 14.0734 188.27 14.6094 188.069 15.1454C187.868 15.6815 187.6 16.1672 187.265 16.6027C186.461 16.1002 185.255 15.849 183.647 15.849ZM196.02 36.4523C194.11 36.4523 192.385 36.1173 190.844 35.4472C189.336 34.7437 188.147 33.7889 187.276 32.5829C186.405 31.3768 185.969 30.02 185.969 28.5125C185.969 27.9429 186.003 27.5074 186.07 27.2059L187.276 20.1204C187.812 17.1723 189.269 14.8272 191.648 13.0851C194.026 11.3095 197.008 10.4217 200.593 10.4217C202.603 10.4217 204.361 10.7903 205.869 11.5273C207.41 12.2308 208.583 13.2024 209.387 14.4419C210.224 15.6479 210.643 17.0215 210.643 18.5626C210.643 19.0986 210.593 19.6179 210.492 20.1204L209.286 27.2059C208.784 30.02 207.326 32.2646 204.914 33.9397C202.536 35.6147 199.571 36.4523 196.02 36.4523ZM196.974 31.0753C198.649 31.0753 200.023 30.7068 201.095 29.9698C202.201 29.1992 202.871 28.1439 203.105 26.8039L204.211 20.4219C204.278 20.0199 204.311 19.7016 204.311 19.4671C204.311 18.3281 203.909 17.4403 203.105 16.8037C202.301 16.1337 201.162 15.7987 199.688 15.7987C198.046 15.7987 196.656 16.2342 195.517 17.1053C194.412 17.9428 193.725 19.0483 193.457 20.4219L192.351 26.8039C192.318 27.0049 192.301 27.2729 192.301 27.6079C192.301 28.7135 192.703 29.5677 193.507 30.1708C194.311 30.7738 195.467 31.0753 196.974 31.0753ZM215.344 14.7434C215.579 13.4034 216.282 12.3481 217.455 11.5775C218.627 10.807 220.101 10.4217 221.877 10.4217L221.374 13.1354C220.905 13.5709 220.503 14.0231 220.168 14.4922L220.369 14.6932C221.743 13.2191 223.15 12.1471 224.591 11.477C226.065 10.7735 227.689 10.4217 229.465 10.4217C231.877 10.4217 233.803 11.0918 235.244 12.4318C236.718 13.7719 237.455 15.5307 237.455 17.7083C237.455 18.2778 237.405 18.8641 237.304 19.4671L235.897 27.4069C235.428 30.2545 234.138 32.4824 232.028 34.0904C229.951 35.665 227.304 36.4523 224.088 36.4523C222.815 36.4523 221.559 36.1843 220.319 35.6482C219.113 35.1122 218.158 34.4087 217.455 33.5377L217.204 33.7889C217.405 34.1574 217.706 34.5092 218.108 34.8442L216.802 42.2815C216.567 43.6551 215.847 44.6936 214.641 45.3971C213.468 46.1341 211.827 46.5027 209.716 46.5027L215.344 14.7434ZM223.837 31.0251C225.478 31.0251 226.818 30.6733 227.857 29.9698C228.896 29.2662 229.532 28.2779 229.767 27.0049L231.023 19.8691C231.056 19.6681 231.073 19.4001 231.073 19.0651C231.073 18.0265 230.688 17.2393 229.917 16.7032C229.147 16.1337 228.024 15.849 226.55 15.849C225.076 15.849 223.77 16.2175 222.631 16.9545C221.525 17.658 220.889 18.5458 220.721 19.6179L219.364 27.2562C219.331 27.3902 219.314 27.5744 219.314 27.8089C219.314 28.747 219.733 29.5175 220.57 30.1205C221.408 30.7235 222.497 31.0251 223.837 31.0251Z" fill="#01674F"/>
</svg>
