<svg width="36" height="35" viewBox="0 0 36 35" fill="none" xmlns="http://www.w3.org/2000/svg">
<ellipse cx="21.7216" cy="34.3735" rx="11.2785" ry="0.626583" fill="white" fill-opacity="0.49"/>
<path d="M9.60768 5.75949L3.75958 7.01266L8.56338 10.3544L14.4115 9.51898L9.60768 5.75949Z" fill="#E36F00"/>
<path d="M28.4051 7.01266L31.538 2L26.1077 2.62658L23.3925 7.91045L28.4051 7.01266Z" fill="#FFA801"/>
<path fill-rule="evenodd" clip-rule="evenodd" d="M23.3925 7.91045L14.4115 9.51898L16.7089 24.3481L25.69 22.4683L30.7026 21.0063L28.4051 7.01266L23.3925 7.91045ZM26.5254 9.10126L22.7659 9.93671L23.3925 12.6519L26.9431 11.8165L26.5254 9.10126Z" fill="#FFA801"/>
<path d="M14.4115 9.51898L8.56338 10.3544L11.0697 24.9747L16.7089 24.3481L14.4115 9.51898Z" fill="#E36F00"/>
<path d="M3.75958 7.01266L3.55005 6.03485L1.29692 6.51767L3.18852 7.83356L3.75958 7.01266ZM9.60768 5.75949L10.224 4.97199L9.85558 4.68367L9.39815 4.78169L9.60768 5.75949ZM31.538 2L32.386 2.53L33.487 0.768487L31.4234 1.00659L31.538 2ZM26.1077 2.62658L25.993 1.63317L25.4624 1.6944L25.2182 2.16953L26.1077 2.62658ZM23.3925 7.91045L23.5688 8.89478L23.5688 8.89478L23.3925 7.91045ZM11.0697 24.9747L10.0841 25.1436L10.2433 26.0726L11.1801 25.9686L11.0697 24.9747ZM30.7026 21.0063L30.9826 21.9663L31.8329 21.7183L31.6894 20.8443L30.7026 21.0063ZM35.4038 26.9083C35.7796 26.5036 35.7561 25.8708 35.3514 25.495C34.9467 25.1192 34.314 25.1427 33.9382 25.5474L35.4038 26.9083ZM31.9558 29.1519L31.223 28.4714L31.2047 28.4911L31.1875 28.5117L31.9558 29.1519ZM7.9368 29.1519L8.75603 29.7254L8.79828 29.665L8.83122 29.5991L7.9368 29.1519ZM22.7659 9.93671L22.549 8.96052L21.5648 9.17922L21.7915 10.1616L22.7659 9.93671ZM26.5254 9.10126L27.5138 8.94921L27.3513 7.89333L26.3085 8.12508L26.5254 9.10126ZM26.9431 11.8165L27.1722 12.7899L28.0721 12.5781L27.9315 11.6644L26.9431 11.8165ZM23.3925 12.6519L22.4181 12.8768L22.6439 13.8553L23.6215 13.6253L23.3925 12.6519ZM31.4968 29.7027L30.7285 29.0625L31.4968 29.7027ZM8.5767 27.8721L7.68228 27.4249L8.5767 27.8721ZM16.6634 24.815L15.6681 24.7179L16.6634 24.815ZM3.96911 7.99046L9.81721 6.73729L9.39815 4.78169L3.55005 6.03485L3.96911 7.99046ZM8.99137 6.547L13.7952 10.3065L15.0278 8.73148L10.224 4.97199L8.99137 6.547ZM29.2531 7.54266L32.386 2.53L30.6901 1.47L27.5571 6.48266L29.2531 7.54266ZM31.4234 1.00659L25.993 1.63317L26.2223 3.61999L31.6527 2.99341L31.4234 1.00659ZM14.5878 10.5033L23.5688 8.89478L23.2162 6.92611L14.2352 8.53465L14.5878 10.5033ZM23.5688 8.89478L28.5814 7.99699L28.2288 6.02832L23.2162 6.92611L23.5688 8.89478ZM25.2182 2.16953L22.503 7.45339L24.2819 8.3675L26.9971 3.08363L25.2182 2.16953ZM3.18852 7.83356L7.99231 11.1753L9.13444 9.53352L4.33065 6.19175L3.18852 7.83356ZM8.7048 11.3444L14.5529 10.5089L14.2701 8.52904L8.42196 9.36448L8.7048 11.3444ZM13.4233 9.67209L15.7207 24.5012L17.6972 24.195L15.3997 9.36588L13.4233 9.67209ZM16.5985 23.3542L10.9593 23.9808L11.1801 25.9686L16.8194 25.342L16.5985 23.3542ZM12.0553 24.8057L9.549 10.1855L7.57776 10.5234L10.0841 25.1436L12.0553 24.8057ZM27.4184 7.17467L29.7158 21.1683L31.6894 20.8443L29.3919 6.85065L27.4184 7.17467ZM15.7137 24.251L15.6681 24.7179L17.6587 24.9121L17.7042 24.4452L15.7137 24.251ZM30.4226 20.0463L25.41 21.5083L25.97 23.4283L30.9826 21.9663L30.4226 20.0463ZM25.4851 21.4896L16.5041 23.3693L16.9138 25.3269L25.8948 23.4471L25.4851 21.4896ZM32.265 30.3429L32.724 29.7921L31.1875 28.5117L30.7285 29.0625L32.265 30.3429ZM32.6886 29.8323L35.4038 26.9083L33.9382 25.5474L31.223 28.4714L32.6886 29.8323ZM7.68228 27.4249L7.04237 28.7047L8.83122 29.5991L9.47113 28.3193L7.68228 27.4249ZM7.11756 28.5784L5.65554 30.667L7.294 31.814L8.75603 29.7254L7.11756 28.5784ZM22.9828 10.9129L26.7423 10.0775L26.3085 8.12508L22.549 8.96052L22.9828 10.9129ZM25.537 9.25332L25.9547 11.9685L27.9315 11.6644L27.5138 8.94921L25.537 9.25332ZM26.7141 10.843L23.1634 11.6785L23.6215 13.6253L27.1722 12.7899L26.7141 10.843ZM24.3669 12.427L23.7403 9.71185L21.7915 10.1616L22.4181 12.8768L24.3669 12.427ZM25.2838 23.3822L26.7815 24.0478L27.5938 22.2202L26.0961 21.5545L25.2838 23.3822ZM26.7815 24.0478C28.8777 24.9794 30.1605 27.1297 29.9845 29.4168L31.9786 29.5702C32.2195 26.4392 30.4634 23.4956 27.5938 22.2202L26.7815 24.0478ZM30.7285 29.0625C31.1701 28.5326 32.0315 28.8825 31.9786 29.5702L29.9845 29.4168C29.888 30.6713 31.4595 31.3095 32.265 30.3429L30.7285 29.0625ZM10.3176 26.8858C9.47216 26.1685 8.17812 26.4332 7.68228 27.4249L9.47113 28.3193C9.38693 28.4877 9.16719 28.5326 9.02362 28.4108L10.3176 26.8858ZM15.6681 24.7179C15.4128 27.3348 12.3225 28.5869 10.3176 26.8858L9.02362 28.4108C12.2593 31.1562 17.2466 29.1354 17.6587 24.9121L15.6681 24.7179Z" fill="#432C18"/>
<path d="M7.72785 12.8606L7.93671 13.9049L0 12.8606H7.72785Z" fill="#432C18"/>
<path d="M8.14554 15.3672L8.3544 16.4116L0.417694 15.3672H8.14554Z" fill="#432C18"/>
<path d="M8.56339 17.8733L8.77225 18.9176L0.835541 17.8733H8.56339Z" fill="#432C18"/>
</svg>
