<svg width="84" height="81" viewBox="0 0 84 81" fill="none" xmlns="http://www.w3.org/2000/svg">
<ellipse cx="52" cy="79.5" rx="27" ry="1.5" fill="white" fill-opacity="0.49"/>
<path d="M23 11L9 14L20.5 22L34.5 20L23 11Z" fill="#E36F00"/>
<path d="M68 14L75.5 2L62.5 3.5L56 16.1493L68 14Z" fill="#FFA801"/>
<path fill-rule="evenodd" clip-rule="evenodd" d="M56 16.1493L34.5 20L40 55.5L61.5 51L73.5 47.5L68 14L56 16.1493ZM63.5 19L54.5 21L56 27.5L64.5 25.5L63.5 19Z" fill="#FFA801"/>
<path d="M34.5 20L20.5 22L26.5 57L40 55.5L34.5 20Z" fill="#E36F00"/>
<path d="M9 14L8.79047 13.0222L6.53734 13.505L8.42894 14.8209L9 14ZM23 11L23.6163 10.2125L23.2479 9.92418L22.7905 10.0222L23 11ZM75.5 2L76.348 2.53L77.4489 0.768487L75.3854 1.00659L75.5 2ZM62.5 3.5L62.3854 2.50659L61.8547 2.56782L61.6106 3.04295L62.5 3.5ZM56 16.1493L56.1763 17.1336L56 16.1493ZM26.5 57L25.5144 57.169L25.6736 58.098L26.6104 57.9939L26.5 57ZM73.5 47.5L73.78 48.46L74.6303 48.212L74.4868 47.338L73.5 47.5ZM83.7328 60.6805C84.1086 60.2757 84.0852 59.643 83.6805 59.2672C83.2757 58.8914 82.643 58.9148 82.2672 59.3195L83.7328 60.6805ZM76.5 67L75.7672 66.3195L75.749 66.3392L75.7318 66.3598L76.5 67ZM19 67L19.8192 67.5735L19.8615 67.5131L19.8944 67.4472L19 67ZM54.5 21L54.2831 20.0238L53.2989 20.2425L53.5256 21.2249L54.5 21ZM63.5 19L64.4884 18.8479L64.3259 17.7921L63.2831 18.0238L63.5 19ZM64.5 25.5L64.729 26.4734L65.6289 26.2617L65.4884 25.3479L64.5 25.5ZM56 27.5L55.0256 27.7249L55.2514 28.7034L56.229 28.4734L56 27.5ZM75.4012 68.3186L76.1694 68.9588L75.4012 68.3186ZM22.4716 62.8244L23.1186 62.0619L22.4716 62.8244ZM29.2595 68.5838L29.9065 67.8213L29.2595 68.5838ZM9.20953 14.9778L23.2095 11.9778L22.7905 10.0222L8.79047 13.0222L9.20953 14.9778ZM22.3837 11.7875L33.8837 20.7875L35.1163 19.2125L23.6163 10.2125L22.3837 11.7875ZM68.848 14.53L76.348 2.53L74.652 1.47L67.152 13.47L68.848 14.53ZM75.3854 1.00659L62.3854 2.50659L62.6146 4.49341L75.6146 2.99341L75.3854 1.00659ZM34.6763 20.9843L56.1763 17.1336L55.8237 15.1649L34.3237 19.0157L34.6763 20.9843ZM56.1763 17.1336L68.1763 14.9843L67.8237 13.0157L55.8237 15.1649L56.1763 17.1336ZM61.6106 3.04295L55.1106 15.6922L56.8894 16.6063L63.3894 3.95705L61.6106 3.04295ZM8.42894 14.8209L19.9289 22.8209L21.0711 21.1791L9.57106 13.1791L8.42894 14.8209ZM20.6414 22.99L34.6414 20.99L34.3586 19.01L20.3586 21.01L20.6414 22.99ZM33.5118 20.1531L39.0118 55.6531L40.9882 55.3469L35.4882 19.8469L33.5118 20.1531ZM39.8896 54.5061L26.3896 56.0061L26.6104 57.9939L40.1104 56.4939L39.8896 54.5061ZM27.4856 56.831L21.4856 21.831L19.5144 22.169L25.5144 57.169L27.4856 56.831ZM67.0132 14.162L72.5132 47.662L74.4868 47.338L68.9868 13.838L67.0132 14.162ZM39.0047 55.4029L38.1178 64.4943L40.1083 64.6885L40.9953 55.5971L39.0047 55.4029ZM29.9065 67.8213L23.1186 62.0619L21.8246 63.5869L28.6125 69.3464L29.9065 67.8213ZM73.22 46.54L61.22 50.04L61.78 51.96L73.78 48.46L73.22 46.54ZM61.2951 50.0212L39.7951 54.5212L40.2049 56.4788L61.7049 51.9788L61.2951 50.0212ZM76.1694 68.9588L77.2682 67.6402L75.7318 66.3598L74.6329 67.6784L76.1694 68.9588ZM77.2328 67.6805L83.7328 60.6805L82.2672 59.3195L75.7672 66.3195L77.2328 67.6805ZM20.0357 62.6924L18.1056 66.5528L19.8944 67.4472L21.8246 63.5869L20.0357 62.6924ZM18.1808 66.4265L14.6808 71.4265L16.3192 72.5735L19.8192 67.5735L18.1808 66.4265ZM54.7169 21.9762L63.7169 19.9762L63.2831 18.0238L54.2831 20.0238L54.7169 21.9762ZM62.5116 19.1521L63.5116 25.6521L65.4884 25.3479L64.4884 18.8479L62.5116 19.1521ZM64.271 24.5266L55.771 26.5266L56.229 28.4734L64.729 26.4734L64.271 24.5266ZM56.9744 27.2751L55.4744 20.7751L53.5256 21.2249L55.0256 27.7249L56.9744 27.2751ZM61.0939 51.9138L64.6793 53.5073L65.4915 51.6797L61.9061 50.0862L61.0939 51.9138ZM64.6793 53.5073C70.2364 55.9772 73.6372 61.6777 73.1708 67.7411L75.1649 67.8945C75.6963 60.9872 71.8221 54.4933 65.4915 51.6797L64.6793 53.5073ZM74.6329 67.6784C74.6672 67.6374 74.7281 67.5959 74.8043 67.5793C74.8728 67.5643 74.9325 67.5737 74.9778 67.5921C75.0232 67.6106 75.0725 67.6454 75.1112 67.7039C75.1543 67.769 75.169 67.8412 75.1649 67.8945L73.1708 67.7411C73.0439 69.3907 75.1102 70.2298 76.1694 68.9588L74.6329 67.6784ZM23.1186 62.0619C22.1296 61.2227 20.6158 61.5324 20.0357 62.6924L21.8246 63.5869L21.8246 63.5869L23.1186 62.0619ZM38.1178 64.4943C37.7259 68.5104 32.9834 70.432 29.9065 67.8213L28.6125 69.3464C32.9201 73.0013 39.5598 70.311 40.1083 64.6885L38.1178 64.4943Z" fill="#432C18"/>
<path d="M18.5 28L19 30.5L0 28H18.5Z" fill="#432C18"/>
<path d="M19.5 34L20 36.5L1 34H19.5Z" fill="#432C18"/>
<path d="M20.5 40L21 42.5L2 40H20.5Z" fill="#432C18"/>
</svg>
