<svg width="13" height="10" viewBox="0 0 13 10" fill="none" xmlns="http://www.w3.org/2000/svg">
<path fill-rule="evenodd" clip-rule="evenodd" d="M6.875 2.5C6.875 3.88086 5.75586 5 4.375 5C2.99414 5 1.875 3.88086 1.875 2.5C1.875 1.11914 2.99414 0 4.375 0C5.75586 0 6.875 1.11914 6.875 2.5ZM5.79883 5.625H6.125C7.57422 5.625 8.75 6.80078 8.75 8.25V9.0625C8.75 9.58008 8.33008 10 7.8125 10H0.9375C0.419922 10 0 9.58008 0 9.0625V8.25C0 6.80078 1.17578 5.625 2.625 5.625H2.95117C3.38672 5.82422 3.86719 5.9375 4.375 5.9375C4.88281 5.9375 5.36523 5.82422 5.79883 5.625Z" fill="black"/>
<path d="M12.4336 3.11719L11.8906 2.56836C11.8008 2.47656 11.6543 2.47656 11.5625 2.56641L9.51563 4.59766L8.62695 3.70312C8.53711 3.61133 8.39063 3.61133 8.29883 3.70117L7.75 4.24609C7.6582 4.33594 7.6582 4.48242 7.74805 4.57422L9.34375 6.18164C9.43359 6.27344 9.58008 6.27344 9.67188 6.18359L12.4316 3.44531C12.5215 3.35352 12.5234 3.20703 12.4336 3.11719Z" fill="#E36F00"/>
</svg>
