<svg width="49" height="45" viewBox="0 0 49 45" fill="none" xmlns="http://www.w3.org/2000/svg">
<rect width="48.2927" height="45" rx="3" fill="#01674F" fill-opacity="0.9"/>
<path d="M15.6399 26.1755C15.5687 26.1871 15.5006 26.2128 15.4393 26.2509C15.3781 26.2889 15.325 26.3387 15.283 26.3973C15.241 26.4559 15.211 26.5222 15.1946 26.5924C15.1782 26.6627 15.1759 26.7353 15.1877 26.8066L15.5455 28.9754C15.6644 29.6934 16.0637 30.3349 16.6556 30.7586C17.2474 31.1823 17.9834 31.3536 18.7015 31.2347C19.4196 31.1157 20.0611 30.7164 20.4848 30.1245C20.9085 29.5327 21.0797 28.7967 20.9608 28.0787L20.6019 25.9132C20.5777 25.7703 20.498 25.6428 20.3802 25.5585C20.2624 25.4743 20.116 25.4399 19.973 25.4632L15.6399 26.1755Z" fill="#E36F00"/>
<path d="M15.3183 27.5966C15.4062 27.494 15.5274 27.4256 15.6607 27.4035L20.1925 26.656C20.3035 26.6378 20.4173 26.6525 20.5199 26.6984C20.6225 26.7442 20.7095 26.8191 20.7699 26.914L20.6041 25.913C20.5799 25.7698 20.4999 25.6419 20.3816 25.5575C20.2633 25.4732 20.1164 25.4392 19.973 25.463L15.641 26.1775C15.5698 26.1892 15.5017 26.2148 15.4404 26.2529C15.3792 26.291 15.3261 26.3407 15.2841 26.3993C15.2421 26.4579 15.2121 26.5242 15.1957 26.5945C15.1793 26.6647 15.177 26.7375 15.1888 26.8086L15.3183 27.5966Z" fill="#924E0D"/>
<path d="M16.3874 10.478C15.8896 10.5601 15.4128 10.7394 14.9844 11.0057C14.5559 11.272 14.1841 11.6201 13.8901 12.0302C13.5962 12.4402 13.3859 12.9041 13.2713 13.3954C13.1566 13.8867 13.1399 14.3958 13.222 14.8935L14.6488 23.5576C14.6725 23.7011 14.7522 23.8293 14.8703 23.9141C14.9884 23.9989 15.1353 24.0333 15.2788 24.0098L19.6252 23.292C19.7636 23.2693 19.888 23.1945 19.973 23.0827C20.0579 22.9711 20.0968 22.8312 20.0818 22.6917C19.9338 21.5133 20.1166 20.317 20.6097 19.2366C21.1413 18.0608 21.3128 16.7539 21.1025 15.4807L20.8028 13.6434C20.7208 13.1456 20.5415 12.6689 20.2752 12.2404C20.0088 11.8119 19.6607 11.4401 19.2507 11.1462C18.8407 10.8523 18.3768 10.642 17.8855 10.5273C17.3942 10.4127 16.8851 10.3959 16.3874 10.478Z" fill="#E36F00"/>
<path d="M16.8109 12.3143C17.5994 12.1839 18.4089 12.2919 19.1356 12.6243C19.8624 12.9567 20.4735 13.4984 20.8906 14.1801L20.8027 13.6445C20.7207 13.1468 20.5415 12.67 20.2752 12.2415C20.009 11.813 19.6609 11.4412 19.251 11.1472C18.423 10.5535 17.3931 10.313 16.3878 10.4786C15.3825 10.6442 14.4842 11.2024 13.8905 12.0304C13.2968 12.8584 13.0563 13.8883 13.2219 14.8935L13.448 16.2655C13.4511 15.3157 13.7906 14.3977 14.4062 13.6743C15.0218 12.951 15.8738 12.4692 16.8109 12.3143Z" fill="#924E0D"/>
<path d="M15.6399 26.1755C15.5687 26.1871 15.5006 26.2128 15.4393 26.2509C15.3781 26.2889 15.325 26.3387 15.283 26.3973C15.241 26.4559 15.211 26.5222 15.1946 26.5924C15.1782 26.6627 15.1759 26.7353 15.1877 26.8066L15.5455 28.9754C15.6644 29.6934 16.0637 30.3349 16.6556 30.7586C17.2474 31.1823 17.9834 31.3536 18.7015 31.2347C19.4196 31.1157 20.0611 30.7164 20.4848 30.1245C20.9085 29.5327 21.0797 28.7967 20.9608 28.0787L20.6019 25.9132C20.5777 25.7703 20.498 25.6428 20.3802 25.5585C20.2624 25.4743 20.116 25.4399 19.973 25.4632L15.6399 26.1755Z" stroke="#191919" stroke-linecap="round" stroke-linejoin="round"/>
<path d="M16.3874 10.478C15.8896 10.5601 15.4128 10.7394 14.9844 11.0057C14.5559 11.272 14.1841 11.6201 13.8901 12.0302C13.5962 12.4402 13.3859 12.9041 13.2713 13.3954C13.1566 13.8867 13.1399 14.3958 13.222 14.8935L14.6488 23.5576C14.6725 23.7011 14.7522 23.8293 14.8703 23.9141C14.9884 23.9989 15.1353 24.0333 15.2788 24.0098L19.6252 23.292C19.7636 23.2693 19.888 23.1945 19.973 23.0827C20.0579 22.9711 20.0968 22.8312 20.0818 22.6917C19.9338 21.5133 20.1166 20.317 20.6097 19.2366C21.1413 18.0608 21.3128 16.7539 21.1025 15.4807L20.8028 13.6434C20.7208 13.1456 20.5415 12.6689 20.2752 12.2404C20.0088 11.8119 19.6607 11.4401 19.2507 11.1462C18.8407 10.8523 18.3768 10.642 17.8855 10.5273C17.3942 10.4127 16.8851 10.3959 16.3874 10.478Z" stroke="#191919" stroke-linecap="round" stroke-linejoin="round"/>
<path d="M30.8181 30.8411C30.8878 30.8596 30.9532 30.8918 31.0105 30.9357C31.0678 30.9796 31.1159 31.0343 31.152 31.0969C31.188 31.1594 31.2115 31.2284 31.2208 31.3C31.2303 31.3715 31.2254 31.4442 31.2067 31.5139L30.6392 33.6344C30.451 34.3373 29.9913 34.9367 29.3611 35.3008C28.731 35.6648 27.982 35.7636 27.279 35.5754C26.576 35.3872 25.9767 34.9274 25.6126 34.2973C25.2485 33.6672 25.1498 32.9182 25.338 32.2152L25.9054 30.0947C25.943 29.9541 26.0348 29.8342 26.1608 29.7614C26.2868 29.6885 26.4365 29.6687 26.5771 29.7062L30.8181 30.8411Z" fill="#E36F00"/>
<path d="M30.8181 30.8411L26.5771 29.7062C26.4365 29.6687 26.2868 29.6885 26.1608 29.7614C26.0348 29.8342 25.943 29.9541 25.9054 30.0947L25.6782 30.9409C25.7795 30.913 25.8864 30.913 25.9877 30.9409L30.4877 32.1483C30.5973 32.1773 30.6959 32.2378 30.7717 32.3222C30.8473 32.4067 30.8967 32.5114 30.9136 32.6235L31.2088 31.5205C31.2285 31.4502 31.2341 31.3767 31.225 31.3042C31.216 31.2318 31.1925 31.162 31.1561 31.0987C31.1197 31.0354 31.0711 30.98 31.013 30.9358C30.9551 30.8916 30.8888 30.8594 30.8181 30.8411Z" fill="#924E0D"/>
<path d="M31.6071 15.146C32.5911 15.4095 33.4301 16.0529 33.9397 16.9348C34.4494 17.8168 34.5878 18.865 34.3247 19.8491L32.0571 28.3343C32.0194 28.4747 31.9274 28.5944 31.8014 28.6669C31.6755 28.7396 31.5259 28.7593 31.3854 28.7218L27.1291 27.5835C26.9939 27.5471 26.8778 27.4602 26.8045 27.3409C26.7312 27.2214 26.7064 27.0786 26.7351 26.9415C26.9971 25.7832 26.9321 24.5748 26.5474 23.4512C26.1338 22.2293 26.0907 20.9122 26.4234 19.6658L26.9052 17.8658C27.1682 16.8817 27.8112 16.0423 28.693 15.5323C29.5748 15.0222 30.623 14.8833 31.6071 15.146Z" fill="#E36F00"/>
<path d="M31.6073 15.1458C31.1199 15.0154 30.6117 14.9822 30.1116 15.0482C29.6115 15.1142 29.1292 15.278 28.6924 15.5303C28.2555 15.7827 27.8727 16.1186 27.5657 16.5189C27.2587 16.9192 27.0335 17.3761 26.9031 17.8634L26.8208 18.1696C27.3781 17.5143 28.1284 17.0521 28.9644 16.8493C29.8005 16.6465 30.6792 16.7134 31.4749 17.0405C32.2705 17.3676 32.9422 17.9381 33.3939 18.6703C33.8454 19.4024 34.0537 20.2588 33.989 21.1165L34.327 19.8511C34.4576 19.3635 34.4908 18.8551 34.4248 18.3547C34.3587 17.8543 34.1948 17.3718 33.9421 16.9349C33.6896 16.4979 33.3534 16.115 32.9528 15.808C32.552 15.5011 32.0949 15.276 31.6073 15.1458Z" fill="#924E0D"/>
<path d="M30.8181 30.8411C30.8878 30.8596 30.9532 30.8918 31.0105 30.9357C31.0678 30.9796 31.1159 31.0343 31.152 31.0969C31.188 31.1594 31.2115 31.2284 31.2208 31.3C31.2303 31.3715 31.2254 31.4442 31.2067 31.5139L30.6392 33.6344C30.451 34.3373 29.9913 34.9367 29.3611 35.3008C28.731 35.6648 27.982 35.7636 27.279 35.5754C26.576 35.3872 25.9767 34.9274 25.6126 34.2973C25.2485 33.6672 25.1498 32.9182 25.338 32.2152L25.9054 30.0947C25.943 29.9541 26.0348 29.8342 26.1608 29.7614C26.2868 29.6885 26.4365 29.6687 26.5771 29.7062L30.8181 30.8411Z" stroke="#191919" stroke-linecap="round" stroke-linejoin="round"/>
<path d="M31.6071 15.146C32.5911 15.4095 33.4301 16.0529 33.9397 16.9348C34.4494 17.8168 34.5878 18.865 34.3247 19.8491L32.0571 28.3343C32.0194 28.4747 31.9274 28.5944 31.8014 28.6669C31.6755 28.7396 31.5259 28.7593 31.3854 28.7218L27.1291 27.5835C26.9939 27.5471 26.8778 27.4602 26.8045 27.3409C26.7312 27.2214 26.7064 27.0786 26.7351 26.9415C26.9971 25.7832 26.9321 24.5748 26.5474 23.4512C26.1338 22.2293 26.0907 20.9122 26.4234 19.6658L26.9052 17.8658C27.1682 16.8817 27.8112 16.0423 28.693 15.5323C29.5748 15.0222 30.623 14.8833 31.6071 15.146Z" stroke="#191919" stroke-linecap="round" stroke-linejoin="round"/>
</svg>
