<svg width="24" height="22" viewBox="0 0 24 22" fill="none" xmlns="http://www.w3.org/2000/svg">
<path fill-rule="evenodd" clip-rule="evenodd" d="M13.5634 1.21446C12.6365 0.547565 11.3648 0.547564 10.4379 1.21444L9.27872 2.04848C5.87593 4.49679 2.95833 7.50148 0.664202 10.9231L0.292322 11.4778C-0.508407 12.6721 0.454603 14.0898 1.74541 14.0898H2.97918C2.91114 15.6138 3.00002 17.1421 3.24566 18.6531C3.49737 20.2014 4.88432 21.2857 6.44601 21.2857H17.5552C19.1169 21.2857 20.504 20.2014 20.7556 18.6531C21.0013 17.1421 21.0902 15.6138 21.0222 14.0898H22.2556C23.5465 14.0898 24.5094 12.6721 23.7088 11.4778L23.337 10.9233C21.0429 7.50154 18.1252 4.49677 14.7224 2.04839L13.5634 1.21446Z" fill="#01674F"/>
<path fill-rule="evenodd" clip-rule="evenodd" d="M14.5718 21.2857V15.7679C14.5718 14.3477 13.4205 13.1964 12.0004 13.1964C10.5802 13.1964 9.42896 14.3477 9.42896 15.7679V21.2857H14.5718Z" fill="#023428"/>
</svg>
