<svg width="13" height="10" viewBox="0 0 13 10" fill="none" xmlns="http://www.w3.org/2000/svg">
<path d="M9.98141 6.47779C10.0721 6.26179 9.81297 6.07779 9.59563 6.17379C9.16121 6.36448 8.69182 6.46256 8.2174 6.46179C6.35738 6.46179 4.84981 4.98446 4.84981 3.1618C4.84912 2.5464 5.02396 1.94356 5.35381 1.42402C5.48003 1.22491 5.32848 0.94936 5.09736 1.00803C3.31557 1.46269 2 3.05024 2 4.93868C2 7.18178 3.85557 9 6.14493 9C7.87828 9 9.36274 7.95778 9.98141 6.47779Z" fill="black"/>
<path d="M7.43395 0.0489525C7.18157 -0.11963 6.88062 0.181342 7.04871 0.43374L7.34871 0.883769C7.47041 1.06624 7.53535 1.28066 7.53535 1.5C7.53535 1.71934 7.47041 1.93376 7.34871 2.11623L7.04871 2.56626C6.88062 2.81866 7.18205 3.11963 7.43442 2.95105L7.88394 2.65103C8.0664 2.52932 8.2808 2.46437 8.50012 2.46437C8.71944 2.46437 8.93385 2.52932 9.1163 2.65103L9.5663 2.95105C9.81867 3.11963 10.1196 2.81866 9.95105 2.56626L9.65106 2.11623C9.52936 1.93376 9.46442 1.71934 9.46442 1.5C9.46442 1.28066 9.52936 1.06624 9.65106 0.883769L9.95105 0.43374C10.1196 0.181342 9.81867 -0.11963 9.56582 0.0489525L9.1163 0.348972C8.93385 0.470679 8.71944 0.535628 8.50012 0.535628C8.2808 0.535628 8.0664 0.470679 7.88394 0.348972L7.43395 0.0489525Z" fill="#FBD300"/>
<path d="M9.14465 4.01632C9.06052 3.96012 8.96021 4.06045 9.01624 4.14458L9.11624 4.29459C9.1568 4.35541 9.17845 4.42689 9.17845 4.5C9.17845 4.57311 9.1568 4.64459 9.11624 4.70541L9.01624 4.85542C8.96021 4.93955 9.06068 5.03988 9.14481 4.98368L9.29465 4.88368C9.35547 4.84311 9.42693 4.82146 9.50004 4.82146C9.57315 4.82146 9.64462 4.84311 9.70543 4.88368L9.85543 4.98368C9.93956 5.03988 10.0399 4.93955 9.98368 4.85542L9.88369 4.70541C9.84312 4.64459 9.82147 4.57311 9.82147 4.5C9.82147 4.42689 9.84312 4.35541 9.88369 4.29459L9.98368 4.14458C10.0399 4.06045 9.93956 3.96012 9.85527 4.01632L9.70543 4.11632C9.64462 4.15689 9.57315 4.17854 9.50004 4.17854C9.42693 4.17854 9.35547 4.15689 9.29465 4.11632L9.14465 4.01632Z" fill="#FBD300"/>
</svg>
