<svg width="35" height="35" viewBox="0 0 35 35" fill="none" xmlns="http://www.w3.org/2000/svg">
<rect width="34.9994" height="35" rx="5" fill="#01674F"/>
<path fill-rule="evenodd" clip-rule="evenodd" d="M17.4997 5.00056C16.9686 5.00056 16.5936 5.03167 16.3264 5.07833C16.0625 5.12389 15.8881 5.18666 15.7714 5.26111C15.688 5.31567 15.623 5.39434 15.5853 5.48666C15.5575 5.55054 15.542 5.61721 15.5325 5.65721L15.5309 5.66443C15.4742 5.90942 15.3475 6.4783 15.2326 7.18884C13.2642 7.62311 11.4611 8.61114 10.0359 10.0364C8.61058 11.4617 7.62256 13.2648 7.18828 15.2331C6.677 15.3157 6.16858 15.4152 5.66387 15.5314L5.65721 15.5331C5.59866 15.5451 5.54137 15.5626 5.4861 15.5853C5.39372 15.6232 5.31506 15.6883 5.26055 15.772C5.18666 15.8886 5.12333 16.0631 5.07778 16.327C5.03167 16.5936 5 16.9692 5 17.5003C5 18.0308 5.03167 18.4058 5.07778 18.673C5.12333 18.9369 5.18666 19.1119 5.26111 19.2286C5.32444 19.3286 5.41388 19.3836 5.4861 19.4147C5.54999 19.4425 5.61721 19.458 5.65721 19.4669L5.66387 19.4686C5.90887 19.5258 6.47774 19.6519 7.18828 19.7675C8.06604 23.7768 11.2226 26.934 15.2326 27.8117C15.3475 28.5217 15.4737 29.0906 15.5309 29.3361L15.5325 29.3428C15.542 29.3828 15.5575 29.4495 15.5853 29.5133C15.6164 29.5856 15.6709 29.675 15.7714 29.7389C15.8881 29.8133 16.0625 29.8761 16.327 29.9222C16.5936 29.9683 16.9686 30 17.4997 30C18.0308 30 18.4058 29.9683 18.673 29.9222C18.9369 29.8761 19.1114 29.8133 19.228 29.7389C19.3115 29.6843 19.3764 29.6057 19.4141 29.5133C19.4419 29.4495 19.4575 29.3828 19.4669 29.3428L19.4686 29.3361C19.5252 29.0906 19.6519 28.5217 19.7669 27.8112C21.7352 27.3769 23.5383 26.3889 24.9636 24.9636C26.3889 23.5383 27.3769 21.7352 27.8112 19.7669C28.3224 19.6843 28.8309 19.5848 29.3356 19.4686L29.3422 19.4669C29.4008 19.4549 29.4581 19.4374 29.5133 19.4147C29.6057 19.3768 29.6844 19.3117 29.7389 19.228C29.8128 19.1114 29.8761 18.9369 29.9217 18.673C29.9678 18.4064 29.9994 18.0308 29.9994 17.5003C29.9994 16.9692 29.9678 16.5942 29.9217 16.327C29.8761 16.0631 29.8128 15.8881 29.7383 15.7714C29.6839 15.6881 29.6054 15.6232 29.5133 15.5853C29.4581 15.5626 29.4008 15.5451 29.3422 15.5331L29.3356 15.5314C28.8309 15.415 28.3225 15.3153 27.8112 15.2326C26.9334 11.2232 23.7768 8.06604 19.7669 7.18828C19.6843 6.67718 19.5848 6.16895 19.4686 5.66443L19.4669 5.65721C19.4575 5.61721 19.4419 5.55054 19.4141 5.48666C19.3764 5.39434 19.3115 5.31567 19.228 5.26111C19.1114 5.18666 18.9369 5.12389 18.6725 5.07778C18.4058 5.03167 18.0308 5.00056 17.4997 5.00056ZM10.2777 17.5003C10.2777 21.4891 13.5109 24.7223 17.4997 24.7223C21.4885 24.7223 24.7218 21.4891 24.7218 17.5003C24.7218 13.5115 21.4885 10.2782 17.4997 10.2782C13.5109 10.2782 10.2777 13.5115 10.2777 17.5003Z" fill="white"/>
<path d="M17.4979 14.5727C18.3082 14.5727 19.0854 14.8946 19.6584 15.4676C20.2314 16.0406 20.5534 16.8178 20.5534 17.6282C20.5534 18.4385 20.2314 19.2157 19.6584 19.7887C19.0854 20.3618 18.3082 20.6837 17.4979 20.6837C16.6875 20.6837 15.9103 20.3618 15.3373 19.7887C14.7643 19.2157 14.4424 18.4385 14.4424 17.6282C14.4424 16.8178 14.7643 16.0406 15.3373 15.4676C15.9103 14.8946 16.6875 14.5727 17.4979 14.5727Z" fill="white"/>
</svg>
