<svg width="50" height="50" viewBox="0 0 50 50" fill="none" xmlns="http://www.w3.org/2000/svg">
<rect width="50" height="50" rx="25" fill="#E36F00"/>
<path d="M22.2998 12.7846C23.5515 12.2839 24.948 12.2839 26.1998 12.7846L34.8353 16.2406C35.6903 16.5811 36.2498 17.4091 36.2498 18.3286V24.4486C34.7728 23.2279 32.9159 22.5615 30.9998 22.5646C29.8759 22.5628 28.7636 22.7915 27.7316 23.2366C26.6996 23.6816 25.7699 24.3336 24.9998 25.1521V22.3021L31.3043 19.5001C31.3943 19.4601 31.4755 19.4028 31.5434 19.3314C31.6113 19.26 31.6644 19.176 31.6998 19.084C31.7352 18.9921 31.7521 18.8941 31.7496 18.7956C31.7471 18.6972 31.7252 18.6002 31.6853 18.5101C31.6453 18.4201 31.5879 18.3388 31.5166 18.271C31.4452 18.2031 31.3611 18.15 31.2692 18.1146C31.1772 18.0792 31.0792 18.0623 30.9808 18.0648C30.8823 18.0673 30.7853 18.0891 30.6953 18.1291L24.2498 20.9926L17.8043 18.1276C17.6225 18.0469 17.416 18.0416 17.2304 18.1131C17.0447 18.1846 16.895 18.3268 16.8143 18.5086C16.7335 18.6904 16.7283 18.8969 16.7997 19.0825C16.8712 19.2682 17.0135 19.4179 17.1953 19.4986L23.4998 22.3006V27.3721C23.0048 28.4522 22.749 29.6265 22.7498 30.8146C22.7498 32.6506 23.3498 34.3471 24.3638 35.7166C23.6575 35.7318 22.9555 35.6042 22.2998 35.3416L13.6643 31.8886C13.2464 31.7215 12.8883 31.433 12.6361 31.0602C12.384 30.6875 12.2494 30.2477 12.2498 29.7976V18.3286C12.25 17.8791 12.3848 17.44 12.637 17.0678C12.8891 16.6957 13.2469 16.4076 13.6643 16.2406L22.2998 12.7846ZM34.7498 36.4246C34.0129 36.9251 33.1843 37.2749 32.3117 37.4536C31.439 37.6324 30.5397 37.6367 29.6654 37.4663C28.7911 37.2958 27.9592 36.954 27.2176 36.4606C26.476 35.9671 25.8394 35.3317 25.3445 34.5911C24.8497 33.8505 24.5063 33.0192 24.3342 32.1452C24.162 31.2713 24.1646 30.3719 24.3417 29.4989C24.5188 28.6259 24.867 27.7966 25.3661 27.0589C25.8652 26.3211 26.5054 25.6894 27.2498 25.2001C28.7384 24.2056 30.5612 23.8431 32.3171 24.1925C34.073 24.5419 35.6182 25.5745 36.6128 27.0631C37.6073 28.5518 37.9698 30.3746 37.6204 32.1305C37.271 33.8864 36.2384 35.4301 34.7498 36.4246ZM31.5308 27.2851C31.426 27.1801 31.2923 27.1084 31.1468 27.0794C31.0013 27.0503 30.8504 27.065 30.7133 27.1217C30.5761 27.1784 30.4589 27.2745 30.3764 27.3978C30.2938 27.5212 30.2498 27.6662 30.2498 27.8146V30.0646H27.9998C27.8008 30.0646 27.6101 30.1437 27.4694 30.2843C27.3288 30.425 27.2498 30.6157 27.2498 30.8146C27.2498 31.0135 27.3288 31.2043 27.4694 31.345C27.6101 31.4856 27.8008 31.5646 27.9998 31.5646H30.2498V33.8146C30.2498 34.0135 30.3288 34.2043 30.4694 34.345C30.6101 34.4856 30.8008 34.5646 30.9998 34.5646C31.1987 34.5646 31.3894 34.4856 31.5301 34.345C31.6707 34.2043 31.7498 34.0135 31.7498 33.8146V31.5646H33.9998C34.1987 31.5646 34.3894 31.4856 34.5301 31.345C34.6707 31.2043 34.7498 31.0135 34.7498 30.8146C34.7498 30.6157 34.6707 30.425 34.5301 30.2843C34.3894 30.1437 34.1987 30.0646 33.9998 30.0646H31.7498V27.8146C31.7499 27.7161 31.7307 27.6185 31.6931 27.5273C31.6555 27.4362 31.6004 27.3534 31.5308 27.2836" fill="white"/>
</svg>
