<svg width="24" height="24" viewBox="0 0 24 24" fill="none" xmlns="http://www.w3.org/2000/svg">
<path fill-rule="evenodd" clip-rule="evenodd" d="M19.5715 0C17.1257 0 15.1429 1.98274 15.1429 4.42857C15.1429 6.87441 17.1257 8.85715 19.5715 8.85715C22.0173 8.85715 24.0001 6.87441 24.0001 4.42857C24.0001 1.98274 22.0173 0 19.5715 0Z" fill="#023428"/>
<path fill-rule="evenodd" clip-rule="evenodd" d="M13.1392 3.07694C13.048 3.51315 13.0001 3.96526 13.0001 4.42855C13.0001 7.56065 15.1913 10.181 18.1244 10.8401V16.4142C18.1244 16.8149 18.2944 17.2123 18.6189 17.5148C18.994 17.8649 19.2896 18 19.7145 18C20.1878 18 20.5717 18.3838 20.5717 18.8571C20.5717 19.3304 20.1878 19.7143 19.7145 19.7143H0.857387C0.384001 19.7143 0.000244141 19.3304 0.000244141 18.8571C0.000244141 18.3838 0.384001 18 0.857387 18C1.28241 18 1.57791 17.8649 1.953 17.5148C2.2774 17.2123 2.44744 16.8149 2.44744 16.4142V9.94306C2.44744 7.96809 3.28876 6.08707 4.76459 4.70993C6.23843 3.33465 8.22544 2.57141 10.2859 2.57141C11.2697 2.57141 12.2368 2.74541 13.1392 3.07694ZM8.57152 21.4286C7.86143 21.4286 7.2858 22.0042 7.2858 22.7143C7.2858 23.4243 7.86143 24 8.57152 24H12.0001C12.7102 24 13.2858 23.4243 13.2858 22.7143C13.2858 22.0042 12.7102 21.4286 12.0001 21.4286H8.57152Z" fill="#01674F"/>
</svg>
