<svg width="24" height="24" viewBox="0 0 24 24" fill="none" xmlns="http://www.w3.org/2000/svg">
<path fill-rule="evenodd" clip-rule="evenodd" d="M19.5713 0C17.1254 0 15.1427 1.98274 15.1427 4.42857C15.1427 6.87441 17.1254 8.85715 19.5713 8.85715C22.0171 8.85715 23.9998 6.87441 23.9998 4.42857C23.9998 1.98274 22.0171 0 19.5713 0Z" fill="#FFA801"/>
<path fill-rule="evenodd" clip-rule="evenodd" d="M13.139 3.07694C13.0478 3.51315 12.9999 3.96526 12.9999 4.42855C12.9999 7.56065 15.1911 10.181 18.1241 10.8401V16.4142C18.1241 16.8149 18.2942 17.2123 18.6187 17.5148C18.9938 17.8649 19.2893 18 19.7143 18C20.1876 18 20.5714 18.3838 20.5714 18.8571C20.5714 19.3304 20.1876 19.7143 19.7143 19.7143H0.857143C0.383757 19.7143 0 19.3304 0 18.8571C0 18.3838 0.383757 18 0.857143 18C1.28217 18 1.57767 17.8649 1.95276 17.5148C2.27715 17.2123 2.44719 16.8149 2.44719 16.4142V9.94306C2.44719 7.96809 3.28851 6.08707 4.76434 4.70993C6.23818 3.33465 8.22519 2.57141 10.2857 2.57141C11.2695 2.57141 12.2366 2.74541 13.139 3.07694ZM8.57127 21.4286C7.86118 21.4286 7.28556 22.0042 7.28556 22.7143C7.28556 23.4243 7.86118 24 8.57127 24H11.9998C12.7099 24 13.2856 23.4243 13.2856 22.7143C13.2856 22.0042 12.7099 21.4286 11.9998 21.4286H8.57127Z" fill="#D4D4D4"/>
</svg>
