<svg width="72" height="90" viewBox="0 0 72 90" fill="none" xmlns="http://www.w3.org/2000/svg">
<path fill-rule="evenodd" clip-rule="evenodd" d="M16.9821 0L8.11335 24.413L4.60825 33.6616L0.459811 45.5502C0.234158 46.1969 0.710706 46.8739 1.3956 46.8796L9.93926 46.9512H21.6773L12.6618 77.9716L9.506 88.5862C9.21802 89.5548 10.3846 90.2906 11.1346 89.6134L19.3786 82.1709L44.5623 57.6663L69.746 33.1617C70.8014 32.1756 71.5325 30.8798 71.8389 29.4522C72.1454 28.0246 72.0123 26.5351 71.4578 25.1879C70.8973 23.8746 69.9687 22.7606 68.7892 21.9865C67.6097 21.2123 66.2322 20.8129 64.8307 20.8385H52.7096L58.9046 5.7908L60.6117 1.35948C60.8641 0.704398 60.3806 3.69057e-07 59.6786 7.12276e-07L55.1469 2.92787e-06L16.9821 0Z" fill="#01674F" fill-opacity="0.19"/>
</svg>
