<svg width="58" height="74" viewBox="0 0 58 74" fill="none" xmlns="http://www.w3.org/2000/svg">
<path d="M50.7083 25.1119L55.4206 20.3997C55.9931 19.8272 56.3147 19.0507 56.3147 18.2411C56.3147 17.4315 55.9931 16.6551 55.4206 16.0826C54.8481 15.5101 54.0717 15.1885 53.2621 15.1885C52.4525 15.1885 51.676 15.5101 51.1036 16.0826L46.2393 20.9469C42.0772 17.8317 37.1508 15.8989 31.9808 15.3529V6.08037H38.0612C38.8675 6.08037 39.6407 5.76007 40.2109 5.18992C40.781 4.61978 41.1013 3.84649 41.1013 3.04019C41.1013 2.23388 40.781 1.4606 40.2109 0.89045C39.6407 0.320305 38.8675 0 38.0612 0L19.82 0C19.0137 0 18.2404 0.320305 17.6703 0.89045C17.1002 1.4606 16.7799 2.23388 16.7799 3.04019C16.7799 3.84649 17.1002 4.61978 17.6703 5.18992C18.2404 5.76007 19.0137 6.08037 19.82 6.08037H25.9004V15.3529C19.461 16.0274 13.4344 18.8438 8.78603 23.3509C4.1377 27.858 1.13674 33.7949 0.263941 40.2104C-0.608854 46.6259 0.697038 53.1487 3.97239 58.7338C7.24775 64.3188 12.303 68.6429 18.3282 71.0131C24.3534 73.3833 30.9998 73.6625 37.2025 71.8059C43.4052 69.9494 48.8053 66.0646 52.5375 60.7739C56.2698 55.4832 58.1181 49.0929 57.7864 42.6268C57.4548 36.1607 54.9623 29.993 50.7083 25.1119ZM28.9406 68.4042C24.1303 68.4042 19.4279 66.9778 15.4283 64.3053C11.4286 61.6328 8.3113 57.8343 6.47047 53.3901C4.62963 48.946 4.14798 44.0557 5.08644 39.3378C6.02489 34.6199 8.34128 30.2862 11.7427 26.8848C15.1441 23.4834 19.4778 21.167 24.1957 20.2285C28.9136 19.2901 33.8039 19.7717 38.248 21.6126C42.6922 23.4534 46.4907 26.5708 49.1632 30.5704C51.8357 34.5701 53.2621 39.2724 53.2621 44.0827C53.2621 50.5332 50.6997 56.7194 46.1385 61.2806C41.5773 65.8418 35.3911 68.4042 28.9406 68.4042Z" fill="#01674F" fill-opacity="0.19"/>
<path d="M28.9416 24.321C25.0332 24.321 21.2126 25.48 17.9629 27.6513C14.7132 29.8227 12.1803 32.909 10.6847 36.5199C9.18898 40.1308 8.79764 44.1041 9.56014 47.9374C10.3226 51.7707 12.2047 55.2918 14.9684 58.0555C17.732 60.8191 21.2531 62.7012 25.0864 63.4637C28.9197 64.2262 32.893 63.8348 36.5039 62.3392C40.1148 60.8435 43.2011 58.3106 45.3725 55.0609C47.5439 51.8112 48.7029 47.9906 48.7029 44.0822C48.7029 38.8412 46.6209 33.8149 42.9149 30.1089C39.209 26.403 34.1826 24.321 28.9416 24.321ZM30.5529 45.055C30.1254 45.482 29.5459 45.7219 28.9416 45.7219C28.3374 45.7219 27.7579 45.482 27.3303 45.055L21.25 38.9747C20.8472 38.5424 20.6279 37.9707 20.6384 37.38C20.6488 36.7893 20.8881 36.2257 21.3058 35.808C21.7236 35.3902 22.2872 35.1509 22.8779 35.1405C23.4686 35.13 24.0403 35.3493 24.4726 35.7521L30.5529 41.8325C30.9799 42.26 31.2198 42.8395 31.2198 43.4438C31.2198 44.048 30.9799 44.6275 30.5529 45.055Z" fill="#01674F" fill-opacity="0.19"/>
</svg>
