<svg width="48" height="48" viewBox="0 0 48 48" fill="none" xmlns="http://www.w3.org/2000/svg">
<circle cx="24" cy="24" r="23.5" fill="white" stroke="#EDEDED"/>
<path fill-rule="evenodd" clip-rule="evenodd" d="M14 17.25C14 16.6977 14.4477 16.25 15 16.25H33C33.5523 16.25 34 16.6977 34 17.25V30.75C34 31.3023 33.5523 31.75 33 31.75H15C14.4477 31.75 14 31.3023 14 30.75V17.25ZM16 18.25V29.75H32V18.25H16Z" fill="#E36F00"/>
<path fill-rule="evenodd" clip-rule="evenodd" d="M14.2408 16.5992C14.6002 16.1799 15.2315 16.1313 15.6508 16.4908L24 23.6471L32.3492 16.4908C32.7686 16.1313 33.3999 16.1799 33.7593 16.5992C34.1187 17.0186 34.0701 17.6499 33.6508 18.0093L24.6508 25.7234C24.2763 26.0444 23.7237 26.0444 23.3492 25.7234L14.3492 18.0093C13.9299 17.6499 13.8813 17.0186 14.2408 16.5992Z" fill="#E36F00"/>
</svg>
