<svg width="13" height="7" viewBox="0 0 13 7" fill="none" xmlns="http://www.w3.org/2000/svg">
<path d="M12.151 0.691567C11.6253 1.73279 10.7922 2.61485 9.74123 3.24358L11.0315 4.53383C11.2176 4.71996 11.2176 5.02175 11.0315 5.20791C10.8453 5.39404 10.5436 5.39404 10.3574 5.20791L8.84375 3.69423C8.13034 3.98949 7.3646 4.16709 6.57777 4.21821V6.37863C6.57777 6.64189 6.36438 6.85529 6.10112 6.85529C5.83787 6.85529 5.62447 6.64189 5.62447 6.37863V4.21824C4.83764 4.16712 4.0719 3.98952 3.3585 3.69425L1.84487 5.20793C1.65871 5.39409 1.3569 5.39409 1.17076 5.20793C0.984655 5.0218 0.984655 4.72001 1.17079 4.53385L2.46101 3.2436C1.41004 2.61488 0.576951 1.73281 0.0512528 0.691591C-0.0673856 0.456578 0.0269436 0.16992 0.261933 0.0512578C0.49685 -0.0674045 0.783627 0.0269011 0.902242 0.261914C1.78638 2.01306 3.75671 3.2804 6.10115 3.2804C8.44734 3.2804 10.4167 2.01153 11.3 0.26189C11.4189 0.026496 11.7057 -0.0672372 11.9403 0.0512344C12.1753 0.169897 12.2697 0.456578 12.151 0.691567Z" fill="#C6C6C6"/>
</svg>
