<svg width="12" height="7" viewBox="0 0 12 7" fill="none" xmlns="http://www.w3.org/2000/svg">
<path d="M11.9496 4.57681C11.4326 5.28897 10.6133 5.89228 9.57976 6.32231C9.25758 6.45501 9.06457 6.52522 8.69715 6.63054C7.99557 6.83249 7.24253 6.95396 6.46874 6.98893C6.08139 7.00396 5.87751 7.00341 5.53124 6.98895C4.75745 6.95398 4.0044 6.83251 3.30282 6.63056C2.99906 6.54413 2.82196 6.48995 2.42022 6.32233C1.38667 5.8923 0.567391 5.28899 0.0504067 4.57683C-0.066265 4.41608 0.0265006 4.22002 0.257594 4.13886C0.488617 4.0577 0.77064 4.1222 0.887288 4.28294C1.75677 5.48067 3.69444 6.3475 6.00001 6.3475C8.30731 6.3475 10.244 5.47963 11.1127 4.28292C11.2296 4.12192 11.5117 4.05781 11.7424 4.13884C11.9735 4.22 12.0663 4.41609 11.9496 4.57681Z" fill="#C6C6C6"/>
<path d="M11.9496 4.2158C11.4326 3.50363 10.6133 2.90033 9.57975 2.4703L10.8486 1.58781C11.0316 1.4605 11.0316 1.25408 10.8486 1.12676C10.6655 0.999447 10.3688 0.999447 10.1857 1.12676L8.69714 2.16207C7.99557 1.96012 7.24252 1.83864 6.46873 1.80368V0.326015C6.46873 0.145957 6.25887 0 5.99998 0C5.74109 0 5.53123 0.145957 5.53123 0.326015V1.80366C4.75745 1.83863 4.0044 1.9601 3.30282 2.16205L1.81428 1.12674C1.63121 0.999415 1.3344 0.999415 1.15136 1.12674C0.968332 1.25405 0.968332 1.46047 1.15138 1.58779L2.42021 2.47028C1.38667 2.90031 0.567387 3.50362 0.0504032 4.21578C-0.0662685 4.37652 0.026497 4.57259 0.25759 4.65375C0.488614 4.73491 0.770637 4.67041 0.887285 4.50967C1.75677 3.31194 3.69444 2.44511 6.00001 2.44511C8.30731 2.44511 10.244 3.31298 11.1127 4.50968C11.2296 4.67068 11.5117 4.7348 11.7424 4.65376C11.9735 4.5726 12.0663 4.37652 11.9496 4.2158Z" fill="#C6C6C6"/>
<path d="M5.59022 3.59147C5.87932 3.3904 6.26297 3.3904 6.55206 3.59147V3.59147C7.03387 3.92656 7.03387 4.63932 6.55206 4.97442V4.97442C6.26297 5.17548 5.87932 5.17548 5.59022 4.97442V4.97442C5.10842 4.63932 5.10842 3.92656 5.59022 3.59147V3.59147Z" fill="#C6C6C6"/>
</svg>
