<svg width="8" height="33" viewBox="0 0 8 33" fill="none" xmlns="http://www.w3.org/2000/svg">
<path fill-rule="evenodd" clip-rule="evenodd" d="M4.00006 0.000133337C3.87259 0.000133337 3.78259 0.00759984 3.71846 0.0187996C3.65513 0.0297327 3.61326 0.044799 3.58527 0.0626653C3.56523 0.0757616 3.54965 0.0946409 3.5406 0.116797C3.53393 0.13213 3.5302 0.14813 3.52793 0.15773L3.52753 0.159463C3.51393 0.218262 3.48353 0.354792 3.45593 0.525322C2.98354 0.629547 2.5508 0.866674 2.20873 1.20874C1.86666 1.55081 1.62954 1.98355 1.52531 2.45595C1.4026 2.47577 1.28058 2.49965 1.15945 2.52754L1.15785 2.52794C1.1438 2.53082 1.13005 2.53502 1.11679 2.54048C1.09462 2.54957 1.07574 2.5652 1.06265 2.58528C1.04492 2.61328 1.02972 2.65514 1.01879 2.71847C1.00772 2.78247 1.00012 2.8726 1.00012 3.00007C1.00012 3.1274 1.00772 3.2174 1.01879 3.28153C1.02972 3.34486 1.04492 3.38686 1.06279 3.41486C1.07799 3.43886 1.09945 3.45206 1.11679 3.45952C1.13212 3.46619 1.14825 3.46992 1.15785 3.47206L1.15945 3.47246C1.21825 3.48619 1.35478 3.51646 1.52531 3.54419C1.73597 4.50643 2.49356 5.26415 3.45593 5.47481C3.48353 5.64521 3.5138 5.78174 3.52753 5.84067L3.52793 5.84227C3.5302 5.85187 3.53393 5.86787 3.5406 5.8832C3.54807 5.90054 3.56113 5.922 3.58527 5.93733C3.61326 5.9552 3.65513 5.97027 3.7186 5.98133C3.78259 5.9924 3.87259 6 4.00006 6C4.12752 6 4.21752 5.9924 4.28165 5.98133C4.34498 5.97027 4.38685 5.9552 4.41485 5.93733C4.43488 5.92424 4.45046 5.90536 4.45951 5.8832C4.46618 5.86787 4.46991 5.85187 4.47218 5.84227L4.47258 5.84067C4.48618 5.78174 4.51658 5.64521 4.54418 5.47468C5.01657 5.37045 5.44932 5.13333 5.79138 4.79126C6.13345 4.44919 6.37058 4.01645 6.4748 3.54405C6.59751 3.52423 6.71953 3.50035 6.84066 3.47246L6.84226 3.47206C6.85631 3.46918 6.87006 3.46498 6.88333 3.45952C6.9055 3.45043 6.92438 3.4348 6.93746 3.41472C6.95519 3.38672 6.97039 3.34486 6.98132 3.28153C6.99239 3.21753 6.99999 3.1274 6.99999 3.00007C6.99999 2.8726 6.99239 2.7826 6.98132 2.71847C6.97039 2.65514 6.95519 2.61314 6.93733 2.58514C6.92426 2.56514 6.90543 2.54956 6.88333 2.54048C6.87006 2.53502 6.85631 2.53082 6.84226 2.52794L6.84066 2.52754C6.71953 2.49961 6.59751 2.47568 6.4748 2.45581C6.26414 1.49357 5.50656 0.73585 4.54418 0.525188C4.52436 0.402523 4.50048 0.280548 4.47258 0.159463L4.47218 0.15773C4.46991 0.14813 4.46618 0.13213 4.45951 0.116797C4.45046 0.0946409 4.43488 0.0757616 4.41485 0.0626653C4.38685 0.044799 4.34498 0.0297327 4.28152 0.0186663C4.21752 0.00759983 4.12752 0.000133337 4.00006 0.000133337ZM2.26676 3.00007C2.26676 3.95738 3.04274 4.73336 4.00006 4.73336C4.95737 4.73336 5.73335 3.95738 5.73335 3.00007C5.73335 2.04275 4.95737 1.26677 4.00006 1.26677C3.04274 1.26677 2.26676 2.04275 2.26676 3.00007Z" fill="#01674F"/>
<path d="M3.99992 2.29755C4.19441 2.29755 4.38093 2.37481 4.51845 2.51233C4.65598 2.64985 4.73324 2.83638 4.73324 3.03086C4.73324 3.22535 4.65598 3.41187 4.51845 3.5494C4.38093 3.68692 4.19441 3.76418 3.99992 3.76418C3.80543 3.76418 3.61891 3.68692 3.48139 3.5494C3.34386 3.41187 3.2666 3.22535 3.2666 3.03086C3.2666 2.83638 3.34386 2.64985 3.48139 2.51233C3.61891 2.37481 3.80543 2.29755 3.99992 2.29755Z" fill="#E36F00"/>
<path d="M4 10.5C4.13261 10.5 4.25979 10.5527 4.35355 10.6464C4.44732 10.7402 4.5 10.8674 4.5 11C4.5 11.1326 4.44732 11.2598 4.35355 11.3536C4.25979 11.4473 4.13261 11.5 4 11.5C3.86739 11.5 3.74021 11.4473 3.64645 11.3536C3.55268 11.2598 3.5 11.1326 3.5 11C3.5 10.8674 3.55268 10.7402 3.64645 10.6464C3.74021 10.5527 3.86739 10.5 4 10.5Z" fill="#E36F00"/>
<path d="M4 16C4.13261 16 4.25979 16.0527 4.35355 16.1464C4.44732 16.2402 4.5 16.3674 4.5 16.5C4.5 16.6326 4.44732 16.7598 4.35355 16.8536C4.25979 16.9473 4.13261 17 4 17C3.86739 17 3.74021 16.9473 3.64645 16.8536C3.55268 16.7598 3.5 16.6326 3.5 16.5C3.5 16.3674 3.55268 16.2402 3.64645 16.1464C3.74021 16.0527 3.86739 16 4 16Z" fill="#E36F00"/>
<path d="M4 21.5C4.13261 21.5 4.25979 21.5527 4.35355 21.6464C4.44732 21.7402 4.5 21.8674 4.5 22C4.5 22.1326 4.44732 22.2598 4.35355 22.3536C4.25979 22.4473 4.13261 22.5 4 22.5C3.86739 22.5 3.74021 22.4473 3.64645 22.3536C3.55268 22.2598 3.5 22.1326 3.5 22C3.5 21.8674 3.55268 21.7402 3.64645 21.6464C3.74021 21.5527 3.86739 21.5 4 21.5Z" fill="#E36F00"/>
<path fill-rule="evenodd" clip-rule="evenodd" d="M4.00006 27.0001C3.87259 27.0001 3.78259 27.0076 3.71846 27.0188C3.65513 27.0297 3.61326 27.0448 3.58527 27.0627C3.56523 27.0758 3.54965 27.0946 3.5406 27.1168C3.53393 27.1321 3.5302 27.1481 3.52793 27.1577L3.52753 27.1595C3.51393 27.2183 3.48353 27.3548 3.45593 27.5253C2.98354 27.6295 2.5508 27.8667 2.20873 28.2087C1.86666 28.5508 1.62954 28.9836 1.52531 29.4559C1.4026 29.4758 1.28058 29.4997 1.15945 29.5275L1.15785 29.5279C1.1438 29.5308 1.13005 29.535 1.11679 29.5405C1.09462 29.5496 1.07574 29.5652 1.06265 29.5853C1.04492 29.6133 1.02972 29.6551 1.01879 29.7185C1.00772 29.7825 1.00012 29.8726 1.00012 30.0001C1.00012 30.1274 1.00772 30.2174 1.01879 30.2815C1.02972 30.3449 1.04492 30.3869 1.06279 30.4149C1.07799 30.4389 1.09945 30.4521 1.11679 30.4595C1.13212 30.4662 1.14825 30.4699 1.15785 30.4721L1.15945 30.4725C1.21825 30.4862 1.35478 30.5165 1.52531 30.5442C1.73597 31.5064 2.49356 32.2641 3.45593 32.4748C3.48353 32.6452 3.5138 32.7817 3.52753 32.8407L3.52793 32.8423C3.5302 32.8519 3.53393 32.8679 3.5406 32.8832C3.54807 32.9005 3.56113 32.922 3.58527 32.9373C3.61326 32.9552 3.65513 32.9703 3.7186 32.9813C3.78259 32.9924 3.87259 33 4.00006 33C4.12752 33 4.21752 32.9924 4.28165 32.9813C4.34498 32.9703 4.38685 32.9552 4.41485 32.9373C4.43488 32.9242 4.45046 32.9054 4.45951 32.8832C4.46618 32.8679 4.46991 32.8519 4.47218 32.8423L4.47258 32.8407C4.48618 32.7817 4.51658 32.6452 4.54418 32.4747C5.01657 32.3705 5.44932 32.1333 5.79138 31.7913C6.13345 31.4492 6.37058 31.0164 6.4748 30.5441C6.59751 30.5242 6.71953 30.5004 6.84066 30.4725L6.84226 30.4721C6.85631 30.4692 6.87006 30.465 6.88333 30.4595C6.9055 30.4504 6.92438 30.4348 6.93746 30.4147C6.95519 30.3867 6.97039 30.3449 6.98132 30.2815C6.99239 30.2175 6.99999 30.1274 6.99999 30.0001C6.99999 29.8726 6.99239 29.7826 6.98132 29.7185C6.97039 29.6551 6.95519 29.6131 6.93733 29.5851C6.92426 29.5651 6.90543 29.5496 6.88333 29.5405C6.87006 29.535 6.85631 29.5308 6.84226 29.5279L6.84066 29.5275C6.71953 29.4996 6.59751 29.4757 6.4748 29.4558C6.26414 28.4936 5.50656 27.7359 4.54418 27.5252C4.52436 27.4025 4.50048 27.2805 4.47258 27.1595L4.47218 27.1577C4.46991 27.1481 4.46618 27.1321 4.45951 27.1168C4.45046 27.0946 4.43488 27.0758 4.41485 27.0627C4.38685 27.0448 4.34498 27.0297 4.28152 27.0187C4.21752 27.0076 4.12752 27.0001 4.00006 27.0001ZM2.26676 30.0001C2.26676 30.9574 3.04274 31.7334 4.00006 31.7334C4.95737 31.7334 5.73335 30.9574 5.73335 30.0001C5.73335 29.0428 4.95737 28.2668 4.00006 28.2668C3.04274 28.2668 2.26676 29.0428 2.26676 30.0001Z" fill="#01674F"/>
<path d="M3.99992 29.2975C4.19441 29.2975 4.38093 29.3748 4.51845 29.5123C4.65598 29.6499 4.73324 29.8364 4.73324 30.0309C4.73324 30.2254 4.65598 30.4119 4.51845 30.5494C4.38093 30.6869 4.19441 30.7642 3.99992 30.7642C3.80543 30.7642 3.61891 30.6869 3.48139 30.5494C3.34386 30.4119 3.2666 30.2254 3.2666 30.0309C3.2666 29.8364 3.34386 29.6499 3.48139 29.5123C3.61891 29.3748 3.80543 29.2975 3.99992 29.2975Z" fill="#E36F00"/>
</svg>
