<svg width="24" height="24" viewBox="0 0 24 24" fill="none" xmlns="http://www.w3.org/2000/svg">
<g clip-path="url(#clip0_346_1099)">
<path fill-rule="evenodd" clip-rule="evenodd" d="M7.50391 0.223155C9.46838 0.0767625 11.3669 0 13.7154 0C14.4648 0 15.1689 0.00781622 15.8443 0.0232495C16.7609 0.0441922 17.6548 0.367663 18.3676 0.96497C20.1777 2.48153 21.3692 3.79375 22.7017 5.67843C23.5333 6.85481 23.9569 8.25437 23.9812 9.67025C23.9944 10.4408 24.0011 11.2176 24.0011 12C24.0011 14.7006 23.9211 17.3347 23.7692 19.8735C23.6447 21.9525 22.0069 23.6218 19.9269 23.7768C17.9624 23.9232 16.0639 24 13.7154 24C13.0705 24 12.4595 23.9942 11.8718 23.9829C11.8906 23.9643 11.9094 23.9458 11.9281 23.927C13.5172 22.338 14.144 20.1965 14.144 18C14.144 15.8034 13.5172 13.6621 11.9281 12.073C10.339 10.4839 8.19768 9.85714 6.0011 9.85714C5.12896 9.85714 4.26552 9.95594 3.44189 10.1745C3.46961 8.11039 3.54408 6.08991 3.66161 4.12644C3.78605 2.04751 5.42395 0.378154 7.50391 0.223155Z" fill="#D4D4D4"/>
<path fill-rule="evenodd" clip-rule="evenodd" d="M18.2685 7.77121C18.8601 7.77121 19.3399 7.29152 19.3399 6.69979C19.3399 6.10807 18.8601 5.62836 18.2685 5.62836H9.68544C9.09372 5.62836 8.61401 6.10807 8.61401 6.69979C8.61401 7.29152 9.09372 7.77121 9.68544 7.77121H18.2685ZM18.2685 12.2126C18.8601 12.2126 19.3399 11.7329 19.3399 11.1412C19.3399 10.5495 18.8601 10.0698 18.2685 10.0698H13.8104C13.2187 10.0698 12.739 10.5495 12.739 11.1412C12.739 11.7329 13.2187 12.2126 13.8104 12.2126H18.2685Z" fill="#838383"/>
<path fill-rule="evenodd" clip-rule="evenodd" d="M6.00073 12C4.19725 12 2.66724 12.5099 1.58893 13.5882C0.510616 14.6665 0.000732422 16.1965 0.000732422 18C0.000732422 19.8034 0.510616 21.3334 1.58893 22.4119C2.66724 23.4902 4.19725 24 6.00073 24C7.80421 24 9.33423 23.4902 10.4125 22.4119C11.4909 21.3334 12.0007 19.8034 12.0007 18C12.0007 16.1965 11.4909 14.6665 10.4125 13.5882C9.33423 12.5099 7.80421 12 6.00073 12Z" fill="#838383"/>
<path fill-rule="evenodd" clip-rule="evenodd" d="M8.10064 15.8998C8.51906 16.3182 8.51906 16.9966 8.10064 17.4149L6.80353 18.7121C6.3851 19.1306 5.70671 19.1306 5.2883 18.7121C4.86988 18.2937 4.86988 17.6153 5.2883 17.1969L6.58542 15.8998C7.00382 15.4813 7.68222 15.4813 8.10064 15.8998Z" fill="#D4D4D4"/>
</g>
<defs>
<clipPath id="clip0_346_1099">
<rect width="24" height="24" fill="white" transform="translate(0.000732422)"/>
</clipPath>
</defs>
</svg>
