<svg width="48" height="48" viewBox="0 0 48 48" fill="none" xmlns="http://www.w3.org/2000/svg">
<circle cx="24" cy="24" r="23.5" fill="white" stroke="#EDEDED"/>
<path fill-rule="evenodd" clip-rule="evenodd" d="M30.0142 11.0298L35.0923 12.2017C35.6245 12.3238 36.0005 12.7974 36.0005 13.3443C36.0005 25.8687 25.8491 36.0005 13.3443 36.0005C12.7925 36.0005 12.3238 35.6197 12.2017 35.0923L11.0298 30.0142C10.9029 29.4624 11.1909 28.896 11.7134 28.6665L17.1821 26.3228C17.6607 26.1177 18.2173 26.2544 18.5493 26.6597L20.9712 29.6187C24.7945 27.8267 27.8657 24.7115 29.6236 20.9663L26.6646 18.5445C26.2593 18.2173 26.1226 17.6558 26.3277 17.1773L28.6714 11.7085C28.896 11.191 29.4624 10.9029 30.0142 11.0298ZM17.9659 28.0435C17.6873 27.7185 17.2328 27.6069 16.8353 27.7658L13.0055 29.2972C12.5441 29.4818 12.2882 29.9772 12.4047 30.4603L13.3123 34.2222C13.4221 34.6769 13.8332 34.9976 14.3002 34.9708C25.2985 34.3391 34.8301 24.3212 35.0044 14.2498C35.0121 13.8055 34.7044 13.423 34.2744 13.311L30.8149 12.4102C30.3503 12.2892 29.8653 12.5155 29.6595 12.9492L27.8277 16.8095C27.6342 17.2171 27.7377 17.7038 28.0803 17.9974L30.4094 19.9938C30.7568 20.2915 30.8576 20.7896 30.6498 21.1972C28.258 25.8873 26.4782 27.8076 21.2043 30.6286C20.7944 30.8478 20.2859 30.7502 19.9833 30.3972L17.9659 28.0435Z" fill="#E36F00"/>
</svg>
