<svg width="13" height="10" viewBox="0 0 13 10" fill="none" xmlns="http://www.w3.org/2000/svg">
<path d="M7 0C7.09252 0 7.18125 0.0367524 7.24666 0.102172C7.31208 0.167592 7.34884 0.25632 7.34884 0.348837V0.813954C7.34884 0.906471 7.31208 0.995199 7.24666 1.06062C7.18125 1.12604 7.09252 1.16279 7 1.16279C6.90748 1.16279 6.81875 1.12604 6.75334 1.06062C6.68792 0.995199 6.65116 0.906471 6.65116 0.813954V0.348837C6.65116 0.25632 6.68792 0.167592 6.75334 0.102172C6.81875 0.0367524 6.90748 0 7 0ZM7 2.32558C6.2907 2.32558 5.61045 2.60735 5.1089 3.1089C4.60735 3.61045 4.32558 4.2907 4.32558 5C4.32558 5.7093 4.60735 6.38955 5.1089 6.8911C5.61045 7.39265 6.2907 7.67442 7 7.67442C7.7093 7.67442 8.38955 7.39265 8.8911 6.8911C9.39265 6.38955 9.67442 5.7093 9.67442 5C9.67442 4.2907 9.39265 3.61045 8.8911 3.1089C8.38955 2.60735 7.7093 2.32558 7 2.32558ZM3.95814 1.46465C3.89238 1.40108 3.80428 1.36587 3.71281 1.36662C3.62135 1.36738 3.53384 1.40402 3.46913 1.46867C3.40442 1.53332 3.36769 1.62079 3.36686 1.71226C3.36602 1.80372 3.40114 1.89185 3.46465 1.95767L3.79349 2.28651C3.82542 2.32078 3.86394 2.34827 3.90673 2.36734C3.94952 2.38641 3.99571 2.39666 4.04255 2.39748C4.08939 2.39831 4.13591 2.38969 4.17935 2.37215C4.22278 2.35461 4.26224 2.32849 4.29537 2.29537C4.32849 2.26224 4.35461 2.22278 4.37215 2.17935C4.38969 2.13591 4.39831 2.08939 4.39748 2.04255C4.39666 1.99571 4.38641 1.94952 4.36734 1.90673C4.34827 1.86394 4.32078 1.82542 4.28651 1.79349L3.95814 1.46465ZM12 5C12 5.09252 11.9632 5.18125 11.8978 5.24666C11.8324 5.31208 11.7437 5.34884 11.6512 5.34884H11.186C11.0935 5.34884 11.0048 5.31208 10.9394 5.24666C10.874 5.18125 10.8372 5.09252 10.8372 5C10.8372 4.90748 10.874 4.81875 10.9394 4.75334C11.0048 4.68792 11.0935 4.65116 11.186 4.65116H11.6512C11.7437 4.65116 11.8324 4.68792 11.8978 4.75334C11.9632 4.81875 12 4.90748 12 5ZM10.5353 1.95814C10.5687 1.92598 10.5953 1.8875 10.6136 1.84495C10.6319 1.80239 10.6415 1.75662 10.6419 1.71031C10.6424 1.66399 10.6336 1.61805 10.616 1.57517C10.5985 1.53229 10.5726 1.49333 10.5399 1.46056C10.5072 1.42779 10.4682 1.40187 10.4254 1.38431C10.3825 1.36675 10.3366 1.35791 10.2903 1.35829C10.2439 1.35867 10.1982 1.36827 10.1556 1.38653C10.113 1.40479 10.0745 1.43135 10.0423 1.46465L9.71349 1.79349C9.67922 1.82542 9.65173 1.86394 9.63266 1.90673C9.61359 1.94952 9.60334 1.99571 9.60252 2.04255C9.60169 2.08939 9.61031 2.13591 9.62785 2.17935C9.64539 2.22278 9.67151 2.26224 9.70463 2.29537C9.73776 2.32849 9.77722 2.35461 9.82065 2.37215C9.86409 2.38969 9.91061 2.39831 9.95745 2.39748C10.0043 2.39666 10.0505 2.38641 10.0933 2.36734C10.1361 2.34827 10.1746 2.32078 10.2065 2.28651L10.5353 1.95814ZM7 8.83721C7.09252 8.83721 7.18125 8.87396 7.24666 8.93938C7.31208 9.0048 7.34884 9.09353 7.34884 9.18605V9.65116C7.34884 9.74368 7.31208 9.83241 7.24666 9.89783C7.18125 9.96325 7.09252 10 7 10C6.90748 10 6.81875 9.96325 6.75334 9.89783C6.68792 9.83241 6.65116 9.74368 6.65116 9.65116V9.18605C6.65116 9.09353 6.68792 9.0048 6.75334 8.93938C6.81875 8.87396 6.90748 8.83721 7 8.83721ZM10.2065 7.71349C10.1746 7.67922 10.1361 7.65173 10.0933 7.63266C10.0505 7.61359 10.0043 7.60334 9.95745 7.60252C9.91061 7.60169 9.86409 7.61031 9.82065 7.62785C9.77722 7.64539 9.73776 7.67151 9.70463 7.70463C9.67151 7.73776 9.64539 7.77722 9.62785 7.82065C9.61031 7.86409 9.60169 7.91061 9.60252 7.95745C9.60334 8.00429 9.61359 8.05048 9.63266 8.09327C9.65173 8.13606 9.67922 8.17458 9.71349 8.20651L10.0423 8.53535C10.0743 8.56962 10.1128 8.59711 10.1556 8.61618C10.1984 8.63524 10.2445 8.6455 10.2914 8.64632C10.3382 8.64715 10.3847 8.63853 10.4282 8.62099C10.4716 8.60344 10.5111 8.57733 10.5442 8.5442C10.5773 8.51108 10.6034 8.47162 10.621 8.42818C10.6385 8.38475 10.6471 8.33822 10.6463 8.29138C10.6455 8.24455 10.6352 8.19835 10.6162 8.15556C10.5971 8.11277 10.5696 8.07426 10.5353 8.04233L10.2065 7.71349ZM3.16279 5C3.16279 5.09252 3.12604 5.18125 3.06062 5.24666C2.9952 5.31208 2.90647 5.34884 2.81395 5.34884H2.34884C2.25632 5.34884 2.16759 5.31208 2.10217 5.24666C2.03675 5.18125 2 5.09252 2 5C2 4.90748 2.03675 4.81875 2.10217 4.75334C2.16759 4.68792 2.25632 4.65116 2.34884 4.65116H2.81395C2.90647 4.65116 2.9952 4.68792 3.06062 4.75334C3.12604 4.81875 3.16279 4.90748 3.16279 5ZM4.28651 8.20651C4.34813 8.14038 4.38168 8.05292 4.38008 7.96255C4.37849 7.87218 4.34188 7.78595 4.27796 7.72204C4.21405 7.65812 4.12783 7.62151 4.03745 7.61992C3.94708 7.61832 3.85962 7.65187 3.79349 7.71349L3.46465 8.04233C3.40303 8.10845 3.36949 8.19592 3.37108 8.28629C3.37268 8.37666 3.40929 8.46289 3.4732 8.5268C3.53711 8.59071 3.62334 8.62732 3.71371 8.62892C3.80408 8.63051 3.89155 8.59697 3.95767 8.53535L4.28651 8.20651Z" fill="#DE2901"/>
</svg>
