<svg width="393" height="169" viewBox="0 0 393 169" fill="none" xmlns="http://www.w3.org/2000/svg">
<mask id="path-1-inside-1_276_368" fill="white">
<path d="M0 0H393V169H0V0Z"/>
</mask>
<path d="M0 0H393V169H0V0Z" fill="#01674F"/>
<path d="M393 165H0V173H393V165Z" fill="white" fill-opacity="0.2" mask="url(#path-1-inside-1_276_368)"/>
<g opacity="0.05">
<path d="M221.734 117.391C221.913 116.423 220.075 115.626 218.694 115.543C218.035 115.504 217.351 115.579 216.727 115.417C215.374 115.067 214.834 113.768 213.515 113.354C212.529 113.045 211.393 113.32 210.437 113.678C209.48 114.036 208.535 114.486 207.467 114.537C206.538 114.581 205.529 114.325 204.716 114.662C204.11 114.914 203.792 115.433 203.234 115.739C202.688 116.039 201.975 116.102 201.298 116.13C200.62 116.157 199.918 116.162 199.301 116.372C198.684 116.582 198.173 117.068 198.301 117.563L221.734 117.391Z" fill="#4B4B4B"/>
<path d="M252.517 114.421C252.696 113.453 250.858 112.656 249.476 112.573C248.818 112.534 248.134 112.609 247.509 112.447C246.157 112.096 245.617 110.798 244.298 110.384C243.311 110.074 242.176 110.35 241.22 110.708C240.263 111.065 239.318 111.516 238.25 111.567C237.321 111.611 236.312 111.354 235.499 111.692C234.893 111.943 234.576 112.463 234.017 112.769C233.471 113.068 232.758 113.132 232.081 113.159C231.403 113.187 230.701 113.192 230.084 113.402C229.467 113.612 228.956 114.097 229.084 114.593L252.517 114.421Z" fill="#63CAE1"/>
<path d="M163.577 103.964H141.861V165.737H163.577V103.964Z" fill="#63CAE1"/>
<path d="M163.578 103.964H152.721V165.584H163.578V103.964Z" fill="#4B4B4B"/>
<path d="M152.008 99.3618H144.34V103.963H152.008V99.3618Z" fill="#63CAE1"/>
<path d="M152.011 99.3618H150.183V103.963H152.011V99.3618Z" fill="#4B4B4B"/>
<path d="M140.053 103.966V103.698H164.214V103.966" fill="#086E86"/>
<path d="M147.986 105.969H146.148V108.609H147.986V105.969Z" fill="#1B5664"/>
<path d="M152.717 109.646C152.717 109.674 150.286 109.696 147.289 109.696C144.29 109.696 141.859 109.674 141.859 109.646C141.859 109.618 144.29 109.596 147.289 109.596C150.286 109.596 152.717 109.618 152.717 109.646Z" fill="#086E86"/>
<path d="M158.937 105.968H157.099V108.608H158.937V105.968Z" fill="#086E86"/>
<path d="M163.671 109.643C163.671 109.671 161.24 109.693 158.242 109.693C155.243 109.693 152.812 109.671 152.812 109.643C152.812 109.615 155.243 109.593 158.242 109.593C161.24 109.593 163.671 109.615 163.671 109.643Z" fill="#086E86"/>
<path d="M158.938 111.206H157.1V113.846H158.938V111.206Z" fill="#086E86"/>
<path d="M163.671 114.881C163.671 114.909 161.24 114.931 158.242 114.931C155.243 114.931 152.812 114.909 152.812 114.881C152.812 114.853 155.243 114.831 158.242 114.831C161.24 114.831 163.671 114.853 163.671 114.881Z" fill="#086E86"/>
<path d="M158.938 116.614H157.1V119.253H158.938V116.614Z" fill="#086E86"/>
<path d="M163.673 120.281C163.673 120.309 161.242 120.332 158.244 120.332C155.245 120.332 152.814 120.309 152.814 120.281C152.814 120.253 155.245 120.231 158.244 120.231C161.242 120.231 163.673 120.253 163.673 120.281Z" fill="#086E86"/>
<path d="M158.938 122.011H157.1V124.651H158.938V122.011Z" fill="#086E86"/>
<path d="M163.671 125.687C163.671 125.715 161.24 125.738 158.242 125.738C155.243 125.738 152.812 125.715 152.812 125.687C152.812 125.659 155.243 125.637 158.242 125.637C161.24 125.637 163.671 125.66 163.671 125.687Z" fill="#086E86"/>
<path d="M158.938 127.251H157.1V129.89H158.938V127.251Z" fill="#086E86"/>
<path d="M163.671 130.926C163.671 130.954 161.24 130.976 158.242 130.976C155.243 130.976 152.812 130.954 152.812 130.926C152.812 130.898 155.243 130.876 158.242 130.876C161.24 130.876 163.671 130.898 163.671 130.926Z" fill="#086E86"/>
<path d="M158.938 132.515H157.1V135.155H158.938V132.515Z" fill="#086E86"/>
<path d="M158.938 137.853H157.1V140.492H158.938V137.853Z" fill="#086E86"/>
<path d="M163.671 136.189C163.671 136.217 161.24 136.24 158.242 136.24C155.243 136.24 152.812 136.217 152.812 136.189C152.812 136.162 155.243 136.139 158.242 136.139C161.24 136.139 163.671 136.162 163.671 136.189Z" fill="#086E86"/>
<path d="M147.986 111.287H146.148V113.926H147.986V111.287Z" fill="#1B5664"/>
<path d="M152.717 114.963C152.717 114.991 150.286 115.014 147.289 115.014C144.29 115.014 141.859 114.991 141.859 114.963C141.859 114.936 144.29 114.913 147.289 114.913C150.286 114.913 152.717 114.936 152.717 114.963Z" fill="#086E86"/>
<path d="M147.986 116.613H146.148V119.253H147.986V116.613Z" fill="#1B5664"/>
<path d="M152.717 120.29C152.717 120.317 150.286 120.34 147.289 120.34C144.29 120.34 141.859 120.317 141.859 120.29C141.859 120.262 144.29 120.239 147.289 120.239C150.286 120.239 152.717 120.262 152.717 120.29Z" fill="#086E86"/>
<path d="M147.986 121.932H146.148V124.571H147.986V121.932Z" fill="#1B5664"/>
<path d="M152.717 125.608C152.717 125.636 150.286 125.658 147.289 125.658C144.29 125.658 141.859 125.636 141.859 125.608C141.859 125.58 144.29 125.557 147.289 125.557C150.286 125.557 152.717 125.58 152.717 125.608Z" fill="#086E86"/>
<path d="M147.986 127.251H146.148V129.89H147.986V127.251Z" fill="#1B5664"/>
<path d="M152.717 130.927C152.717 130.955 150.286 130.978 147.289 130.978C144.29 130.978 141.859 130.955 141.859 130.927C141.859 130.899 144.29 130.877 147.289 130.877C150.286 130.877 152.717 130.899 152.717 130.927Z" fill="#086E86"/>
<path d="M147.986 132.571H146.148V135.211H147.986V132.571Z" fill="#1B5664"/>
<path d="M152.717 136.245C152.717 136.272 150.286 136.295 147.289 136.295C144.29 136.295 141.859 136.272 141.859 136.245C141.859 136.217 144.29 136.194 147.289 136.194C150.286 136.194 152.717 136.217 152.717 136.245Z" fill="#086E86"/>
<path d="M147.986 137.895H146.148V140.534H147.986V137.895Z" fill="#1B5664"/>
<path d="M235.567 105.082H219.025V140.783H235.567V105.082Z" fill="#63CAE1"/>
<path d="M235.564 105.082H227.293V140.685H235.564V105.082Z" fill="#4B4B4B"/>
<path d="M226.753 101.578H220.912V105.083H226.753V101.578Z" fill="#63CAE1"/>
<path d="M226.756 101.578H225.363V105.083H226.756V101.578Z" fill="#4B4B4B"/>
<path d="M217.646 105.083V104.879H236.051V105.083" fill="#086E86"/>
<path d="M223.689 106.613H222.289V108.624H223.689V106.613Z" fill="#1B5664"/>
<path d="M227.296 109.415C227.296 109.436 225.444 109.453 223.161 109.453C220.876 109.453 219.025 109.436 219.025 109.415C219.025 109.394 220.877 109.376 223.161 109.376C225.445 109.376 227.296 109.394 227.296 109.415Z" fill="#086E86"/>
<path d="M232.033 106.614H230.633V108.624H232.033V106.614Z" fill="#086E86"/>
<path d="M235.638 109.415C235.638 109.436 233.786 109.453 231.503 109.453C229.218 109.453 227.367 109.436 227.367 109.415C227.367 109.394 229.219 109.377 231.503 109.377C233.786 109.377 235.638 109.394 235.638 109.415Z" fill="#086E86"/>
<path d="M232.031 110.602H230.631V112.613H232.031V110.602Z" fill="#086E86"/>
<path d="M235.638 113.402C235.638 113.423 233.786 113.44 231.503 113.44C229.218 113.44 227.367 113.423 227.367 113.402C227.367 113.38 229.219 113.363 231.503 113.363C233.786 113.363 235.638 113.381 235.638 113.402Z" fill="#086E86"/>
<path d="M232.031 114.72H230.631V116.73H232.031V114.72Z" fill="#086E86"/>
<path d="M235.638 117.515C235.638 117.536 233.786 117.553 231.503 117.553C229.218 117.553 227.367 117.536 227.367 117.515C227.367 117.494 229.219 117.477 231.503 117.477C233.786 117.477 235.638 117.494 235.638 117.515Z" fill="#086E86"/>
<path d="M232.029 118.829H230.629V120.84H232.029V118.829Z" fill="#086E86"/>
<path d="M235.634 121.623C235.634 121.645 233.782 121.662 231.499 121.662C229.214 121.662 227.363 121.645 227.363 121.623C227.363 121.602 229.215 121.585 231.499 121.585C233.783 121.585 235.634 121.602 235.634 121.623Z" fill="#086E86"/>
<path d="M232.031 122.819H230.631V124.83H232.031V122.819Z" fill="#086E86"/>
<path d="M235.638 125.622C235.638 125.643 233.786 125.66 231.503 125.66C229.218 125.66 227.367 125.643 227.367 125.622C227.367 125.601 229.219 125.584 231.503 125.584C233.786 125.584 235.638 125.601 235.638 125.622Z" fill="#086E86"/>
<path d="M232.029 126.834H230.629V128.845H232.029V126.834Z" fill="#086E86"/>
<path d="M232.029 130.9H230.629V132.91H232.029V130.9Z" fill="#086E86"/>
<path d="M235.634 129.636C235.634 129.657 233.782 129.674 231.499 129.674C229.214 129.674 227.363 129.657 227.363 129.636C227.363 129.614 229.215 129.597 231.499 129.597C233.783 129.597 235.634 129.615 235.634 129.636Z" fill="#086E86"/>
<path d="M223.689 110.666H222.289V112.676H223.689V110.666Z" fill="#1B5664"/>
<path d="M227.296 113.46C227.296 113.481 225.444 113.499 223.161 113.499C220.876 113.499 219.025 113.481 219.025 113.46C219.025 113.439 220.877 113.422 223.161 113.422C225.445 113.422 227.296 113.439 227.296 113.46Z" fill="#086E86"/>
<path d="M223.689 114.719H222.289V116.73H223.689V114.719Z" fill="#1B5664"/>
<path d="M227.296 117.514C227.296 117.536 225.444 117.553 223.161 117.553C220.876 117.553 219.025 117.536 219.025 117.514C219.025 117.493 220.877 117.476 223.161 117.476C225.445 117.476 227.296 117.493 227.296 117.514Z" fill="#086E86"/>
<path d="M223.689 118.773H222.289V120.784H223.689V118.773Z" fill="#1B5664"/>
<path d="M227.296 121.569C227.296 121.59 225.444 121.607 223.161 121.607C220.876 121.607 219.025 121.59 219.025 121.569C219.025 121.548 220.877 121.531 223.161 121.531C225.445 121.531 227.296 121.548 227.296 121.569Z" fill="#086E86"/>
<path d="M223.689 122.82H222.289V124.83H223.689V122.82Z" fill="#1B5664"/>
<path d="M227.296 125.622C227.296 125.644 225.444 125.661 223.161 125.661C220.876 125.661 219.025 125.644 219.025 125.622C219.025 125.601 220.877 125.584 223.161 125.584C225.445 125.584 227.296 125.601 227.296 125.622Z" fill="#086E86"/>
<path d="M223.689 126.874H222.289V128.885H223.689V126.874Z" fill="#1B5664"/>
<path d="M227.296 129.676C227.296 129.697 225.444 129.714 223.161 129.714C220.876 129.714 219.025 129.697 219.025 129.676C219.025 129.655 220.877 129.638 223.161 129.638C225.445 129.638 227.296 129.655 227.296 129.676Z" fill="#086E86"/>
<path d="M223.691 130.928H222.291V132.939H223.691V130.928Z" fill="#1B5664"/>
<path d="M254.67 122.204H234.48V165.777H254.67V122.204Z" fill="#63CAE1"/>
<path d="M254.671 122.204H244.576V165.657H254.671V122.204Z" fill="#4B4B4B"/>
<path d="M243.915 117.929H236.785V122.207H243.915V117.929Z" fill="#63CAE1"/>
<path d="M243.914 117.929H242.215V122.207H243.914V117.929Z" fill="#4B4B4B"/>
<path d="M232.797 122.207V121.958H255.259V122.207" fill="#086E86"/>
<path d="M240.175 124.07H238.467V126.524H240.175V124.07Z" fill="#1B5664"/>
<path d="M244.575 127.487C244.575 127.513 242.315 127.534 239.528 127.534C236.74 127.534 234.48 127.513 234.48 127.487C234.48 127.461 236.74 127.44 239.528 127.44C242.315 127.44 244.575 127.461 244.575 127.487Z" fill="#086E86"/>
<path d="M250.356 124.07H248.646V126.524H250.356V124.07Z" fill="#086E86"/>
<path d="M254.759 127.486C254.759 127.511 252.499 127.532 249.712 127.532C246.923 127.532 244.664 127.511 244.664 127.486C244.664 127.46 246.924 127.439 249.712 127.439C252.499 127.439 254.759 127.46 254.759 127.486Z" fill="#086E86"/>
<path d="M250.356 128.943H248.646V131.397H250.356V128.943Z" fill="#086E86"/>
<path d="M254.759 132.36C254.759 132.386 252.499 132.407 249.712 132.407C246.923 132.407 244.664 132.386 244.664 132.36C244.664 132.334 246.924 132.313 249.712 132.313C252.499 132.313 254.759 132.334 254.759 132.36Z" fill="#086E86"/>
<path d="M250.356 133.965H248.646V136.419H250.356V133.965Z" fill="#086E86"/>
<path d="M254.755 137.379C254.755 137.405 252.495 137.426 249.708 137.426C246.919 137.426 244.66 137.405 244.66 137.379C244.66 137.354 246.92 137.333 249.708 137.333C252.495 137.333 254.755 137.354 254.755 137.379Z" fill="#086E86"/>
<path d="M250.356 138.985H248.646V141.439H250.356V138.985Z" fill="#086E86"/>
<path d="M254.755 142.401C254.755 142.426 252.495 142.447 249.708 142.447C246.919 142.447 244.66 142.426 244.66 142.401C244.66 142.375 246.92 142.354 249.708 142.354C252.495 142.354 254.755 142.375 254.755 142.401Z" fill="#086E86"/>
<path d="M250.356 143.86H248.646V146.314H250.356V143.86Z" fill="#086E86"/>
<path d="M254.755 147.277C254.755 147.302 252.495 147.323 249.708 147.323C246.919 147.323 244.66 147.302 244.66 147.277C244.66 147.251 246.92 147.23 249.708 147.23C252.495 147.23 254.755 147.251 254.755 147.277Z" fill="#086E86"/>
<path d="M250.357 148.758H248.648V151.212H250.357V148.758Z" fill="#086E86"/>
<path d="M250.357 153.714H248.648V156.168H250.357V153.714Z" fill="#086E86"/>
<path d="M254.755 152.175C254.755 152.201 252.495 152.222 249.708 152.222C246.919 152.222 244.66 152.201 244.66 152.175C244.66 152.15 246.92 152.129 249.708 152.129C252.495 152.129 254.755 152.15 254.755 152.175Z" fill="#086E86"/>
<path d="M240.175 129.02H238.467V131.474H240.175V129.02Z" fill="#1B5664"/>
<path d="M244.575 132.438C244.575 132.464 242.315 132.485 239.528 132.485C236.74 132.485 234.48 132.464 234.48 132.438C234.48 132.412 236.74 132.391 239.528 132.391C242.315 132.391 244.575 132.412 244.575 132.438Z" fill="#086E86"/>
<path d="M240.175 133.965H238.467V136.419H240.175V133.965Z" fill="#1B5664"/>
<path d="M244.575 137.382C244.575 137.408 242.315 137.429 239.528 137.429C236.74 137.429 234.48 137.408 234.48 137.382C234.48 137.356 236.74 137.335 239.528 137.335C242.315 137.335 244.575 137.356 244.575 137.382Z" fill="#086E86"/>
<path d="M240.175 138.908H238.467V141.362H240.175V138.908Z" fill="#1B5664"/>
<path d="M244.575 142.333C244.575 142.359 242.315 142.38 239.528 142.38C236.74 142.38 234.48 142.359 234.48 142.333C234.48 142.308 236.74 142.287 239.528 142.287C242.315 142.286 244.575 142.308 244.575 142.333Z" fill="#086E86"/>
<path d="M240.175 143.86H238.467V146.314H240.175V143.86Z" fill="#1B5664"/>
<path d="M244.575 147.275C244.575 147.301 242.315 147.322 239.528 147.322C236.74 147.322 234.48 147.301 234.48 147.275C234.48 147.25 236.74 147.229 239.528 147.229C242.315 147.229 244.575 147.25 244.575 147.275Z" fill="#086E86"/>
<path d="M240.175 148.804H238.467V151.258H240.175V148.804Z" fill="#1B5664"/>
<path d="M244.575 152.22C244.575 152.245 242.315 152.266 239.528 152.266C236.74 152.266 234.48 152.245 234.48 152.22C234.48 152.194 236.74 152.173 239.528 152.173C242.315 152.173 244.575 152.194 244.575 152.22Z" fill="#086E86"/>
<path d="M240.177 153.753H238.469V156.207H240.177V153.753Z" fill="#1B5664"/>
<path d="M234.97 134.648H200.314V165.776H234.97V134.648Z" fill="#4B4B4B"/>
<path d="M234.972 134.648H218.723V165.776H234.972V134.648Z" fill="#086E86"/>
<path d="M210.698 138.863H207.582V144.018H210.698V138.863Z" fill="#63CAE1"/>
<path d="M210.698 159.042H207.582V164.197H210.698V159.042Z" fill="#63CAE1"/>
<path d="M218.723 146.045C218.723 146.103 214.602 146.15 209.52 146.15C204.436 146.15 200.316 146.103 200.316 146.045C200.316 145.987 204.436 145.94 209.52 145.94C214.602 145.94 218.723 145.987 218.723 146.045Z" fill="#63CAE1"/>
<path d="M210.7 149.029H207.584V154.185H210.7V149.029Z" fill="#63CAE1"/>
<path d="M218.721 156.206C218.721 156.264 214.6 156.311 209.518 156.311C204.434 156.311 200.314 156.264 200.314 156.206C200.314 156.148 204.434 156.101 209.518 156.101C214.6 156.101 218.721 156.148 218.721 156.206Z" fill="#63CAE1"/>
<path d="M225.29 138.863H222.174V144.018H225.29V138.863Z" fill="#63CAE1"/>
<path d="M232.05 138.863H228.934V144.018H232.05V138.863Z" fill="#63CAE1"/>
<path d="M225.29 148.649H222.174V153.804H225.29V148.649Z" fill="#63CAE1"/>
<path d="M232.05 148.649H228.934V153.804H232.05V148.649Z" fill="#63CAE1"/>
<path d="M225.29 158.429H222.174V163.584H225.29V158.429Z" fill="#63CAE1"/>
<path d="M232.05 158.429H228.934V163.584H232.05V158.429Z" fill="#63CAE1"/>
<path d="M237.575 133.563H197.709V134.685H237.575V133.563Z" fill="#086E86"/>
<path d="M235.212 134.793C235.212 134.851 227.466 134.898 217.913 134.898C208.358 134.898 200.613 134.851 200.613 134.793C200.613 134.735 208.358 134.689 217.913 134.689C227.466 134.689 235.212 134.736 235.212 134.793Z" fill="#4B4B4B"/>
<path d="M122.527 118.995H100.811V165.863H122.527V118.995Z" fill="#63CAE1"/>
<path d="M122.526 118.995H111.668V165.734H122.526V118.995Z" fill="#4B4B4B"/>
<path d="M110.956 114.398H103.287V118.999H110.956V114.398Z" fill="#63CAE1"/>
<path d="M110.957 114.398H109.129V118.999H110.957V114.398Z" fill="#4B4B4B"/>
<path d="M99 118.996V118.727H123.161V118.996" fill="#086E86"/>
<path d="M106.934 121.004H105.096V123.644H106.934V121.004Z" fill="#1B5664"/>
<path d="M111.667 124.683C111.667 124.71 109.236 124.733 106.238 124.733C103.239 124.733 100.809 124.71 100.809 124.683C100.809 124.655 103.239 124.632 106.238 124.632C109.236 124.632 111.667 124.655 111.667 124.683Z" fill="#086E86"/>
<path d="M117.887 121.005H116.049V123.644H117.887V121.005Z" fill="#086E86"/>
<path d="M122.62 124.681C122.62 124.709 120.189 124.732 117.191 124.732C114.192 124.732 111.762 124.709 111.762 124.681C111.762 124.653 114.192 124.631 117.191 124.631C120.189 124.631 122.62 124.653 122.62 124.681Z" fill="#086E86"/>
<path d="M117.887 126.244H116.049V128.884H117.887V126.244Z" fill="#086E86"/>
<path d="M122.62 129.919C122.62 129.947 120.189 129.969 117.191 129.969C114.192 129.969 111.762 129.947 111.762 129.919C111.762 129.891 114.192 129.868 117.191 129.868C120.189 129.868 122.62 129.891 122.62 129.919Z" fill="#086E86"/>
<path d="M117.887 131.642H116.049V134.282H117.887V131.642Z" fill="#086E86"/>
<path d="M122.62 135.317C122.62 135.345 120.189 135.367 117.191 135.367C114.192 135.367 111.762 135.345 111.762 135.317C111.762 135.289 114.192 135.266 117.191 135.266C120.189 135.266 122.62 135.289 122.62 135.317Z" fill="#086E86"/>
<path d="M117.887 137.04H116.049V139.679H117.887V137.04Z" fill="#086E86"/>
<path d="M122.62 140.715C122.62 140.743 120.189 140.765 117.191 140.765C114.192 140.765 111.762 140.743 111.762 140.715C111.762 140.687 114.192 140.665 117.191 140.665C120.189 140.665 122.62 140.687 122.62 140.715Z" fill="#086E86"/>
<path d="M117.887 142.287H116.049V144.926H117.887V142.287Z" fill="#086E86"/>
<path d="M122.62 145.962C122.62 145.99 120.189 146.013 117.191 146.013C114.192 146.013 111.762 145.99 111.762 145.962C111.762 145.934 114.192 145.912 117.191 145.912C120.189 145.912 122.62 145.935 122.62 145.962Z" fill="#086E86"/>
<path d="M117.887 147.552H116.049V150.191H117.887V147.552Z" fill="#086E86"/>
<path d="M117.887 152.884H116.049V155.523H117.887V152.884Z" fill="#086E86"/>
<path d="M122.62 151.227C122.62 151.254 120.189 151.277 117.191 151.277C114.192 151.277 111.762 151.254 111.762 151.227C111.762 151.199 114.192 151.176 117.191 151.176C120.189 151.176 122.62 151.199 122.62 151.227Z" fill="#086E86"/>
<path d="M106.934 126.325H105.096V128.965H106.934V126.325Z" fill="#1B5664"/>
<path d="M111.669 130C111.669 130.028 109.238 130.051 106.24 130.051C103.241 130.051 100.811 130.028 100.811 130C100.811 129.972 103.241 129.95 106.24 129.95C109.238 129.95 111.669 129.972 111.669 130Z" fill="#086E86"/>
<path d="M106.934 131.643H105.096V134.282H106.934V131.643Z" fill="#1B5664"/>
<path d="M111.667 135.318C111.667 135.346 109.236 135.369 106.238 135.369C103.239 135.369 100.809 135.346 100.809 135.318C100.809 135.29 103.239 135.268 106.238 135.268C109.236 135.268 111.667 135.29 111.667 135.318Z" fill="#086E86"/>
<path d="M106.934 136.962H105.096V139.602H106.934V136.962Z" fill="#1B5664"/>
<path d="M111.669 140.645C111.669 140.673 109.238 140.696 106.24 140.696C103.241 140.696 100.811 140.673 100.811 140.645C100.811 140.617 103.241 140.595 106.24 140.595C109.238 140.595 111.669 140.618 111.669 140.645Z" fill="#086E86"/>
<path d="M106.934 142.285H105.096V144.925H106.934V142.285Z" fill="#1B5664"/>
<path d="M111.667 145.962C111.667 145.99 109.236 146.012 106.238 146.012C103.239 146.012 100.809 145.99 100.809 145.962C100.809 145.934 103.239 145.911 106.238 145.911C109.236 145.912 111.667 145.934 111.667 145.962Z" fill="#086E86"/>
<path d="M106.934 147.607H105.096V150.246H106.934V147.607Z" fill="#1B5664"/>
<path d="M111.669 151.282C111.669 151.31 109.238 151.332 106.24 151.332C103.241 151.332 100.811 151.31 100.811 151.282C100.811 151.254 103.241 151.232 106.24 151.232C109.238 151.232 111.669 151.254 111.669 151.282Z" fill="#086E86"/>
<path d="M106.934 152.924H105.096V155.564H106.934V152.924Z" fill="#1B5664"/>
<path d="M158.14 165.672H126.184L126.045 131.279H158L158.14 165.672Z" fill="#4B4B4B"/>
<path d="M158.003 131.279H142.025V165.672H158.003V131.279Z" fill="#292929"/>
<path d="M140.978 124.509H129.693V131.28H140.978V124.509Z" fill="#4B4B4B"/>
<path d="M140.978 124.509H138.289V131.28H140.978V124.509Z" fill="#086E86"/>
<path d="M158.937 130.887H123.383V131.282H158.937V130.887Z" fill="#086E86"/>
<path d="M135.058 134.233H132.354V138.117H135.058V134.233Z" fill="#63CAE1"/>
<path d="M142.021 139.639C142.021 139.68 138.444 139.713 134.032 139.713C129.619 139.713 126.043 139.68 126.043 139.639C126.043 139.598 129.619 139.565 134.032 139.565C138.444 139.565 142.021 139.598 142.021 139.639Z" fill="#086E86"/>
<path d="M151.176 134.233H148.471V138.117H151.176V134.233Z" fill="#63CAE1"/>
<path d="M158.14 139.647C158.14 139.688 154.563 139.721 150.151 139.721C145.738 139.721 142.162 139.688 142.162 139.647C142.162 139.606 145.738 139.573 150.151 139.573C154.563 139.573 158.14 139.606 158.14 139.647Z" fill="#4B4B4B"/>
<path d="M151.176 141.95H148.471V145.834H151.176V141.95Z" fill="#63CAE1"/>
<path d="M158.14 147.357C158.14 147.398 154.563 147.432 150.151 147.432C145.738 147.432 142.162 147.398 142.162 147.357C142.162 147.317 145.738 147.283 150.151 147.283C154.563 147.283 158.14 147.316 158.14 147.357Z" fill="#4B4B4B"/>
<path d="M151.176 149.889H148.471V153.773H151.176V149.889Z" fill="#63CAE1"/>
<path d="M158.144 155.295C158.144 155.336 154.567 155.369 150.155 155.369C145.742 155.369 142.166 155.336 142.166 155.295C142.166 155.254 145.742 155.221 150.155 155.221C154.567 155.221 158.144 155.254 158.144 155.295Z" fill="#4B4B4B"/>
<path d="M151.176 157.835H148.471V161.719H151.176V157.835Z" fill="#63CAE1"/>
<path d="M158.14 163.241C158.14 163.282 154.563 163.315 150.151 163.315C145.738 163.315 142.162 163.282 142.162 163.241C142.162 163.2 145.738 163.167 150.151 163.167C154.563 163.167 158.14 163.2 158.14 163.241Z" fill="#4B4B4B"/>
<path d="M135.058 142.062H132.354V145.946H135.058V142.062Z" fill="#63CAE1"/>
<path d="M142.021 147.476C142.021 147.517 138.444 147.55 134.032 147.55C129.619 147.55 126.043 147.517 126.043 147.476C126.043 147.435 129.619 147.402 134.032 147.402C138.444 147.402 142.021 147.435 142.021 147.476Z" fill="#086E86"/>
<path d="M135.058 149.89H132.354V153.775H135.058V149.89Z" fill="#63CAE1"/>
<path d="M142.021 155.295C142.021 155.336 138.444 155.369 134.032 155.369C129.619 155.369 126.043 155.336 126.043 155.295C126.043 155.254 129.619 155.221 134.032 155.221C138.444 155.221 142.021 155.254 142.021 155.295Z" fill="#086E86"/>
<path d="M135.058 157.719H132.354V161.603H135.058V157.719Z" fill="#63CAE1"/>
<path d="M142.021 163.131C142.021 163.172 138.444 163.205 134.032 163.205C129.619 163.205 126.043 163.172 126.043 163.131C126.043 163.09 129.619 163.057 134.032 163.057C138.444 163.057 142.021 163.09 142.021 163.131Z" fill="#086E86"/>
<path d="M207.481 161.008H180.706L180.59 116.454H207.364L207.481 161.008Z" fill="#4B4B4B"/>
<path d="M207.364 116.454H193.977V161.008H207.364V116.454Z" fill="#086E86"/>
<path d="M193.099 110.803H183.645V116.454H193.099V110.803Z" fill="#4B4B4B"/>
<path d="M193.099 110.803H190.846V116.454H193.099V110.803Z" fill="#086E86"/>
<path d="M208.147 116.127H179.789V116.457H208.147V116.127Z" fill="#086E86"/>
<path d="M188.139 118.92H185.873V122.162H188.139V118.92Z" fill="#63CAE1"/>
<path d="M193.975 123.431C193.975 123.465 190.978 123.492 187.282 123.492C183.584 123.492 180.588 123.465 180.588 123.431C180.588 123.396 183.584 123.369 187.282 123.369C190.978 123.368 193.975 123.396 193.975 123.431Z" fill="#086E86"/>
<path d="M201.645 118.922H199.379V122.163H201.645V118.922Z" fill="#63CAE1"/>
<path d="M207.481 123.431C207.481 123.465 204.484 123.493 200.788 123.493C197.09 123.493 194.094 123.465 194.094 123.431C194.094 123.397 197.09 123.369 200.788 123.369C204.484 123.369 207.481 123.397 207.481 123.431Z" fill="#4B4B4B"/>
<path d="M201.645 125.356H199.379V128.597H201.645V125.356Z" fill="#63CAE1"/>
<path d="M207.481 129.873C207.481 129.907 204.484 129.935 200.788 129.935C197.09 129.935 194.094 129.907 194.094 129.873C194.094 129.839 197.09 129.811 200.788 129.811C204.484 129.811 207.481 129.839 207.481 129.873Z" fill="#4B4B4B"/>
<path d="M201.645 131.987H199.379V135.228H201.645V131.987Z" fill="#63CAE1"/>
<path d="M207.481 136.505C207.481 136.54 204.484 136.567 200.788 136.567C197.09 136.567 194.094 136.539 194.094 136.505C194.094 136.472 197.09 136.443 200.788 136.443C204.484 136.443 207.481 136.471 207.481 136.505Z" fill="#4B4B4B"/>
<path d="M201.645 138.61H199.379V141.852H201.645V138.61Z" fill="#63CAE1"/>
<path d="M207.481 143.125C207.481 143.16 204.484 143.187 200.788 143.187C197.09 143.187 194.094 143.16 194.094 143.125C194.094 143.091 197.09 143.064 200.788 143.064C204.484 143.063 207.481 143.091 207.481 143.125Z" fill="#4B4B4B"/>
<path d="M188.139 125.451H185.873V128.693H188.139V125.451Z" fill="#63CAE1"/>
<path d="M193.975 129.967C193.975 130.001 190.978 130.029 187.282 130.029C183.584 130.029 180.588 130.001 180.588 129.967C180.588 129.933 183.584 129.905 187.282 129.905C190.978 129.905 193.975 129.933 193.975 129.967Z" fill="#086E86"/>
<path d="M188.139 131.987H185.873V135.228H188.139V131.987Z" fill="#63CAE1"/>
<path d="M193.975 136.496C193.975 136.53 190.978 136.558 187.282 136.558C183.584 136.558 180.588 136.53 180.588 136.496C180.588 136.462 183.584 136.434 187.282 136.434C190.978 136.434 193.975 136.462 193.975 136.496Z" fill="#086E86"/>
<path d="M188.139 138.517H185.873V141.759H188.139V138.517Z" fill="#63CAE1"/>
<path d="M193.975 143.034C193.975 143.069 190.978 143.096 187.282 143.096C183.584 143.096 180.588 143.069 180.588 143.034C180.588 143 183.584 142.973 187.282 142.973C190.978 142.973 193.975 143 193.975 143.034Z" fill="#086E86"/>
<path d="M200.685 165.417H161.516L161.346 123.426H200.515L200.685 165.417Z" fill="#4B4B4B"/>
<path d="M200.52 123.426H180.936V165.417H200.52V123.426Z" fill="#292929"/>
<path d="M179.646 115.164H165.814V123.431H179.646V115.164Z" fill="#4B4B4B"/>
<path d="M179.646 115.164H176.35V123.431H179.646V115.164Z" fill="#086E86"/>
<path d="M201.66 122.943H158.08V123.425H201.66V122.943Z" fill="#086E86"/>
<path d="M172.397 127.035H169.082V131.778H172.397V127.035Z" fill="#63CAE1"/>
<path d="M180.93 133.638C180.93 133.688 176.546 133.728 171.139 133.728C165.729 133.728 161.346 133.688 161.346 133.638C161.346 133.588 165.729 133.547 171.139 133.547C176.546 133.547 180.93 133.588 180.93 133.638Z" fill="#086E86"/>
<path d="M192.151 127.035H188.836V131.778H192.151V127.035Z" fill="#63CAE1"/>
<path d="M200.69 133.636C200.69 133.686 196.306 133.727 190.898 133.727C185.489 133.727 181.105 133.686 181.105 133.636C181.105 133.586 185.489 133.546 190.898 133.546C196.306 133.546 200.69 133.586 200.69 133.636Z" fill="#4B4B4B"/>
<path d="M192.149 136.448H188.834V141.19H192.149V136.448Z" fill="#63CAE1"/>
<path d="M200.684 143.052C200.684 143.102 196.3 143.143 190.893 143.143C185.483 143.143 181.1 143.102 181.1 143.052C181.1 143.002 185.483 142.961 190.893 142.961C196.3 142.961 200.684 143.002 200.684 143.052Z" fill="#4B4B4B"/>
<path d="M192.151 146.144H188.836V150.887H192.151V146.144Z" fill="#63CAE1"/>
<path d="M200.69 152.755C200.69 152.805 196.306 152.845 190.898 152.845C185.489 152.845 181.105 152.805 181.105 152.755C181.105 152.705 185.489 152.664 190.898 152.664C196.306 152.664 200.69 152.705 200.69 152.755Z" fill="#4B4B4B"/>
<path d="M192.151 155.848H188.836V160.591H192.151V155.848Z" fill="#63CAE1"/>
<path d="M200.69 162.454C200.69 162.504 196.306 162.545 190.898 162.545C185.489 162.545 181.105 162.504 181.105 162.454C181.105 162.404 185.489 162.363 190.898 162.363C196.306 162.363 200.69 162.404 200.69 162.454Z" fill="#4B4B4B"/>
<path d="M172.397 136.594H169.082V141.337H172.397V136.594Z" fill="#63CAE1"/>
<path d="M180.93 143.198C180.93 143.248 176.546 143.289 171.139 143.289C165.729 143.289 161.346 143.248 161.346 143.198C161.346 143.148 165.729 143.108 171.139 143.108C176.546 143.108 180.93 143.148 180.93 143.198Z" fill="#086E86"/>
<path d="M172.397 146.155H169.082V150.897H172.397V146.155Z" fill="#63CAE1"/>
<path d="M180.93 152.755C180.93 152.805 176.546 152.846 171.139 152.846C165.729 152.846 161.346 152.805 161.346 152.755C161.346 152.705 165.729 152.665 171.139 152.665C176.546 152.665 180.93 152.705 180.93 152.755Z" fill="#086E86"/>
<path d="M172.397 155.712H169.082V160.454H172.397V155.712Z" fill="#63CAE1"/>
<path d="M180.93 162.318C180.93 162.368 176.546 162.409 171.139 162.409C165.729 162.409 161.346 162.368 161.346 162.318C161.346 162.268 165.729 162.228 171.139 162.228C176.546 162.228 180.93 162.268 180.93 162.318Z" fill="#086E86"/>
<path d="M192.325 105.174C192.505 104.205 190.666 103.409 189.285 103.326C188.626 103.287 187.942 103.362 187.318 103.2C185.966 102.849 185.426 101.551 184.106 101.137C183.12 100.827 181.984 101.103 181.028 101.461C180.072 101.818 179.127 102.269 178.059 102.32C177.129 102.364 176.12 102.107 175.307 102.445C174.701 102.696 174.384 103.216 173.826 103.522C173.279 103.821 172.567 103.885 171.889 103.912C171.212 103.94 170.51 103.945 169.893 104.155C169.275 104.365 168.765 104.85 168.893 105.346L192.325 105.174Z" fill="#63CAE1"/>
<path d="M254.617 104.949C254.746 104.25 253.42 103.675 252.423 103.615C251.948 103.587 251.454 103.641 251.004 103.524C250.028 103.271 249.638 102.334 248.686 102.035C247.974 101.812 247.155 102.011 246.465 102.269C245.775 102.527 245.093 102.852 244.322 102.889C243.652 102.921 242.924 102.736 242.337 102.98C241.899 103.161 241.67 103.536 241.267 103.757C240.873 103.973 240.359 104.019 239.87 104.038C239.381 104.058 238.874 104.062 238.429 104.214C237.984 104.365 237.615 104.715 237.708 105.073L254.617 104.949Z" fill="#63CAE1"/>
<path d="M116.707 109.986C116.836 109.287 115.51 108.713 114.513 108.653C114.037 108.624 113.544 108.678 113.093 108.562C112.118 108.309 111.728 107.371 110.776 107.073C110.064 106.85 109.245 107.048 108.555 107.307C107.865 107.565 107.183 107.89 106.412 107.926C105.741 107.958 105.013 107.774 104.426 108.017C103.989 108.199 103.76 108.573 103.357 108.794C102.963 109.01 102.449 109.056 101.96 109.076C101.471 109.096 100.964 109.099 100.519 109.251C100.073 109.403 99.705 109.753 99.7976 110.111L116.707 109.986Z" fill="#63CAE1"/>
<path d="M99.1113 167.981L119.027 167.92L138.943 167.897L178.774 167.855L218.606 167.897L238.521 167.919L258.437 167.981L238.521 168.043L218.606 168.065L178.774 168.107L138.943 168.065L119.027 168.043L99.1113 167.981Z" fill="#63CAE1"/>
<path d="M258.437 165.303H99.1113V167.981H258.437V165.303Z" fill="#50A6BA"/>
<path d="M107.307 165.303C107.403 165.749 107.425 166.195 107.429 166.642C107.425 167.088 107.404 167.534 107.307 167.981C107.211 167.534 107.189 167.088 107.186 166.642C107.19 166.195 107.211 165.749 107.307 165.303Z" fill="#63CAE1"/>
<path d="M116.836 165.303C116.932 165.749 116.954 166.195 116.958 166.642C116.954 167.088 116.933 167.534 116.836 167.981C116.74 167.534 116.718 167.088 116.715 166.642C116.719 166.195 116.74 165.749 116.836 165.303Z" fill="#63CAE1"/>
<path d="M126.364 165.303C126.46 165.749 126.481 166.195 126.485 166.642C126.482 167.088 126.46 167.534 126.364 167.981C126.267 167.534 126.246 167.088 126.242 166.642C126.246 166.195 126.268 165.749 126.364 165.303Z" fill="#63CAE1"/>
<path d="M135.893 165.303C135.989 165.749 136.011 166.195 136.015 166.642C136.011 167.088 135.99 167.534 135.893 167.981C135.797 167.534 135.775 167.088 135.771 166.642C135.776 166.195 135.797 165.749 135.893 165.303Z" fill="#63CAE1"/>
<path d="M145.422 165.303C145.518 165.749 145.54 166.195 145.544 166.642C145.54 167.088 145.519 167.534 145.422 167.981C145.326 167.534 145.304 167.088 145.301 166.642C145.305 166.195 145.327 165.749 145.422 165.303Z" fill="#63CAE1"/>
<path d="M154.952 165.303C155.048 165.749 155.069 166.195 155.073 166.642C155.07 167.088 155.048 167.534 154.952 167.981C154.855 167.534 154.834 167.088 154.83 166.642C154.834 166.195 154.856 165.749 154.952 165.303Z" fill="#63CAE1"/>
<path d="M164.479 165.303C164.575 165.749 164.597 166.195 164.601 166.642C164.597 167.088 164.576 167.534 164.479 167.981C164.382 167.534 164.361 167.088 164.357 166.642C164.362 166.195 164.383 165.749 164.479 165.303Z" fill="#63CAE1"/>
<path d="M174.008 165.303C174.104 165.749 174.126 166.195 174.13 166.642C174.126 167.088 174.105 167.534 174.008 167.981C173.912 167.534 173.89 167.088 173.887 166.642C173.891 166.195 173.913 165.749 174.008 165.303Z" fill="#63CAE1"/>
<path d="M183.536 165.303C183.632 165.749 183.653 166.195 183.657 166.642C183.654 167.088 183.632 167.534 183.536 167.981C183.439 167.534 183.418 167.088 183.414 166.642C183.418 166.195 183.44 165.749 183.536 165.303Z" fill="#63CAE1"/>
<path d="M193.067 165.303C193.163 165.749 193.184 166.195 193.189 166.642C193.185 167.088 193.164 167.534 193.067 167.981C192.97 167.534 192.949 167.088 192.945 166.642C192.949 166.195 192.971 165.749 193.067 165.303Z" fill="#63CAE1"/>
<path d="M202.594 165.303C202.69 165.749 202.712 166.195 202.716 166.642C202.712 167.088 202.691 167.534 202.594 167.981C202.498 167.534 202.476 167.088 202.473 166.642C202.477 166.195 202.498 165.749 202.594 165.303Z" fill="#63CAE1"/>
<path d="M212.124 165.303C212.219 165.749 212.241 166.195 212.245 166.642C212.242 167.088 212.22 167.534 212.124 167.981C212.027 167.534 212.006 167.088 212.002 166.642C212.006 166.195 212.028 165.749 212.124 165.303Z" fill="#63CAE1"/>
<path d="M221.651 165.303C221.747 165.749 221.768 166.195 221.773 166.642C221.769 167.088 221.747 167.534 221.651 167.981C221.554 167.534 221.533 167.088 221.529 166.642C221.533 166.195 221.555 165.749 221.651 165.303Z" fill="#63CAE1"/>
<path d="M231.182 165.303C231.278 165.749 231.3 166.195 231.304 166.642C231.3 167.088 231.279 167.534 231.182 167.981C231.086 167.534 231.064 167.088 231.061 166.642C231.065 166.195 231.086 165.749 231.182 165.303Z" fill="#63CAE1"/>
<path d="M240.708 165.303C240.803 165.749 240.825 166.195 240.829 166.642C240.826 167.088 240.804 167.534 240.708 167.981C240.611 167.534 240.59 167.088 240.586 166.642C240.59 166.195 240.612 165.749 240.708 165.303Z" fill="#63CAE1"/>
<path d="M250.239 165.303C250.335 165.749 250.356 166.195 250.36 166.642C250.357 167.088 250.335 167.534 250.239 167.981C250.142 167.534 250.121 167.088 250.117 166.642C250.121 166.195 250.143 165.749 250.239 165.303Z" fill="#63CAE1"/>
</g>
<g opacity="0.05">
<path d="M380.734 117.391C380.913 116.423 379.075 115.626 377.694 115.543C377.035 115.504 376.351 115.579 375.727 115.417C374.374 115.067 373.834 113.768 372.515 113.354C371.529 113.045 370.393 113.32 369.437 113.678C368.48 114.036 367.535 114.486 366.467 114.537C365.538 114.581 364.529 114.325 363.716 114.662C363.11 114.914 362.792 115.433 362.234 115.739C361.688 116.039 360.975 116.102 360.298 116.13C359.62 116.157 358.918 116.162 358.301 116.372C357.684 116.582 357.173 117.068 357.301 117.563L380.734 117.391Z" fill="#4B4B4B"/>
<path d="M411.517 114.421C411.696 113.453 409.858 112.656 408.476 112.573C407.818 112.534 407.134 112.609 406.509 112.447C405.157 112.096 404.617 110.798 403.298 110.384C402.311 110.074 401.176 110.35 400.22 110.708C399.263 111.065 398.318 111.516 397.25 111.567C396.321 111.611 395.312 111.354 394.499 111.692C393.893 111.943 393.576 112.463 393.017 112.769C392.471 113.068 391.758 113.132 391.081 113.159C390.403 113.187 389.701 113.192 389.084 113.402C388.467 113.612 387.956 114.097 388.084 114.593L411.517 114.421Z" fill="#63CAE1"/>
<path d="M322.577 103.964H300.861V165.737H322.577V103.964Z" fill="#63CAE1"/>
<path d="M322.578 103.964H311.721V165.584H322.578V103.964Z" fill="#4B4B4B"/>
<path d="M311.008 99.3618H303.34V103.963H311.008V99.3618Z" fill="#63CAE1"/>
<path d="M311.011 99.3618H309.183V103.963H311.011V99.3618Z" fill="#4B4B4B"/>
<path d="M299.053 103.966V103.698H323.214V103.966" fill="#086E86"/>
<path d="M306.986 105.969H305.148V108.609H306.986V105.969Z" fill="#1B5664"/>
<path d="M311.717 109.646C311.717 109.674 309.286 109.696 306.289 109.696C303.29 109.696 300.859 109.674 300.859 109.646C300.859 109.618 303.29 109.596 306.289 109.596C309.286 109.596 311.717 109.618 311.717 109.646Z" fill="#086E86"/>
<path d="M317.937 105.968H316.099V108.608H317.937V105.968Z" fill="#086E86"/>
<path d="M322.671 109.643C322.671 109.671 320.24 109.693 317.242 109.693C314.243 109.693 311.812 109.671 311.812 109.643C311.812 109.615 314.243 109.593 317.242 109.593C320.24 109.593 322.671 109.615 322.671 109.643Z" fill="#086E86"/>
<path d="M317.938 111.206H316.1V113.846H317.938V111.206Z" fill="#086E86"/>
<path d="M322.671 114.881C322.671 114.909 320.24 114.931 317.242 114.931C314.243 114.931 311.812 114.909 311.812 114.881C311.812 114.853 314.243 114.831 317.242 114.831C320.24 114.831 322.671 114.853 322.671 114.881Z" fill="#086E86"/>
<path d="M317.938 116.614H316.1V119.253H317.938V116.614Z" fill="#086E86"/>
<path d="M322.673 120.281C322.673 120.309 320.242 120.332 317.244 120.332C314.245 120.332 311.814 120.309 311.814 120.281C311.814 120.253 314.245 120.231 317.244 120.231C320.242 120.231 322.673 120.253 322.673 120.281Z" fill="#086E86"/>
<path d="M317.938 122.011H316.1V124.651H317.938V122.011Z" fill="#086E86"/>
<path d="M322.671 125.687C322.671 125.715 320.24 125.738 317.242 125.738C314.243 125.738 311.812 125.715 311.812 125.687C311.812 125.659 314.243 125.637 317.242 125.637C320.24 125.637 322.671 125.66 322.671 125.687Z" fill="#086E86"/>
<path d="M317.938 127.251H316.1V129.89H317.938V127.251Z" fill="#086E86"/>
<path d="M322.671 130.926C322.671 130.954 320.24 130.976 317.242 130.976C314.243 130.976 311.812 130.954 311.812 130.926C311.812 130.898 314.243 130.876 317.242 130.876C320.24 130.876 322.671 130.898 322.671 130.926Z" fill="#086E86"/>
<path d="M317.938 132.515H316.1V135.155H317.938V132.515Z" fill="#086E86"/>
<path d="M317.938 137.853H316.1V140.492H317.938V137.853Z" fill="#086E86"/>
<path d="M322.671 136.189C322.671 136.217 320.24 136.24 317.242 136.24C314.243 136.24 311.812 136.217 311.812 136.189C311.812 136.162 314.243 136.139 317.242 136.139C320.24 136.139 322.671 136.162 322.671 136.189Z" fill="#086E86"/>
<path d="M306.986 111.287H305.148V113.926H306.986V111.287Z" fill="#1B5664"/>
<path d="M311.717 114.963C311.717 114.991 309.286 115.014 306.289 115.014C303.29 115.014 300.859 114.991 300.859 114.963C300.859 114.936 303.29 114.913 306.289 114.913C309.286 114.913 311.717 114.936 311.717 114.963Z" fill="#086E86"/>
<path d="M306.986 116.613H305.148V119.253H306.986V116.613Z" fill="#1B5664"/>
<path d="M311.717 120.29C311.717 120.317 309.286 120.34 306.289 120.34C303.29 120.34 300.859 120.317 300.859 120.29C300.859 120.262 303.29 120.239 306.289 120.239C309.286 120.239 311.717 120.262 311.717 120.29Z" fill="#086E86"/>
<path d="M306.986 121.932H305.148V124.571H306.986V121.932Z" fill="#1B5664"/>
<path d="M311.717 125.608C311.717 125.636 309.286 125.658 306.289 125.658C303.29 125.658 300.859 125.636 300.859 125.608C300.859 125.58 303.29 125.557 306.289 125.557C309.286 125.557 311.717 125.58 311.717 125.608Z" fill="#086E86"/>
<path d="M306.986 127.251H305.148V129.89H306.986V127.251Z" fill="#1B5664"/>
<path d="M311.717 130.927C311.717 130.955 309.286 130.978 306.289 130.978C303.29 130.978 300.859 130.955 300.859 130.927C300.859 130.899 303.29 130.877 306.289 130.877C309.286 130.877 311.717 130.899 311.717 130.927Z" fill="#086E86"/>
<path d="M306.986 132.571H305.148V135.211H306.986V132.571Z" fill="#1B5664"/>
<path d="M311.717 136.245C311.717 136.272 309.286 136.295 306.289 136.295C303.29 136.295 300.859 136.272 300.859 136.245C300.859 136.217 303.29 136.194 306.289 136.194C309.286 136.194 311.717 136.217 311.717 136.245Z" fill="#086E86"/>
<path d="M306.986 137.895H305.148V140.534H306.986V137.895Z" fill="#1B5664"/>
<path d="M394.567 105.082H378.025V140.783H394.567V105.082Z" fill="#63CAE1"/>
<path d="M394.564 105.082H386.293V140.685H394.564V105.082Z" fill="#4B4B4B"/>
<path d="M385.753 101.578H379.912V105.083H385.753V101.578Z" fill="#63CAE1"/>
<path d="M385.756 101.578H384.363V105.083H385.756V101.578Z" fill="#4B4B4B"/>
<path d="M376.646 105.083V104.879H395.051V105.083" fill="#086E86"/>
<path d="M382.689 106.613H381.289V108.624H382.689V106.613Z" fill="#1B5664"/>
<path d="M386.296 109.415C386.296 109.436 384.444 109.453 382.161 109.453C379.876 109.453 378.025 109.436 378.025 109.415C378.025 109.394 379.877 109.376 382.161 109.376C384.445 109.376 386.296 109.394 386.296 109.415Z" fill="#086E86"/>
<path d="M391.033 106.614H389.633V108.624H391.033V106.614Z" fill="#086E86"/>
<path d="M394.638 109.415C394.638 109.436 392.786 109.453 390.503 109.453C388.218 109.453 386.367 109.436 386.367 109.415C386.367 109.394 388.219 109.377 390.503 109.377C392.786 109.377 394.638 109.394 394.638 109.415Z" fill="#086E86"/>
<path d="M391.031 110.602H389.631V112.613H391.031V110.602Z" fill="#086E86"/>
<path d="M394.638 113.402C394.638 113.423 392.786 113.44 390.503 113.44C388.218 113.44 386.367 113.423 386.367 113.402C386.367 113.38 388.219 113.363 390.503 113.363C392.786 113.363 394.638 113.381 394.638 113.402Z" fill="#086E86"/>
<path d="M391.031 114.72H389.631V116.73H391.031V114.72Z" fill="#086E86"/>
<path d="M394.638 117.515C394.638 117.536 392.786 117.553 390.503 117.553C388.218 117.553 386.367 117.536 386.367 117.515C386.367 117.494 388.219 117.477 390.503 117.477C392.786 117.477 394.638 117.494 394.638 117.515Z" fill="#086E86"/>
<path d="M391.029 118.829H389.629V120.84H391.029V118.829Z" fill="#086E86"/>
<path d="M394.634 121.623C394.634 121.645 392.782 121.662 390.499 121.662C388.214 121.662 386.363 121.645 386.363 121.623C386.363 121.602 388.215 121.585 390.499 121.585C392.783 121.585 394.634 121.602 394.634 121.623Z" fill="#086E86"/>
<path d="M391.031 122.819H389.631V124.83H391.031V122.819Z" fill="#086E86"/>
<path d="M394.638 125.622C394.638 125.643 392.786 125.66 390.503 125.66C388.218 125.66 386.367 125.643 386.367 125.622C386.367 125.601 388.219 125.584 390.503 125.584C392.786 125.584 394.638 125.601 394.638 125.622Z" fill="#086E86"/>
<path d="M391.029 126.834H389.629V128.845H391.029V126.834Z" fill="#086E86"/>
<path d="M391.029 130.9H389.629V132.91H391.029V130.9Z" fill="#086E86"/>
<path d="M394.634 129.636C394.634 129.657 392.782 129.674 390.499 129.674C388.214 129.674 386.363 129.657 386.363 129.636C386.363 129.614 388.215 129.597 390.499 129.597C392.783 129.597 394.634 129.615 394.634 129.636Z" fill="#086E86"/>
<path d="M382.689 110.666H381.289V112.676H382.689V110.666Z" fill="#1B5664"/>
<path d="M386.296 113.46C386.296 113.481 384.444 113.499 382.161 113.499C379.876 113.499 378.025 113.481 378.025 113.46C378.025 113.439 379.877 113.422 382.161 113.422C384.445 113.422 386.296 113.439 386.296 113.46Z" fill="#086E86"/>
<path d="M382.689 114.719H381.289V116.73H382.689V114.719Z" fill="#1B5664"/>
<path d="M386.296 117.514C386.296 117.536 384.444 117.553 382.161 117.553C379.876 117.553 378.025 117.536 378.025 117.514C378.025 117.493 379.877 117.476 382.161 117.476C384.445 117.476 386.296 117.493 386.296 117.514Z" fill="#086E86"/>
<path d="M382.689 118.773H381.289V120.784H382.689V118.773Z" fill="#1B5664"/>
<path d="M386.296 121.569C386.296 121.59 384.444 121.607 382.161 121.607C379.876 121.607 378.025 121.59 378.025 121.569C378.025 121.548 379.877 121.531 382.161 121.531C384.445 121.531 386.296 121.548 386.296 121.569Z" fill="#086E86"/>
<path d="M382.689 122.82H381.289V124.83H382.689V122.82Z" fill="#1B5664"/>
<path d="M386.296 125.622C386.296 125.644 384.444 125.661 382.161 125.661C379.876 125.661 378.025 125.644 378.025 125.622C378.025 125.601 379.877 125.584 382.161 125.584C384.445 125.584 386.296 125.601 386.296 125.622Z" fill="#086E86"/>
<path d="M382.689 126.874H381.289V128.885H382.689V126.874Z" fill="#1B5664"/>
<path d="M386.296 129.676C386.296 129.697 384.444 129.714 382.161 129.714C379.876 129.714 378.025 129.697 378.025 129.676C378.025 129.655 379.877 129.638 382.161 129.638C384.445 129.638 386.296 129.655 386.296 129.676Z" fill="#086E86"/>
<path d="M382.691 130.928H381.291V132.939H382.691V130.928Z" fill="#1B5664"/>
<path d="M391.797 122.207V121.958H414.259V122.207" fill="#086E86"/>
<path d="M393.97 134.648H359.314V165.776H393.97V134.648Z" fill="#4B4B4B"/>
<path d="M393.972 134.648H377.723V165.776H393.972V134.648Z" fill="#086E86"/>
<path d="M369.698 138.863H366.582V144.018H369.698V138.863Z" fill="#63CAE1"/>
<path d="M369.698 159.042H366.582V164.197H369.698V159.042Z" fill="#63CAE1"/>
<path d="M377.723 146.045C377.723 146.103 373.602 146.15 368.52 146.15C363.436 146.15 359.316 146.103 359.316 146.045C359.316 145.987 363.436 145.94 368.52 145.94C373.602 145.94 377.723 145.987 377.723 146.045Z" fill="#63CAE1"/>
<path d="M369.7 149.029H366.584V154.185H369.7V149.029Z" fill="#63CAE1"/>
<path d="M377.721 156.206C377.721 156.264 373.6 156.311 368.518 156.311C363.434 156.311 359.314 156.264 359.314 156.206C359.314 156.148 363.434 156.101 368.518 156.101C373.6 156.101 377.721 156.148 377.721 156.206Z" fill="#63CAE1"/>
<path d="M384.29 138.863H381.174V144.018H384.29V138.863Z" fill="#63CAE1"/>
<path d="M391.05 138.863H387.934V144.018H391.05V138.863Z" fill="#63CAE1"/>
<path d="M384.29 148.649H381.174V153.804H384.29V148.649Z" fill="#63CAE1"/>
<path d="M391.05 148.649H387.934V153.804H391.05V148.649Z" fill="#63CAE1"/>
<path d="M384.29 158.429H381.174V163.584H384.29V158.429Z" fill="#63CAE1"/>
<path d="M391.05 158.429H387.934V163.584H391.05V158.429Z" fill="#63CAE1"/>
<path d="M396.575 133.563H356.709V134.685H396.575V133.563Z" fill="#086E86"/>
<path d="M394.212 134.793C394.212 134.851 386.466 134.898 376.913 134.898C367.358 134.898 359.613 134.851 359.613 134.793C359.613 134.735 367.358 134.689 376.913 134.689C386.466 134.689 394.212 134.736 394.212 134.793Z" fill="#4B4B4B"/>
<path d="M281.527 118.995H259.811V165.863H281.527V118.995Z" fill="#63CAE1"/>
<path d="M281.526 118.995H270.668V165.734H281.526V118.995Z" fill="#4B4B4B"/>
<path d="M269.956 114.398H262.287V118.999H269.956V114.398Z" fill="#63CAE1"/>
<path d="M269.957 114.398H268.129V118.999H269.957V114.398Z" fill="#4B4B4B"/>
<path d="M258 118.996V118.727H282.161V118.996" fill="#086E86"/>
<path d="M265.934 121.004H264.096V123.644H265.934V121.004Z" fill="#1B5664"/>
<path d="M270.667 124.683C270.667 124.71 268.236 124.733 265.238 124.733C262.239 124.733 259.809 124.71 259.809 124.683C259.809 124.655 262.239 124.632 265.238 124.632C268.236 124.632 270.667 124.655 270.667 124.683Z" fill="#086E86"/>
<path d="M276.887 121.005H275.049V123.644H276.887V121.005Z" fill="#086E86"/>
<path d="M281.62 124.681C281.62 124.709 279.189 124.732 276.191 124.732C273.192 124.732 270.762 124.709 270.762 124.681C270.762 124.653 273.192 124.631 276.191 124.631C279.189 124.631 281.62 124.653 281.62 124.681Z" fill="#086E86"/>
<path d="M276.887 126.244H275.049V128.884H276.887V126.244Z" fill="#086E86"/>
<path d="M281.62 129.919C281.62 129.947 279.189 129.969 276.191 129.969C273.192 129.969 270.762 129.947 270.762 129.919C270.762 129.891 273.192 129.868 276.191 129.868C279.189 129.868 281.62 129.891 281.62 129.919Z" fill="#086E86"/>
<path d="M276.887 131.642H275.049V134.282H276.887V131.642Z" fill="#086E86"/>
<path d="M281.62 135.317C281.62 135.345 279.189 135.367 276.191 135.367C273.192 135.367 270.762 135.345 270.762 135.317C270.762 135.289 273.192 135.266 276.191 135.266C279.189 135.266 281.62 135.289 281.62 135.317Z" fill="#086E86"/>
<path d="M276.887 137.04H275.049V139.679H276.887V137.04Z" fill="#086E86"/>
<path d="M281.62 140.715C281.62 140.743 279.189 140.765 276.191 140.765C273.192 140.765 270.762 140.743 270.762 140.715C270.762 140.687 273.192 140.665 276.191 140.665C279.189 140.665 281.62 140.687 281.62 140.715Z" fill="#086E86"/>
<path d="M276.887 142.287H275.049V144.926H276.887V142.287Z" fill="#086E86"/>
<path d="M281.62 145.962C281.62 145.99 279.189 146.013 276.191 146.013C273.192 146.013 270.762 145.99 270.762 145.962C270.762 145.934 273.192 145.912 276.191 145.912C279.189 145.912 281.62 145.935 281.62 145.962Z" fill="#086E86"/>
<path d="M276.887 147.552H275.049V150.191H276.887V147.552Z" fill="#086E86"/>
<path d="M276.887 152.884H275.049V155.523H276.887V152.884Z" fill="#086E86"/>
<path d="M281.62 151.227C281.62 151.254 279.189 151.277 276.191 151.277C273.192 151.277 270.762 151.254 270.762 151.227C270.762 151.199 273.192 151.176 276.191 151.176C279.189 151.176 281.62 151.199 281.62 151.227Z" fill="#086E86"/>
<path d="M265.934 126.325H264.096V128.965H265.934V126.325Z" fill="#1B5664"/>
<path d="M270.669 130C270.669 130.028 268.238 130.051 265.24 130.051C262.241 130.051 259.811 130.028 259.811 130C259.811 129.972 262.241 129.95 265.24 129.95C268.238 129.95 270.669 129.972 270.669 130Z" fill="#086E86"/>
<path d="M265.934 131.643H264.096V134.282H265.934V131.643Z" fill="#1B5664"/>
<path d="M270.667 135.318C270.667 135.346 268.236 135.369 265.238 135.369C262.239 135.369 259.809 135.346 259.809 135.318C259.809 135.29 262.239 135.268 265.238 135.268C268.236 135.268 270.667 135.29 270.667 135.318Z" fill="#086E86"/>
<path d="M265.934 136.962H264.096V139.602H265.934V136.962Z" fill="#1B5664"/>
<path d="M270.669 140.645C270.669 140.673 268.238 140.696 265.24 140.696C262.241 140.696 259.811 140.673 259.811 140.645C259.811 140.617 262.241 140.595 265.24 140.595C268.238 140.595 270.669 140.618 270.669 140.645Z" fill="#086E86"/>
<path d="M265.934 142.285H264.096V144.925H265.934V142.285Z" fill="#1B5664"/>
<path d="M270.667 145.962C270.667 145.99 268.236 146.012 265.238 146.012C262.239 146.012 259.809 145.99 259.809 145.962C259.809 145.934 262.239 145.911 265.238 145.911C268.236 145.912 270.667 145.934 270.667 145.962Z" fill="#086E86"/>
<path d="M265.934 147.607H264.096V150.246H265.934V147.607Z" fill="#1B5664"/>
<path d="M270.669 151.282C270.669 151.31 268.238 151.332 265.24 151.332C262.241 151.332 259.811 151.31 259.811 151.282C259.811 151.254 262.241 151.232 265.24 151.232C268.238 151.232 270.669 151.254 270.669 151.282Z" fill="#086E86"/>
<path d="M265.934 152.924H264.096V155.564H265.934V152.924Z" fill="#1B5664"/>
<path d="M317.14 165.672H285.184L285.045 131.279H317L317.14 165.672Z" fill="#4B4B4B"/>
<path d="M317.003 131.279H301.025V165.672H317.003V131.279Z" fill="#292929"/>
<path d="M299.978 124.509H288.693V131.28H299.978V124.509Z" fill="#4B4B4B"/>
<path d="M299.978 124.509H297.289V131.28H299.978V124.509Z" fill="#086E86"/>
<path d="M317.937 130.887H282.383V131.282H317.937V130.887Z" fill="#086E86"/>
<path d="M294.058 134.233H291.354V138.117H294.058V134.233Z" fill="#63CAE1"/>
<path d="M301.021 139.639C301.021 139.68 297.444 139.713 293.032 139.713C288.619 139.713 285.043 139.68 285.043 139.639C285.043 139.598 288.619 139.565 293.032 139.565C297.444 139.565 301.021 139.598 301.021 139.639Z" fill="#086E86"/>
<path d="M310.176 134.233H307.471V138.117H310.176V134.233Z" fill="#63CAE1"/>
<path d="M317.14 139.647C317.14 139.688 313.563 139.721 309.151 139.721C304.738 139.721 301.162 139.688 301.162 139.647C301.162 139.606 304.738 139.573 309.151 139.573C313.563 139.573 317.14 139.606 317.14 139.647Z" fill="#4B4B4B"/>
<path d="M310.176 141.95H307.471V145.834H310.176V141.95Z" fill="#63CAE1"/>
<path d="M317.14 147.357C317.14 147.398 313.563 147.432 309.151 147.432C304.738 147.432 301.162 147.398 301.162 147.357C301.162 147.317 304.738 147.283 309.151 147.283C313.563 147.283 317.14 147.316 317.14 147.357Z" fill="#4B4B4B"/>
<path d="M310.176 149.889H307.471V153.773H310.176V149.889Z" fill="#63CAE1"/>
<path d="M317.144 155.295C317.144 155.336 313.567 155.369 309.155 155.369C304.742 155.369 301.166 155.336 301.166 155.295C301.166 155.254 304.742 155.221 309.155 155.221C313.567 155.221 317.144 155.254 317.144 155.295Z" fill="#4B4B4B"/>
<path d="M310.176 157.835H307.471V161.719H310.176V157.835Z" fill="#63CAE1"/>
<path d="M317.14 163.241C317.14 163.282 313.563 163.315 309.151 163.315C304.738 163.315 301.162 163.282 301.162 163.241C301.162 163.2 304.738 163.167 309.151 163.167C313.563 163.167 317.14 163.2 317.14 163.241Z" fill="#4B4B4B"/>
<path d="M294.058 142.062H291.354V145.946H294.058V142.062Z" fill="#63CAE1"/>
<path d="M301.021 147.476C301.021 147.517 297.444 147.55 293.032 147.55C288.619 147.55 285.043 147.517 285.043 147.476C285.043 147.435 288.619 147.402 293.032 147.402C297.444 147.402 301.021 147.435 301.021 147.476Z" fill="#086E86"/>
<path d="M294.058 149.89H291.354V153.775H294.058V149.89Z" fill="#63CAE1"/>
<path d="M301.021 155.295C301.021 155.336 297.444 155.369 293.032 155.369C288.619 155.369 285.043 155.336 285.043 155.295C285.043 155.254 288.619 155.221 293.032 155.221C297.444 155.221 301.021 155.254 301.021 155.295Z" fill="#086E86"/>
<path d="M294.058 157.719H291.354V161.603H294.058V157.719Z" fill="#63CAE1"/>
<path d="M301.021 163.131C301.021 163.172 297.444 163.205 293.032 163.205C288.619 163.205 285.043 163.172 285.043 163.131C285.043 163.09 288.619 163.057 293.032 163.057C297.444 163.057 301.021 163.09 301.021 163.131Z" fill="#086E86"/>
<path d="M366.481 161.008H339.706L339.59 116.454H366.364L366.481 161.008Z" fill="#4B4B4B"/>
<path d="M366.364 116.454H352.977V161.008H366.364V116.454Z" fill="#086E86"/>
<path d="M352.099 110.803H342.645V116.454H352.099V110.803Z" fill="#4B4B4B"/>
<path d="M352.099 110.803H349.846V116.454H352.099V110.803Z" fill="#086E86"/>
<path d="M367.147 116.127H338.789V116.457H367.147V116.127Z" fill="#086E86"/>
<path d="M347.139 118.92H344.873V122.162H347.139V118.92Z" fill="#63CAE1"/>
<path d="M352.975 123.431C352.975 123.465 349.978 123.492 346.282 123.492C342.584 123.492 339.588 123.465 339.588 123.431C339.588 123.396 342.584 123.369 346.282 123.369C349.978 123.368 352.975 123.396 352.975 123.431Z" fill="#086E86"/>
<path d="M360.645 118.922H358.379V122.163H360.645V118.922Z" fill="#63CAE1"/>
<path d="M366.481 123.431C366.481 123.465 363.484 123.493 359.788 123.493C356.09 123.493 353.094 123.465 353.094 123.431C353.094 123.397 356.09 123.369 359.788 123.369C363.484 123.369 366.481 123.397 366.481 123.431Z" fill="#4B4B4B"/>
<path d="M360.645 125.356H358.379V128.597H360.645V125.356Z" fill="#63CAE1"/>
<path d="M366.481 129.873C366.481 129.907 363.484 129.935 359.788 129.935C356.09 129.935 353.094 129.907 353.094 129.873C353.094 129.839 356.09 129.811 359.788 129.811C363.484 129.811 366.481 129.839 366.481 129.873Z" fill="#4B4B4B"/>
<path d="M360.645 131.987H358.379V135.228H360.645V131.987Z" fill="#63CAE1"/>
<path d="M366.481 136.505C366.481 136.54 363.484 136.567 359.788 136.567C356.09 136.567 353.094 136.539 353.094 136.505C353.094 136.472 356.09 136.443 359.788 136.443C363.484 136.443 366.481 136.471 366.481 136.505Z" fill="#4B4B4B"/>
<path d="M360.645 138.61H358.379V141.852H360.645V138.61Z" fill="#63CAE1"/>
<path d="M366.481 143.125C366.481 143.16 363.484 143.187 359.788 143.187C356.09 143.187 353.094 143.16 353.094 143.125C353.094 143.091 356.09 143.064 359.788 143.064C363.484 143.063 366.481 143.091 366.481 143.125Z" fill="#4B4B4B"/>
<path d="M347.139 125.451H344.873V128.693H347.139V125.451Z" fill="#63CAE1"/>
<path d="M352.975 129.967C352.975 130.001 349.978 130.029 346.282 130.029C342.584 130.029 339.588 130.001 339.588 129.967C339.588 129.933 342.584 129.905 346.282 129.905C349.978 129.905 352.975 129.933 352.975 129.967Z" fill="#086E86"/>
<path d="M347.139 131.987H344.873V135.228H347.139V131.987Z" fill="#63CAE1"/>
<path d="M352.975 136.496C352.975 136.53 349.978 136.558 346.282 136.558C342.584 136.558 339.588 136.53 339.588 136.496C339.588 136.462 342.584 136.434 346.282 136.434C349.978 136.434 352.975 136.462 352.975 136.496Z" fill="#086E86"/>
<path d="M347.139 138.517H344.873V141.759H347.139V138.517Z" fill="#63CAE1"/>
<path d="M352.975 143.034C352.975 143.069 349.978 143.096 346.282 143.096C342.584 143.096 339.588 143.069 339.588 143.034C339.588 143 342.584 142.973 346.282 142.973C349.978 142.973 352.975 143 352.975 143.034Z" fill="#086E86"/>
<path d="M359.685 165.417H320.516L320.346 123.426H359.515L359.685 165.417Z" fill="#4B4B4B"/>
<path d="M359.52 123.426H339.936V165.417H359.52V123.426Z" fill="#292929"/>
<path d="M338.646 115.164H324.814V123.431H338.646V115.164Z" fill="#4B4B4B"/>
<path d="M338.646 115.164H335.35V123.431H338.646V115.164Z" fill="#086E86"/>
<path d="M360.66 122.943H317.08V123.425H360.66V122.943Z" fill="#086E86"/>
<path d="M331.397 127.035H328.082V131.778H331.397V127.035Z" fill="#63CAE1"/>
<path d="M339.93 133.638C339.93 133.688 335.546 133.728 330.139 133.728C324.729 133.728 320.346 133.688 320.346 133.638C320.346 133.588 324.729 133.547 330.139 133.547C335.546 133.547 339.93 133.588 339.93 133.638Z" fill="#086E86"/>
<path d="M351.151 127.035H347.836V131.778H351.151V127.035Z" fill="#63CAE1"/>
<path d="M359.69 133.636C359.69 133.686 355.306 133.727 349.898 133.727C344.489 133.727 340.105 133.686 340.105 133.636C340.105 133.586 344.489 133.546 349.898 133.546C355.306 133.546 359.69 133.586 359.69 133.636Z" fill="#4B4B4B"/>
<path d="M351.149 136.448H347.834V141.19H351.149V136.448Z" fill="#63CAE1"/>
<path d="M359.684 143.052C359.684 143.102 355.3 143.143 349.893 143.143C344.483 143.143 340.1 143.102 340.1 143.052C340.1 143.002 344.483 142.961 349.893 142.961C355.3 142.961 359.684 143.002 359.684 143.052Z" fill="#4B4B4B"/>
<path d="M351.151 146.144H347.836V150.887H351.151V146.144Z" fill="#63CAE1"/>
<path d="M359.69 152.755C359.69 152.805 355.306 152.845 349.898 152.845C344.489 152.845 340.105 152.805 340.105 152.755C340.105 152.705 344.489 152.664 349.898 152.664C355.306 152.664 359.69 152.705 359.69 152.755Z" fill="#4B4B4B"/>
<path d="M351.151 155.848H347.836V160.591H351.151V155.848Z" fill="#63CAE1"/>
<path d="M359.69 162.454C359.69 162.504 355.306 162.545 349.898 162.545C344.489 162.545 340.105 162.504 340.105 162.454C340.105 162.404 344.489 162.363 349.898 162.363C355.306 162.363 359.69 162.404 359.69 162.454Z" fill="#4B4B4B"/>
<path d="M331.397 136.594H328.082V141.337H331.397V136.594Z" fill="#63CAE1"/>
<path d="M339.93 143.198C339.93 143.248 335.546 143.289 330.139 143.289C324.729 143.289 320.346 143.248 320.346 143.198C320.346 143.148 324.729 143.108 330.139 143.108C335.546 143.108 339.93 143.148 339.93 143.198Z" fill="#086E86"/>
<path d="M331.397 146.155H328.082V150.897H331.397V146.155Z" fill="#63CAE1"/>
<path d="M339.93 152.755C339.93 152.805 335.546 152.846 330.139 152.846C324.729 152.846 320.346 152.805 320.346 152.755C320.346 152.705 324.729 152.665 330.139 152.665C335.546 152.665 339.93 152.705 339.93 152.755Z" fill="#086E86"/>
<path d="M331.397 155.712H328.082V160.454H331.397V155.712Z" fill="#63CAE1"/>
<path d="M339.93 162.318C339.93 162.368 335.546 162.409 330.139 162.409C324.729 162.409 320.346 162.368 320.346 162.318C320.346 162.268 324.729 162.228 330.139 162.228C335.546 162.228 339.93 162.268 339.93 162.318Z" fill="#086E86"/>
<path d="M351.325 105.174C351.505 104.205 349.666 103.409 348.285 103.326C347.626 103.287 346.942 103.362 346.318 103.2C344.966 102.849 344.426 101.551 343.106 101.137C342.12 100.827 340.984 101.103 340.028 101.461C339.072 101.818 338.127 102.269 337.059 102.32C336.129 102.364 335.12 102.107 334.307 102.445C333.701 102.696 333.384 103.216 332.826 103.522C332.279 103.821 331.567 103.885 330.889 103.912C330.212 103.94 329.51 103.945 328.893 104.155C328.275 104.365 327.765 104.85 327.893 105.346L351.325 105.174Z" fill="#63CAE1"/>
<path d="M275.707 109.986C275.836 109.287 274.51 108.713 273.513 108.653C273.037 108.624 272.544 108.678 272.093 108.562C271.118 108.309 270.728 107.371 269.776 107.073C269.064 106.85 268.245 107.048 267.555 107.307C266.865 107.565 266.183 107.89 265.412 107.926C264.741 107.958 264.013 107.774 263.426 108.017C262.989 108.199 262.76 108.573 262.357 108.794C261.963 109.01 261.449 109.056 260.96 109.076C260.471 109.096 259.964 109.099 259.519 109.251C259.073 109.403 258.705 109.753 258.798 110.111L275.707 109.986Z" fill="#63CAE1"/>
<path d="M258.111 167.981L278.027 167.92L297.943 167.897L337.774 167.855L377.606 167.897L397.521 167.919L417.437 167.981L397.521 168.043L377.606 168.065L337.774 168.107L297.943 168.065L278.027 168.043L258.111 167.981Z" fill="#63CAE1"/>
<path d="M417.437 165.303H258.111V167.981H417.437V165.303Z" fill="#50A6BA"/>
<path d="M266.307 165.303C266.403 165.749 266.425 166.195 266.429 166.642C266.425 167.088 266.404 167.534 266.307 167.981C266.211 167.534 266.189 167.088 266.186 166.642C266.19 166.195 266.211 165.749 266.307 165.303Z" fill="#63CAE1"/>
<path d="M275.836 165.303C275.932 165.749 275.954 166.195 275.958 166.642C275.954 167.088 275.933 167.534 275.836 167.981C275.74 167.534 275.718 167.088 275.715 166.642C275.719 166.195 275.74 165.749 275.836 165.303Z" fill="#63CAE1"/>
<path d="M285.364 165.303C285.46 165.749 285.481 166.195 285.485 166.642C285.482 167.088 285.46 167.534 285.364 167.981C285.267 167.534 285.246 167.088 285.242 166.642C285.246 166.195 285.268 165.749 285.364 165.303Z" fill="#63CAE1"/>
<path d="M294.893 165.303C294.989 165.749 295.011 166.195 295.015 166.642C295.011 167.088 294.99 167.534 294.893 167.981C294.797 167.534 294.775 167.088 294.771 166.642C294.776 166.195 294.797 165.749 294.893 165.303Z" fill="#63CAE1"/>
<path d="M304.422 165.303C304.518 165.749 304.54 166.195 304.544 166.642C304.54 167.088 304.519 167.534 304.422 167.981C304.326 167.534 304.304 167.088 304.301 166.642C304.305 166.195 304.327 165.749 304.422 165.303Z" fill="#63CAE1"/>
<path d="M313.952 165.303C314.048 165.749 314.069 166.195 314.073 166.642C314.07 167.088 314.048 167.534 313.952 167.981C313.855 167.534 313.834 167.088 313.83 166.642C313.834 166.195 313.856 165.749 313.952 165.303Z" fill="#63CAE1"/>
<path d="M323.479 165.303C323.575 165.749 323.597 166.195 323.601 166.642C323.597 167.088 323.576 167.534 323.479 167.981C323.382 167.534 323.361 167.088 323.357 166.642C323.362 166.195 323.383 165.749 323.479 165.303Z" fill="#63CAE1"/>
<path d="M333.008 165.303C333.104 165.749 333.126 166.195 333.13 166.642C333.126 167.088 333.105 167.534 333.008 167.981C332.912 167.534 332.89 167.088 332.887 166.642C332.891 166.195 332.913 165.749 333.008 165.303Z" fill="#63CAE1"/>
<path d="M342.536 165.303C342.632 165.749 342.653 166.195 342.657 166.642C342.654 167.088 342.632 167.534 342.536 167.981C342.439 167.534 342.418 167.088 342.414 166.642C342.418 166.195 342.44 165.749 342.536 165.303Z" fill="#63CAE1"/>
<path d="M352.067 165.303C352.163 165.749 352.184 166.195 352.189 166.642C352.185 167.088 352.164 167.534 352.067 167.981C351.97 167.534 351.949 167.088 351.945 166.642C351.949 166.195 351.971 165.749 352.067 165.303Z" fill="#63CAE1"/>
<path d="M361.594 165.303C361.69 165.749 361.712 166.195 361.716 166.642C361.712 167.088 361.691 167.534 361.594 167.981C361.498 167.534 361.476 167.088 361.473 166.642C361.477 166.195 361.498 165.749 361.594 165.303Z" fill="#63CAE1"/>
<path d="M371.124 165.303C371.219 165.749 371.241 166.195 371.245 166.642C371.242 167.088 371.22 167.534 371.124 167.981C371.027 167.534 371.006 167.088 371.002 166.642C371.006 166.195 371.028 165.749 371.124 165.303Z" fill="#63CAE1"/>
<path d="M380.651 165.303C380.747 165.749 380.768 166.195 380.773 166.642C380.769 167.088 380.747 167.534 380.651 167.981C380.554 167.534 380.533 167.088 380.529 166.642C380.533 166.195 380.555 165.749 380.651 165.303Z" fill="#63CAE1"/>
<path d="M390.182 165.303C390.278 165.749 390.3 166.195 390.304 166.642C390.3 167.088 390.279 167.534 390.182 167.981C390.086 167.534 390.064 167.088 390.061 166.642C390.065 166.195 390.086 165.749 390.182 165.303Z" fill="#63CAE1"/>
</g>
</svg>
