<svg width="393" height="485" viewBox="0 0 393 485" fill="none" xmlns="http://www.w3.org/2000/svg">
<g opacity="0.4" filter="url(#filter0_f_706_1126)">
<path d="M336.123 241.696C366.459 290.381 384.562 364.866 337.628 379.471C290.695 394.076 214.713 379.928 199.287 330.358C183.862 280.788 159.463 187.75 206.396 173.146C253.33 158.541 307.061 200.469 336.123 241.696Z" fill="#E36F00"/>
<path d="M335.707 241.973C350.842 266.267 362.912 296.979 365.354 323.41C366.575 336.627 365.384 348.732 361.003 358.423C356.631 368.095 349.072 375.386 337.48 378.994C314.114 386.265 283.487 386.382 256.784 378.501C230.074 370.617 207.408 354.769 199.765 330.209C192.053 305.428 182.113 269.824 179.956 238.605C178.878 222.994 179.749 208.524 183.788 197.067C187.82 185.628 194.996 177.217 206.545 173.623C229.821 166.38 254.835 173.141 277.704 186.912C300.562 200.678 321.209 221.41 335.707 241.973Z" stroke="black"/>
</g>
<g opacity="0.4" filter="url(#filter1_f_706_1126)">
<path d="M135.276 256.384C78.7213 246.787 10.9765 210.921 31.1827 166.113C51.3889 121.305 112.38 73.834 159.706 95.1754C207.031 116.517 292.835 159.978 272.629 204.786C252.423 249.594 185.404 261.986 135.276 256.384Z" fill="#01674F"/>
<path d="M135.345 255.889C107.126 251.098 76.137 239.756 54.7399 224.049C44.04 216.195 35.7715 207.274 31.4262 197.567C27.0892 187.879 26.6477 177.385 31.6385 166.318C41.6979 144.011 61.9275 121.015 85.5394 106.262C109.157 91.5057 136.052 85.0574 159.5 95.6312C183.16 106.3 216.395 122.481 241.187 141.577C253.584 151.126 263.833 161.377 269.727 172C275.612 182.605 277.145 193.555 272.173 204.581C262.152 226.803 240.499 241.035 215.024 249.012C189.559 256.985 160.35 258.681 135.345 255.889Z" stroke="black"/>
</g>
<g filter="url(#filter2_b_706_1126)">
<rect x="132.87" y="92.1323" width="211.48" height="246.726" rx="22" transform="rotate(12.9861 132.87 92.1323)" fill="url(#paint0_linear_706_1126)" fill-opacity="0.5"/>
<rect x="133.245" y="92.7319" width="210.48" height="245.726" rx="21.5" transform="rotate(12.9861 133.245 92.7319)" stroke="url(#paint1_linear_706_1126)" stroke-opacity="0.5"/>
<rect x="133.245" y="92.7319" width="210.48" height="245.726" rx="21.5" transform="rotate(12.9861 133.245 92.7319)" stroke="url(#paint2_linear_706_1126)" stroke-opacity="0.1"/>
</g>
<g opacity="0.29" filter="url(#filter3_b_706_1126)">
<rect x="148.87" y="121.132" width="168" height="196" rx="22" transform="rotate(12.99 148.87 121.132)" fill="#92FFE5"/>
</g>
<path d="M198.597 217.311C199.268 213.591 201.386 210.288 204.487 208.125C207.588 205.962 211.42 205.114 215.144 205.767C218.778 206.812 221.851 209.252 223.691 212.555C225.531 215.858 225.988 219.755 224.962 223.393C224.286 227.108 222.166 230.403 219.067 232.56C215.968 234.717 212.141 235.56 208.422 234.906C204.792 233.865 201.721 231.43 199.881 228.134C198.04 224.837 197.578 220.946 198.597 217.311ZM252.239 245.211C250.244 253.919 245.68 261.827 239.139 267.911C238.96 268.102 238.766 268.277 238.557 268.435C233.188 273.308 226.719 276.808 219.702 278.638C212.686 280.467 205.33 280.572 198.264 278.942C191.198 277.312 184.631 273.996 179.125 269.277C173.619 264.559 169.337 258.578 166.645 251.846C166.526 251.613 166.428 251.37 166.351 251.12C163.844 244.553 162.912 237.489 163.628 230.496C164.344 223.503 166.69 216.775 170.476 210.852C174.263 204.929 179.385 199.976 185.433 196.39C191.48 192.804 198.284 190.684 205.298 190.202C212.313 189.719 219.344 190.887 225.826 193.611C232.308 196.335 238.062 200.54 242.626 205.888C247.19 211.236 250.436 217.579 252.106 224.408C253.775 231.237 253.821 238.362 252.239 245.211ZM169.205 226.056C167.658 232.708 167.836 239.644 169.722 246.208C178.554 238.871 192.832 236.309 207.327 239.653C221.822 242.997 233.535 251.554 238.261 262.018C242.37 257.459 245.38 252.02 247.061 246.117C248.742 240.214 249.049 234.005 247.958 227.965C246.867 221.925 244.408 216.215 240.768 211.272C237.128 206.33 232.405 202.285 226.96 199.45C221.515 196.615 215.493 195.063 209.356 194.914C203.219 194.765 197.129 196.024 191.554 198.592C185.979 201.16 181.066 204.971 177.192 209.732C173.318 214.492 170.586 220.076 169.205 226.056Z" fill="#01674F"/>
<line x1="100.544" y1="300.291" x2="97.6121" y2="315.036" stroke="black"/>
<line x1="97.2358" y1="314.451" x2="107.022" y2="316.737" stroke="black"/>
<line y1="-0.5" x2="15.0333" y2="-0.5" transform="matrix(-0.331615 0.943415 0.943415 0.331615 277.194 344.428)" stroke="black"/>
<line y1="-0.5" x2="10.0499" y2="-0.5" transform="matrix(-0.953873 -0.300212 -0.300212 0.953873 272.208 358.611)" stroke="black"/>
<line x1="317.842" y1="167.78" x2="320.774" y2="153.036" stroke="black"/>
<line x1="321.15" y1="153.62" x2="311.363" y2="151.335" stroke="black"/>
<line y1="-0.5" x2="15.0333" y2="-0.5" transform="matrix(0.266191 -0.96392 -0.96392 -0.266191 139.504 125.913)" stroke="black"/>
<line y1="-0.5" x2="10.0499" y2="-0.5" transform="matrix(0.972202 0.234145 0.234145 -0.972202 143.506 111.422)" stroke="black"/>
<defs>
<filter id="filter0_f_706_1126" x="79.0312" y="70.1785" width="387.274" height="414.752" filterUnits="userSpaceOnUse" color-interpolation-filters="sRGB">
<feFlood flood-opacity="0" result="BackgroundImageFix"/>
<feBlend mode="normal" in="SourceGraphic" in2="BackgroundImageFix" result="shape"/>
<feGaussianBlur stdDeviation="50" result="effect1_foregroundBlur_706_1126"/>
</filter>
<filter id="filter1_f_706_1126" x="-72.4658" y="-10.0939" width="448.123" height="367.736" filterUnits="userSpaceOnUse" color-interpolation-filters="sRGB">
<feFlood flood-opacity="0" result="BackgroundImageFix"/>
<feBlend mode="normal" in="SourceGraphic" in2="BackgroundImageFix" result="shape"/>
<feGaussianBlur stdDeviation="50" result="effect1_foregroundBlur_706_1126"/>
</filter>
<filter id="filter2_b_706_1126" x="46.8027" y="61.5085" width="322.763" height="349.187" filterUnits="userSpaceOnUse" color-interpolation-filters="sRGB">
<feFlood flood-opacity="0" result="BackgroundImageFix"/>
<feGaussianBlur in="BackgroundImageFix" stdDeviation="17.5"/>
<feComposite in2="SourceAlpha" operator="in" result="effect1_backgroundBlur_706_1126"/>
<feBlend mode="normal" in="SourceGraphic" in2="effect1_backgroundBlur_706_1126" result="shape"/>
</filter>
<filter id="filter3_b_706_1126" x="74.1904" y="90.5096" width="269.003" height="289.993" filterUnits="userSpaceOnUse" color-interpolation-filters="sRGB">
<feFlood flood-opacity="0" result="BackgroundImageFix"/>
<feGaussianBlur in="BackgroundImageFix" stdDeviation="17.5"/>
<feComposite in2="SourceAlpha" operator="in" result="effect1_backgroundBlur_706_1126"/>
<feBlend mode="normal" in="SourceGraphic" in2="effect1_backgroundBlur_706_1126" result="shape"/>
</filter>
<linearGradient id="paint0_linear_706_1126" x1="169.283" y1="134.036" x2="349.598" y2="354.699" gradientUnits="userSpaceOnUse">
<stop stop-color="white"/>
<stop offset="1" stop-color="#DCDCDC"/>
</linearGradient>
<linearGradient id="paint1_linear_706_1126" x1="147.533" y1="103.446" x2="323.926" y2="326.708" gradientUnits="userSpaceOnUse">
<stop stop-color="white"/>
<stop offset="1" stop-color="white" stop-opacity="0.5"/>
</linearGradient>
<linearGradient id="paint2_linear_706_1126" x1="127.517" y1="80.3677" x2="369.367" y2="376.703" gradientUnits="userSpaceOnUse">
<stop stop-color="white" stop-opacity="0"/>
<stop offset="1" stop-color="white"/>
</linearGradient>
</defs>
</svg>
